# Blender v3.5.0 OBJ File: ''
# www.blender.org
mtllib elbow.mtl
o link3
v 19.354294 32.130566 43.928585
v -38.645706 32.130566 43.928585
v 19.354294 25.071743 43.928589
v -38.645706 25.071743 43.928589
v 19.354294 25.071747 103.484131
v -38.645706 25.071747 103.484131
v -38.645706 85.071747 127.928581
v -38.645706 85.071747 73.928581
v 19.354294 85.071747 127.928581
v 19.354294 85.071747 73.928581
v 46.354294 85.071747 127.928581
v 46.354294 -49.928257 72.928589
v -43.645706 -49.928257 72.928589
v -43.645706 85.071747 127.928581
v -43.645706 85.071747 73.928581
v -36.145706 25.071737 -37.071411
v -36.145706 -49.928265 -37.071407
v -36.158970 25.071737 -35.116669
v -36.177761 -49.928265 -34.032864
v -36.195591 25.071737 -33.354492
v -36.269138 -49.928265 -31.480495
v -36.337097 25.071737 -30.382082
v -36.419968 -49.928265 -29.358639
v -36.564636 25.071737 -28.074129
v -36.630383 -49.928265 -27.611568
v -36.870312 25.071737 -26.315889
v -36.900467 -49.928265 -26.183834
v -37.244881 25.071737 -24.971529
v -37.225956 -49.928261 -25.027706
v -37.678535 25.071737 -23.896395
v -38.031807 -49.928261 -23.191128
v -38.684990 25.071737 -21.999880
v -39.040752 -49.928261 -21.336544
v -39.822533 25.071737 -19.713686
v -39.629524 -49.928261 -20.139919
v -40.282646 -49.928261 -18.616390
v -40.424969 25.071737 -18.256014
v -41.005474 -49.928261 -16.656857
v -41.044212 25.071737 -16.546724
v -41.677433 25.071737 -14.573946
v -41.803360 -49.928261 -14.152218
v -42.322742 25.071739 -12.335207
v -42.681652 -49.928261 -10.993435
v -42.979015 25.071739 -9.833101
v -43.152622 -49.928261 -9.134640
v -43.645706 25.071739 -7.071413
v -43.645706 -49.928261 -7.071407
v 46.354294 -49.928261 -7.071407
v 45.835632 -49.928261 -9.095669
v 46.354294 25.071739 -7.071413
v 45.655952 25.071739 -9.772219
v 45.343811 -49.928261 -10.915951
v 44.973362 25.071739 -12.220278
v 44.437000 -49.928261 -14.000179
v 44.307175 25.071737 -14.412050
v 43.626488 -49.928261 -16.435513
v 43.658661 25.071737 -16.345308
v 43.029819 25.071737 -18.022982
v 42.904907 -49.928261 -18.333248
v 42.423508 25.071737 -19.457613
v 42.264889 -49.928261 -19.804806
v 41.696415 -49.928261 -20.965420
v 41.294643 25.071737 -21.726534
v 40.733322 -49.928261 -22.777920
v 40.314484 25.071737 -23.648623
v 39.971050 -49.928261 -24.529598
v 39.897564 25.071737 -24.751955
v 39.653645 -49.928265 -25.628109
v 39.539982 25.071737 -26.132662
v 39.381863 -49.928265 -27.002163
v 39.249836 25.071737 -27.933168
v 39.160870 -49.928265 -28.742641
v 39.034786 25.071737 -30.286959
v 38.995831 -49.928265 -30.940426
v 38.901386 25.071737 -33.306885
v 38.891918 -49.928265 -33.686398
v 38.866863 25.071737 -35.092896
v 38.854294 -49.928265 -37.071407
v 38.854294 25.071737 -37.071411
v 46.354294 25.071743 39.928589
v 46.354294 85.071747 73.928581
v -43.645706 25.071743 39.928589
vn 0.0000 0.0000 1.0000
vn 0.0000 1.0000 -0.0000
vn 1.0000 0.0000 0.0000
vn -1.0000 -0.0000 0.0000
vn 0.0000 -0.3773 0.9261
vn -1.0000 0.0000 -0.0068
vn -1.0000 0.0000 -0.0079
vn -1.0000 0.0003 -0.0077
vn -0.9998 0.0000 -0.0178
vn -0.9998 -0.0000 -0.0208
vn -0.9992 0.0000 -0.0392
vn -0.9994 0.0001 -0.0358
vn -0.9990 -0.0001 -0.0442
vn -0.9989 -0.0002 -0.0476
vn -0.9975 0.0001 -0.0709
vn -0.9952 -0.0002 -0.0981
vn -0.9928 0.0001 -0.1196
vn -0.9852 -0.0002 -0.1713
vn -0.9826 0.0001 -0.1859
vn -0.9633 -0.0001 -0.2684
vn -0.9631 -0.0000 -0.2692
vn -0.9628 -0.0000 -0.2702
vn -0.9626 -0.0000 -0.2710
vn -0.9274 0.0000 -0.3741
vn -0.9157 0.0005 -0.4018
vn -0.8833 -0.0002 -0.4688
vn -0.8819 -0.0002 -0.4714
vn -0.8798 -0.0001 -0.4753
vn -0.8784 -0.0001 -0.4779
vn -0.8953 0.0003 -0.4455
vn -0.8959 0.0003 -0.4443
vn -0.8967 0.0002 -0.4426
vn -0.8973 0.0002 -0.4415
vn -0.9206 -0.0000 -0.3905
vn -0.9191 -0.0001 -0.3940
vn -0.9227 0.0001 -0.3855
vn -0.9242 0.0001 -0.3820
vn -0.9388 -0.0001 -0.3445
vn -0.9382 -0.0001 -0.3461
vn -0.9396 -0.0000 -0.3422
vn -0.9402 0.0000 -0.3406
vn -0.9522 -0.0000 -0.3056
vn -0.9524 -0.0000 -0.3050
vn -0.9526 -0.0001 -0.3042
vn -0.9528 -0.0001 -0.3035
vn -0.9609 0.0001 -0.2770
vn -0.9616 0.0000 -0.2744
vn -0.9627 -0.0001 -0.2705
vn -0.9635 -0.0002 -0.2679
vn -0.9673 0.0001 -0.2537
vn -0.9702 0.0000 -0.2424
vn -0.9694 -0.0000 -0.2456
vn -0.9725 0.0002 -0.2331
vn -0.9725 0.0000 -0.2330
vn -0.9726 -0.0000 -0.2324
vn 0.9687 0.0000 -0.2482
vn 0.9683 0.0001 -0.2497
vn 0.9686 0.0000 -0.2488
vn 0.9682 0.0001 -0.2503
vn 0.9648 0.0000 -0.2631
vn 0.9654 -0.0000 -0.2608
vn 0.9639 0.0001 -0.2663
vn 0.9633 0.0001 -0.2686
vn 0.9587 -0.0001 -0.2846
vn 0.9594 -0.0002 -0.2821
vn 0.9575 -0.0000 -0.2883
vn 0.9568 0.0001 -0.2908
vn 0.9486 -0.0001 -0.3165
vn 0.9488 -0.0001 -0.3158
vn 0.9483 -0.0000 -0.3173
vn 0.9481 -0.0000 -0.3180
vn 0.9364 0.0000 -0.3510
vn 0.9359 -0.0000 -0.3522
vn 0.9352 -0.0001 -0.3541
vn 0.9347 -0.0001 -0.3554
vn 0.9211 0.0001 -0.3893
vn 0.9199 0.0000 -0.3921
vn 0.9182 -0.0000 -0.3961
vn 0.9170 -0.0001 -0.3988
vn 0.8973 0.0002 -0.4415
vn 0.8981 0.0001 -0.4399
vn 0.8961 0.0002 -0.4439
vn 0.8953 0.0003 -0.4454
vn 0.8831 -0.0000 -0.4692
vn 0.8909 -0.0003 -0.4543
vn 0.9169 0.0005 -0.3990
vn 0.9354 -0.0001 -0.3535
vn 0.9607 0.0001 -0.2776
vn 0.9681 -0.0002 -0.2507
vn 0.9810 0.0002 -0.1940
vn 0.9873 -0.0002 -0.1591
vn 0.9920 0.0002 -0.1260
vn 0.9959 -0.0002 -0.0910
vn 0.9972 0.0001 -0.0749
vn 0.9990 -0.0001 -0.0441
vn 0.9991 -0.0000 -0.0423
vn 0.9992 0.0001 -0.0396
vn 0.9993 0.0001 -0.0378
vn 0.9998 -0.0000 -0.0193
vn 0.9999 0.0000 -0.0169
vn 1.0000 0.0004 -0.0075
vn 1.0000 0.0000 -0.0078
vn 1.0000 -0.0000 -0.0064
vn 0.0000 -1.0000 -0.0000
vn 0.0000 -1.0000 -0.0001
vn 0.0000 -0.0000 -1.0000
vn 0.0000 0.4930 -0.8700
usemtl None.001
s 1
f 1//1 2//1 3//1
f 3//1 2//1 4//1
f 5//2 3//2 6//2
f 6//2 3//2 4//2
f 7//3 6//3 8//3
f 8//3 6//3 2//3
f 2//3 6//3 4//3
f 9//4 10//4 5//4
f 5//4 10//4 1//4
f 5//4 1//4 3//4
f 9//5 5//5 11//5
f 11//5 5//5 12//5
f 12//5 5//5 13//5
f 13//5 5//5 6//5
f 13//5 6//5 14//5
f 14//5 6//5 7//5
f 7//2 8//2 14//2
f 14//2 8//2 15//2
f 16//6 17//7 18//8
f 18//8 17//7 19//9
f 18//8 19//9 20//10
f 20//11 19//12 21//13
f 20//11 21//13 22//14
f 22//15 21//15 23//15
f 22//16 23//16 24//16
f 24//17 23//17 25//17
f 24//18 25//18 26//18
f 26//19 25//19 27//19
f 26//20 27//21 28//22
f 28//22 27//21 29//23
f 28//24 29//24 30//24
f 30//25 29//25 31//25
f 30//26 31//27 32//28
f 32//28 31//27 33//29
f 32//30 33//31 34//32
f 34//32 33//31 35//33
f 34//34 35//35 36//36
f 34//34 36//36 37//37
f 37//38 36//39 38//40
f 37//38 38//40 39//41
f 39//42 38//43 40//44
f 40//44 38//43 41//45
f 40//46 41//47 42//48
f 42//48 41//47 43//49
f 42//50 43//50 44//50
f 44//51 43//52 45//53
f 44//51 45//53 46//54
f 46//54 45//53 47//55
f 48//56 49//57 50//58
f 50//58 49//57 51//59
f 51//60 49//61 52//62
f 51//60 52//62 53//63
f 53//64 52//65 54//66
f 53//64 54//66 55//67
f 55//68 54//69 56//70
f 55//68 56//70 57//71
f 57//72 56//73 58//74
f 58//74 56//73 59//75
f 58//76 59//77 60//78
f 60//78 59//77 61//79
f 60//80 61//81 62//82
f 60//80 62//82 63//83
f 63//84 62//84 64//84
f 63//85 64//85 65//85
f 65//86 64//86 66//86
f 65//87 66//87 67//87
f 67//88 66//88 68//88
f 67//89 68//89 69//89
f 69//90 68//90 70//90
f 69//91 70//91 71//91
f 71//92 70//92 72//92
f 71//93 72//93 73//93
f 73//94 72//94 74//94
f 73//95 74//96 75//97
f 75//97 74//96 76//98
f 75//99 76//100 77//101
f 77//101 76//100 78//102
f 77//101 78//102 79//103
f 45//104 49//104 47//104
f 47//104 49//104 48//104
f 47//104 48//104 13//104
f 13//104 48//104 12//104
f 43//104 64//104 45//104
f 45//104 64//104 52//104
f 45//104 52//104 49//104
f 64//104 43//104 31//104
f 31//104 43//104 41//104
f 31//104 41//104 38//104
f 36//105 35//104 38//104
f 38//104 35//104 33//104
f 38//104 33//104 31//104
f 64//104 31//104 66//104
f 66//104 31//104 29//104
f 66//104 29//104 68//104
f 68//104 29//104 27//104
f 68//104 27//104 70//104
f 70//104 27//104 25//104
f 70//104 25//104 72//104
f 72//104 25//104 23//104
f 72//104 23//104 74//104
f 74//104 23//104 21//104
f 74//104 21//104 76//104
f 76//104 21//104 19//104
f 76//104 19//104 78//104
f 78//104 19//104 17//104
f 52//104 64//104 54//104
f 54//104 64//104 62//104
f 54//104 62//104 56//104
f 56//104 62//104 61//104
f 56//104 61//104 59//104
f 17//106 16//106 78//106
f 78//106 16//106 79//106
f 50//3 80//3 48//3
f 48//3 80//3 12//3
f 12//3 80//3 11//3
f 11//3 80//3 81//3
f 10//2 9//2 81//2
f 81//2 9//2 11//2
f 10//107 81//107 1//107
f 1//107 81//107 80//107
f 1//107 80//107 82//107
f 1//107 82//107 2//107
f 2//107 82//107 15//107
f 2//107 15//107 8//107
f 79//2 16//2 77//2
f 77//2 16//2 18//2
f 77//2 18//2 75//2
f 75//2 18//2 20//2
f 75//2 20//2 73//2
f 73//2 20//2 22//2
f 73//2 22//2 71//2
f 71//2 22//2 24//2
f 71//2 24//2 69//2
f 69//2 24//2 26//2
f 69//2 26//2 67//2
f 67//2 26//2 28//2
f 67//2 28//2 65//2
f 65//2 28//2 30//2
f 65//2 30//2 63//2
f 63//2 30//2 32//2
f 63//2 32//2 34//2
f 34//2 37//2 63//2
f 63//2 37//2 39//2
f 63//2 39//2 60//2
f 60//2 39//2 58//2
f 58//2 39//2 57//2
f 57//2 39//2 40//2
f 57//2 40//2 55//2
f 55//2 40//2 42//2
f 55//2 42//2 53//2
f 53//2 42//2 44//2
f 53//2 44//2 51//2
f 51//2 44//2 46//2
f 51//2 46//2 50//2
f 50//2 46//2 82//2
f 50//2 82//2 80//2
f 46//4 47//4 82//4
f 82//4 47//4 13//4
f 82//4 13//4 14//4
f 14//4 15//4 82//4
