# Blender v3.0.0 OBJ File: ''
# www.blender.org
mtllib link4.mtl
o link4
v 21.500000 70.000000 -665.500000
v -48.500000 70.000000 -665.500000
v 24.426355 72.926353 -665.211792
v -48.500000 73.612762 -665.058411
v 27.240252 75.740250 -664.358215
v -48.500000 77.012825 -663.759705
v 29.833553 78.333557 -662.972046
v -48.500000 80.000000 -661.680359
v -38.500000 80.000000 -661.680359
v 32.106602 80.606606 -661.106628
v -38.500000 82.113327 -659.346863
v 33.972046 82.472046 -658.833557
v -38.500000 83.693062 -656.623718
v 35.358192 83.858192 -656.240234
v -38.500000 84.669624 -653.630798
v 36.211781 84.711777 -653.426331
v -38.500000 85.000000 -650.500000
v 36.500000 85.000000 -650.500000
v 21.500000 25.000000 -665.500000
v 24.426355 22.073645 -665.211792
v 27.240252 19.259748 -664.358215
v 29.833553 16.666447 -662.972046
v 32.106602 14.393398 -661.106628
v 33.972046 12.527956 -658.833557
v 35.358192 11.141807 -656.240234
v 36.211781 10.288220 -653.426331
v 36.500000 10.000000 -650.500000
v -38.500000 10.000000 -650.500000
v -38.500000 10.330372 -653.630798
v -38.500000 11.306936 -656.623718
v -38.500000 12.886674 -659.346863
v -38.500000 15.000000 -661.680359
v -48.500000 15.000000 -661.680359
v -48.500000 17.987175 -663.759705
v -48.500000 21.387236 -665.058411
v -48.500000 25.000000 -665.500000
v -38.500000 80.000000 -645.500000
v -86.500000 80.000000 -670.500000
v -48.500000 80.000000 -735.500000
v -86.500000 80.000000 -735.500000
v -38.500000 85.000000 -450.500000
v -38.500000 15.000000 -645.500000
v -38.500000 10.000000 -450.500000
v 36.500000 85.000000 -450.500000
v -86.500000 15.000000 -670.500000
v -48.500000 15.000000 -735.500000
v -86.500000 15.000000 -735.500000
v 36.500000 10.000000 -450.500000
vn 0.0000 0.0980 -0.9952
vn -0.0009 0.1213 -0.9926
vn 0.0007 0.2896 -0.9571
vn -0.0014 0.3568 -0.9342
vn 0.0009 0.4707 -0.8823
vn -0.0014 0.5713 -0.8207
vn 0.0000 0.6126 -0.7904
vn 0.0008 0.6339 -0.7734
vn -0.0009 0.7412 -0.6713
vn 0.0007 0.7727 -0.6347
vn -0.0007 0.8650 -0.5018
vn 0.0005 0.8818 -0.4716
vn -0.0005 0.9507 -0.3102
vn 0.0003 0.9569 -0.2904
vn -0.0003 0.9945 -0.1049
vn 0.0000 0.9952 -0.0980
vn 0.0980 0.0000 -0.9952
vn 0.2903 0.0000 -0.9569
vn 0.4714 0.0000 -0.8819
vn 0.6344 0.0000 -0.7730
vn 0.7730 0.0000 -0.6344
vn 0.8819 0.0000 -0.4714
vn 0.9569 0.0000 -0.2903
vn 0.9952 0.0000 -0.0980
vn 0.0000 -0.9952 -0.0980
vn -0.0003 -0.9945 -0.1049
vn 0.0003 -0.9569 -0.2904
vn -0.0005 -0.9507 -0.3102
vn 0.0005 -0.8818 -0.4716
vn -0.0007 -0.8650 -0.5018
vn 0.0007 -0.7727 -0.6347
vn -0.0009 -0.7412 -0.6713
vn 0.0008 -0.6339 -0.7734
vn 0.0000 -0.6126 -0.7904
vn -0.0014 -0.5713 -0.8207
vn 0.0009 -0.4707 -0.8823
vn -0.0014 -0.3568 -0.9342
vn 0.0007 -0.2896 -0.9571
vn -0.0009 -0.1213 -0.9926
vn 0.0000 -0.0980 -0.9952
vn 0.0000 1.0000 0.0000
vn -1.0000 0.0000 0.0000
vn 0.0000 0.0000 -1.0000
vn 0.0000 -1.0000 0.0000
vn 1.0000 0.0000 0.0000
vn -0.4619 0.0000 0.8869
vn 0.0000 0.0000 1.0000
usemtl None
s off
f 1//1 2//1 3//1
f 3//2 2//2 4//2
f 3//3 4//3 5//3
f 5//4 4//4 6//4
f 5//5 6//5 7//5
f 7//6 6//6 8//6
f 7//7 8//7 9//7
f 7//8 9//8 10//8
f 10//9 9//9 11//9
f 10//10 11//10 12//10
f 12//11 11//11 13//11
f 12//12 13//12 14//12
f 14//13 13//13 15//13
f 14//14 15//14 16//14
f 16//15 15//15 17//15
f 16//16 17//16 18//16
f 19//17 1//17 20//17
f 20//17 1//17 3//17
f 20//18 3//18 5//18
f 20//18 5//18 21//18
f 21//19 5//19 7//19
f 21//19 7//19 22//19
f 22//20 7//20 23//20
f 23//20 7//20 10//20
f 23//21 10//21 24//21
f 24//21 10//21 12//21
f 24//22 12//22 14//22
f 24//22 14//22 25//22
f 25//23 14//23 16//23
f 25//23 16//23 26//23
f 26//24 16//24 27//24
f 27//24 16//24 18//24
f 27//25 28//25 26//25
f 26//26 28//26 29//26
f 26//27 29//27 25//27
f 25//28 29//28 30//28
f 25//29 30//29 24//29
f 24//30 30//30 31//30
f 24//31 31//31 23//31
f 23//32 31//32 32//32
f 23//33 32//33 22//33
f 22//34 32//34 33//34
f 22//35 33//35 34//35
f 22//36 34//36 21//36
f 21//37 34//37 35//37
f 21//38 35//38 20//38
f 20//39 35//39 36//39
f 20//40 36//40 19//40
f 9//41 8//41 37//41
f 37//41 8//41 38//41
f 38//41 8//41 39//41
f 38//41 39//41 40//41
f 41//42 17//42 37//42
f 37//42 17//42 15//42
f 37//42 15//42 13//42
f 13//42 11//42 37//42
f 37//42 11//42 9//42
f 37//42 42//42 41//42
f 41//42 42//42 43//42
f 43//42 42//42 28//42
f 28//42 42//42 29//42
f 29//42 42//42 30//42
f 30//42 42//42 31//42
f 31//42 42//42 32//42
f 2//43 1//43 36//43
f 36//43 1//43 19//43
f 17//41 41//41 18//41
f 18//41 41//41 44//41
f 32//44 42//44 33//44
f 33//44 42//44 45//44
f 33//44 45//44 46//44
f 46//44 45//44 47//44
f 8//45 6//45 39//45
f 39//45 6//45 4//45
f 39//45 4//45 2//45
f 2//45 36//45 39//45
f 39//45 36//45 46//45
f 46//45 36//45 35//45
f 46//45 35//45 34//45
f 34//45 33//45 46//45
f 40//43 39//43 47//43
f 47//43 39//43 46//43
f 38//42 40//42 45//42
f 45//42 40//42 47//42
f 37//46 38//46 42//46
f 42//46 38//46 45//46
f 44//47 41//47 48//47
f 48//47 41//47 43//47
f 18//45 44//45 27//45
f 27//45 44//45 48//45
f 27//44 48//44 28//44
f 28//44 48//44 43//44
