# Blender v3.5.0 OBJ File: ''
# www.blender.org
mtllib lower_arm.mtl
o link4
v 36.972969 22.499998 -17.002932
v -33.027031 22.499998 -17.002932
v 39.899323 25.426352 -16.714724
v -33.027031 26.112761 -16.561342
v 42.713219 28.240248 -15.861147
v -33.027031 29.512823 -15.262636
v 45.306522 30.833555 -14.474977
v -33.027031 32.500000 -13.183291
v -23.027031 32.500000 -13.183291
v 47.579571 33.106606 -12.609561
v -23.027031 34.613327 -10.849795
v 49.445015 34.972046 -10.336490
v -23.027031 36.193062 -8.126651
v 50.831161 36.358192 -7.743167
v -23.027031 37.169624 -5.133731
v 51.684750 37.211777 -4.929263
v -23.027031 37.500000 -2.002933
v 51.972969 37.500000 -2.002933
v 36.972969 -22.500002 -17.002928
v 39.899323 -25.426357 -16.714720
v 42.713219 -28.240253 -15.861143
v 45.306522 -30.833555 -14.474974
v 47.579571 -33.106602 -12.609555
v 49.445015 -34.972046 -10.336484
v 50.831161 -36.358192 -7.743161
v 51.684750 -37.211781 -4.929257
v 51.972969 -37.500000 -2.002927
v -23.027031 -37.500000 -2.002927
v -23.027031 -37.169628 -5.133725
v -23.027031 -36.193062 -8.126645
v -23.027031 -34.613327 -10.849790
v -23.027031 -32.500000 -13.183286
v -33.027031 -32.500000 -13.183286
v -33.027031 -29.512827 -15.262632
v -33.027031 -26.112766 -16.561338
v -33.027031 -22.500002 -17.002928
v -23.027031 32.500000 2.997068
v -71.027031 32.500000 -22.002932
v -33.027031 32.499992 -87.002930
v -71.027031 32.499992 -87.002930
v -23.027031 37.500015 197.997070
v -23.027031 -32.500000 2.997073
v -23.027031 -37.499985 197.997070
v 51.972969 37.500015 197.997070
v -71.027031 -32.500000 -22.002928
v -33.027031 -32.500008 -87.002930
v -71.027031 -32.500008 -87.002930
v 51.972969 -37.499985 197.997070
vn 0.0000 0.0980 -0.9952
vn -0.0009 0.1213 -0.9926
vn 0.0007 0.2896 -0.9571
vn -0.0014 0.3568 -0.9342
vn 0.0009 0.4707 -0.8823
vn -0.0014 0.5713 -0.8207
vn 0.0000 0.6126 -0.7904
vn 0.0008 0.6339 -0.7734
vn -0.0009 0.7412 -0.6713
vn 0.0007 0.7727 -0.6347
vn -0.0007 0.8650 -0.5018
vn 0.0005 0.8818 -0.4716
vn -0.0005 0.9507 -0.3102
vn 0.0003 0.9569 -0.2904
vn -0.0002 0.9947 -0.1030
vn -0.0003 0.9945 -0.1049
vn -0.0001 0.9950 -0.1000
vn 0.0000 0.9952 -0.0980
vn 0.0980 -0.0000 -0.9952
vn 0.2903 -0.0000 -0.9569
vn 0.4714 -0.0000 -0.8819
vn 0.6344 -0.0000 -0.7730
vn 0.7730 0.0000 -0.6344
vn 0.8819 -0.0000 -0.4714
vn 0.9569 -0.0000 -0.2903
vn 0.9952 -0.0000 -0.0980
vn 0.0000 -0.9952 -0.0980
vn -0.0001 -0.9950 -0.1000
vn -0.0002 -0.9947 -0.1030
vn -0.0003 -0.9945 -0.1049
vn 0.0003 -0.9569 -0.2904
vn -0.0005 -0.9507 -0.3102
vn 0.0005 -0.8818 -0.4716
vn -0.0007 -0.8650 -0.5018
vn 0.0007 -0.7727 -0.6347
vn -0.0009 -0.7412 -0.6713
vn 0.0008 -0.6339 -0.7734
vn 0.0000 -0.6126 -0.7904
vn -0.0014 -0.5713 -0.8207
vn 0.0009 -0.4707 -0.8823
vn -0.0014 -0.3568 -0.9342
vn 0.0007 -0.2896 -0.9571
vn -0.0009 -0.1213 -0.9926
vn 0.0000 -0.0980 -0.9952
vn 0.0000 1.0000 0.0000
vn -1.0000 -0.0000 0.0000
vn 0.0000 -0.0000 -1.0000
vn 0.0000 -1.0000 0.0000
vn 1.0000 0.0000 0.0000
vn -0.4619 0.0000 0.8869
vn 0.0000 0.0000 1.0000
usemtl None.002
s 1
f 1//1 2//1 3//1
f 3//2 2//2 4//2
f 3//3 4//3 5//3
f 5//4 4//4 6//4
f 5//5 6//5 7//5
f 7//6 6//6 8//6
f 7//7 8//7 9//7
f 7//8 9//8 10//8
f 10//9 9//9 11//9
f 10//10 11//10 12//10
f 12//11 11//11 13//11
f 12//12 13//12 14//12
f 14//13 13//13 15//13
f 14//14 15//14 16//14
f 16//15 15//16 17//17
f 16//15 17//17 18//18
f 19//19 1//19 20//19
f 20//19 1//19 3//19
f 20//20 3//20 5//20
f 20//20 5//20 21//20
f 21//21 5//21 7//21
f 21//21 7//21 22//21
f 22//22 7//22 23//22
f 23//22 7//22 10//22
f 23//23 10//23 24//23
f 24//23 10//23 12//23
f 24//24 12//24 14//24
f 24//24 14//24 25//24
f 25//25 14//25 16//25
f 25//25 16//25 26//25
f 26//26 16//26 27//26
f 27//26 16//26 18//26
f 27//27 28//28 26//29
f 26//29 28//28 29//30
f 26//31 29//31 25//31
f 25//32 29//32 30//32
f 25//33 30//33 24//33
f 24//34 30//34 31//34
f 24//35 31//35 23//35
f 23//36 31//36 32//36
f 23//37 32//37 22//37
f 22//38 32//38 33//38
f 22//39 33//39 34//39
f 22//40 34//40 21//40
f 21//41 34//41 35//41
f 21//42 35//42 20//42
f 20//43 35//43 36//43
f 20//44 36//44 19//44
f 9//45 8//45 37//45
f 37//45 8//45 38//45
f 38//45 8//45 39//45
f 38//45 39//45 40//45
f 41//46 17//46 37//46
f 37//46 17//46 15//46
f 37//46 15//46 13//46
f 13//46 11//46 37//46
f 37//46 11//46 9//46
f 37//46 42//46 41//46
f 41//46 42//46 43//46
f 43//46 42//46 28//46
f 28//46 42//46 29//46
f 29//46 42//46 30//46
f 30//46 42//46 31//46
f 31//46 42//46 32//46
f 2//47 1//47 36//47
f 36//47 1//47 19//47
f 17//45 41//45 18//45
f 18//45 41//45 44//45
f 32//48 42//48 33//48
f 33//48 42//48 45//48
f 33//48 45//48 46//48
f 46//48 45//48 47//48
f 8//49 6//49 39//49
f 39//49 6//49 4//49
f 39//49 4//49 2//49
f 2//49 36//49 39//49
f 39//49 36//49 46//49
f 46//49 36//49 35//49
f 46//49 35//49 34//49
f 34//49 33//49 46//49
f 40//47 39//47 47//47
f 47//47 39//47 46//47
f 38//46 40//46 45//46
f 45//46 40//46 47//46
f 37//50 38//50 42//50
f 42//50 38//50 45//50
f 44//51 41//51 48//51
f 48//51 41//51 43//51
f 18//49 44//49 27//49
f 27//49 44//49 48//49
f 27//48 48//48 28//48
f 28//48 48//48 43//48
