# Blender 3.5.0
# www.blender.org
mtllib front_left_hip_collision.mtl
o front_left_hip_collision
v 0.001140 -0.056123 -0.029507
v 0.005386 -0.054442 -0.009889
v 0.000073 -0.053949 0.000438
v 0.015882 -0.051646 -0.004096
v 0.011310 -0.052931 -0.003097
v 0.039991 -0.048233 -0.024212
v -0.005222 -0.055741 -0.027447
v -0.002661 -0.056985 -0.044508
v 0.007158 -0.056628 -0.040850
v 0.041317 -0.047199 -0.022752
v -0.006180 -0.046516 0.028968
v 0.002279 -0.046892 0.028686
v -0.005564 -0.046094 0.030324
v -0.094390 -0.048107 -0.000120
v -0.093720 -0.047827 0.006243
v -0.095346 -0.047508 0.006023
v -0.007802 -0.056244 -0.049768
v -0.024056 -0.052957 -0.048914
v -0.033187 -0.050736 -0.050390
v 0.040906 -0.049287 -0.048159
v 0.024601 -0.052803 -0.048796
v 0.041403 -0.049005 -0.049201
v 0.019222 -0.042797 0.028623
v -0.076327 -0.044525 0.018687
v -0.095326 -0.047491 -0.006255
v -0.007155 -0.055976 -0.051019
v 0.042678 -0.048559 -0.047675
v 0.032007 -0.003400 0.047515
v 0.045043 0.004263 0.041597
v 0.026249 0.030320 0.041645
v -0.100216 -0.002698 0.045052
v -0.077180 0.005098 0.048168
v -0.089871 0.037130 0.031205
v -0.099966 -0.002741 -0.045275
v -0.104463 0.008080 -0.030155
v -0.089963 0.037816 -0.030477
v 0.038898 -0.003519 -0.071401
v 0.002609 0.018154 -0.070860
v 0.022530 0.040616 -0.066227
v 0.054998 -0.000489 -0.014481
v 0.056258 0.004044 -0.033497
v 0.048112 0.039268 -0.022925
v 0.041574 0.047346 -0.023556
v 0.038521 0.049519 -0.033838
v 0.016582 0.052129 -0.007312
v 0.047540 0.043091 -0.032665
v 0.056067 0.009389 -0.049263
v 0.053515 0.007059 -0.054904
v 0.044243 0.047114 -0.050017
v 0.011358 0.055677 -0.049118
v -0.008425 0.056486 -0.044789
v 0.006077 0.056063 -0.032106
v -0.006599 0.053314 -0.055344
v -0.041194 0.020477 -0.071747
v -0.055642 0.006411 -0.065695
v -0.041795 0.048022 -0.052148
v -0.040126 0.049691 -0.040701
v -0.075523 0.048475 -0.000239
v -0.014111 0.054125 -0.023963
v -0.094569 0.046987 -0.011496
v -0.104564 0.020419 0.000076
v -0.104639 0.008204 0.030061
v -0.094549 0.046702 0.012272
v -0.075590 0.047029 0.011792
v -0.008603 0.046639 0.028338
v -0.013604 0.052065 0.005952
v -0.052002 0.034805 0.031206
v -0.041472 0.009217 0.046088
v 0.001218 0.008048 0.047663
v -0.003650 0.037231 0.040692
v 0.010326 0.045808 0.029431
v 0.018259 0.046041 0.017455
v 0.001184 0.053694 0.003793
v 0.040332 0.028495 0.036181
v 0.049326 0.017337 0.034021
v 0.051310 0.009302 0.025043
v 0.046397 0.026475 0.027447
v 0.046206 -0.045783 -0.041024
v 0.049714 -0.039864 -0.045925
v 0.048527 -0.039715 -0.025945
v 0.044123 -0.047521 -0.048893
v 0.042261 -0.048027 -0.051253
v 0.042483 -0.044958 -0.054900
v 0.048592 -0.040676 -0.051565
v 0.000057 -0.055223 -0.053408
v -0.027108 -0.041385 -0.070047
v 0.010901 -0.042667 -0.068983
v -0.030936 -0.045751 -0.064747
v -0.041966 -0.048193 -0.051389
v -0.093936 -0.033280 -0.034996
v -0.040091 -0.037642 -0.067209
v -0.096996 -0.045444 -0.012793
v -0.102673 -0.040459 -0.011309
v -0.099650 -0.037528 -0.025931
v -0.097202 -0.047108 -0.000115
v -0.097042 -0.045459 0.012619
v -0.099572 -0.039234 0.023433
v -0.103164 -0.039934 0.010614
v -0.091911 -0.041451 0.024807
v -0.075439 -0.027280 0.039780
v -0.094027 -0.033353 0.034812
v -0.013955 -0.042651 0.033121
v 0.001893 -0.044197 0.033817
v 0.010242 -0.033744 0.042261
v -0.010180 -0.032908 0.042807
v 0.036527 -0.029787 0.037263
v 0.046572 -0.023493 0.035218
v 0.036573 -0.027094 0.040739
v 0.044208 -0.027471 0.032048
v 0.044200 -0.044442 -0.021229
v 0.048918 -0.022715 0.026528
v 0.048915 -0.022114 0.031452
v 0.025929 -0.051344 -0.052447
v 0.028819 -0.051672 -0.050012
v 0.007942 -0.056292 -0.049393
v 0.000018 -0.056819 -0.049594
v 0.007391 -0.056039 -0.050681
v -0.094715 -0.044340 -0.018549
v -0.040778 -0.049313 -0.049186
v -0.093050 -0.047729 -0.007473
v -0.093700 -0.047810 -0.006479
v -0.094327 -0.047530 -0.007679
v -0.094980 -0.044312 0.018418
v -0.094347 -0.047546 0.007446
v -0.093070 -0.047745 0.007236
v -0.076684 -0.046851 0.011819
v -0.092843 -0.046253 0.013831
v 0.012488 -0.043000 0.033156
v 0.003295 -0.046444 0.029895
v 0.003784 -0.046849 0.028474
v 0.012372 -0.045428 0.028088
v 0.012618 -0.044999 0.029427
v 0.045596 -0.044449 -0.024696
v 0.041638 -0.047511 -0.024237
v 0.040226 -0.048329 -0.025335
v 0.040412 -0.049584 -0.041003
v 0.041919 -0.048283 -0.033623
v 0.008100 -0.056535 -0.041298
v 0.008146 -0.056393 -0.048228
v 0.027251 -0.052446 -0.042563
v 0.004227 -0.056904 -0.044300
v -0.003028 -0.056971 -0.045270
v -0.007219 -0.056479 -0.048716
v 0.000312 -0.056955 -0.048595
v -0.008198 -0.056392 -0.047738
v -0.007809 -0.056634 -0.041134
v -0.080985 -0.048336 -0.001406
v -0.093092 -0.048271 -0.000121
v -0.091761 -0.047919 -0.006117
v -0.092595 -0.047914 0.006074
v -0.005958 -0.053485 0.002448
v -0.005047 -0.053262 0.006407
v -0.007993 -0.052287 0.009677
v -0.076461 -0.047955 0.005605
v 0.034298 -0.050936 -0.040700
v 0.034077 -0.049661 -0.024771
v 0.006497 -0.053683 -0.001269
v 0.009328 -0.055111 -0.026607
v -0.004100 -0.053134 0.007161
v 0.001058 -0.053787 0.002371
v 0.004084 -0.053550 0.001549
v -0.000025 0.054757 -0.007671
vn 0.0517 -0.9959 0.0742
vn 0.3068 -0.9283 0.2102
vn -0.0368 -0.9968 0.0711
vn -0.0382 -0.9970 0.0669
vn 0.0165 -0.9985 0.0532
vn 0.3679 -0.8831 0.2911
vn -0.0319 -0.9502 0.3101
vn -0.2006 -0.9776 0.0640
vn -0.2041 -0.9615 -0.1838
vn 0.2141 -0.9639 -0.1581
vn 0.3202 -0.9222 0.2167
vn -0.0747 -0.9421 0.3270
vn -0.5403 -0.8415 -0.0021
vn -0.1952 -0.9335 -0.3009
vn 0.3930 -0.9175 -0.0604
vn 0.2974 0.2128 0.9307
vn -0.2477 0.3749 0.8933
vn -0.7803 0.3751 -0.5005
vn 0.0699 0.1417 -0.9874
vn 0.9751 0.1923 0.1105
vn 0.2636 0.9567 0.1239
vn 0.5804 0.8143 -0.0003
vn 0.8380 0.2530 -0.4835
vn 0.0385 0.9992 -0.0107
vn -0.0247 0.9562 -0.2917
vn -0.6677 0.4219 -0.6134
vn -0.1202 0.9899 -0.0754
vn -0.0631 0.9977 -0.0252
vn -0.9450 0.3038 0.1214
vn -0.0553 0.9675 0.2469
vn -0.1578 0.7378 0.6563
vn -0.0297 0.2275 0.9733
vn 0.2668 0.9438 0.1952
vn 0.4257 0.8542 0.2986
vn 0.9593 0.2798 -0.0384
vn 0.8784 -0.4746 0.0558
vn 0.8209 -0.5635 -0.0928
vn 0.6642 -0.5914 -0.4572
vn -0.0085 -0.7756 -0.6312
vn -0.0026 -0.7709 -0.6369
vn -0.3854 -0.7460 -0.5431
vn -0.6739 -0.6851 -0.2766
vn -0.6717 -0.7331 -0.1071
vn -0.6924 -0.6834 0.2314
vn 0.0801 -0.7665 0.6373
vn -0.0887 -0.6729 0.7344
vn -0.0047 -0.6260 0.7798
vn 0.5278 -0.6749 0.5157
vn 0.5343 -0.6978 0.4771
vn 0.9577 -0.2857 0.0354
vn 0.1991 -0.7557 -0.6239
vn 0.2108 -0.9041 -0.3717
vn 0.0704 -0.9727 -0.2209
vn -0.3839 -0.7577 -0.5277
vn -0.2653 -0.9097 -0.3194
vn -0.1261 -0.9786 -0.1627
vn -0.5081 -0.7925 0.3373
vn -0.2203 -0.9390 0.2640
vn -0.0086 -0.9752 0.2209
vn 0.1220 -0.6808 0.7222
vn 0.1279 -0.8403 0.5269
vn 0.1690 -0.9471 0.2729
vn 0.6469 -0.7161 0.2619
vn 0.6105 -0.7524 0.2473
vn 0.4053 -0.9109 0.0778
vn 0.2076 -0.9780 -0.0186
vn 0.1099 -0.9937 -0.0196
vn -0.0619 -0.9958 -0.0670
vn -0.1040 -0.9945 -0.0156
vn -0.0968 -0.9948 -0.0309
vn -0.0119 -0.9980 -0.0613
vn 0.0007 -0.9983 0.0575
vn -0.0660 -0.9968 -0.0461
vn -0.0747 -0.9720 0.2226
vn 0.2190 -0.9724 0.0805
vn 0.2181 -0.9726 0.0809
vn 0.1301 -0.9890 0.0703
vn -0.0575 -0.9697 0.2375
vn 0.0144 -0.9885 0.1503
vn 0.2421 -0.9370 0.2517
vn 0.1689 -0.9560 0.2398
vn 0.2232 -0.9494 0.2208
vn 0.3072 -0.9276 0.2127
vn 0.1164 -0.9635 0.2411
vn 0.1540 -0.9432 0.2944
vn 0.1170 -0.9822 0.1468
vn -0.0329 -0.9567 0.2893
vn -0.0242 -0.9582 0.2850
vn 0.0642 -0.9634 0.2603
vn 0.1374 -0.9869 0.0842
vn 0.1683 -0.9826 0.0790
vn 0.0549 -0.9958 0.0734
vn 0.2067 -0.9754 0.0773
vn 0.2086 -0.9746 0.0809
vn 0.2089 -0.9748 0.0783
vn 0.2154 -0.9762 -0.0257
vn 0.2149 -0.9764 -0.0210
vn 0.2089 -0.9779 0.0026
vn 0.0047 -0.9845 0.1752
vn -0.0724 -0.9824 0.1720
vn -0.0664 -0.9542 0.2917
vn 0.0016 -0.9896 0.1442
vn 0.0279 -0.2030 0.9788
vn -0.0747 -0.9945 0.0730
vn -0.1254 -0.9905 0.0566
vn -0.0670 -0.9958 0.0628
vn -0.0580 -0.9911 0.1200
vn -0.0362 -0.9938 -0.1050
vn -0.0432 -0.9967 -0.0682
vn -0.1255 -0.9903 -0.0598
vn -0.1154 -0.9929 -0.0296
vn -0.1155 -0.9929 -0.0297
vn -0.0717 -0.9945 0.0757
vn -0.2024 -0.9737 -0.1047
vn -0.2021 -0.9725 -0.1158
vn -0.1932 -0.9605 -0.2004
vn 0.0696 -0.9856 -0.1541
vn -0.0608 -0.9913 -0.1166
vn -0.0681 -0.9812 -0.1808
vn 0.0758 -0.9921 -0.0998
vn 0.0740 -0.9957 -0.0557
vn 0.0087 -1.0000 0.0039
vn 0.2120 -0.9767 -0.0342
vn 0.2119 -0.9767 -0.0342
vn 0.2076 -0.9707 -0.1210
vn 0.5621 -0.8258 0.0466
vn 0.5179 -0.8542 0.0448
vn 0.3824 -0.9239 -0.0120
vn 0.6099 -0.7877 0.0871
vn 0.6157 -0.7836 0.0830
vn 0.4484 -0.8896 0.0867
vn 0.9830 -0.1768 0.0499
vn 0.8578 -0.4908 0.1526
vn 0.8565 -0.5109 0.0737
vn 0.3257 -0.7840 0.5284
vn 0.3329 -0.9139 0.2322
vn 0.3357 -0.9174 0.2138
vn 0.3703 -0.8133 0.4488
vn 0.1581 -0.8680 0.4708
vn 0.1608 -0.9331 0.3217
vn 0.1191 -0.2517 0.9604
vn 0.2083 -0.6597 0.7221
vn 0.3147 -0.7524 0.5786
vn -0.0225 -0.9152 0.4023
vn 0.0049 -0.9472 0.3206
vn -0.0742 -0.9434 0.3234
vn 0.0239 -0.9166 0.3990
vn -0.2903 -0.9223 0.2550
vn -0.1148 -0.9680 0.2230
vn -0.7657 -0.3375 0.5475
vn -0.2795 -0.7906 0.5448
vn -0.3938 -0.7535 0.5265
vn -0.3281 -0.9222 -0.2049
vn -0.2070 -0.9711 -0.1186
vn -0.2012 -0.9772 -0.0674
vn -0.2206 -0.9380 -0.2674
vn -0.2371 -0.9344 -0.2658
vn -0.1323 -0.9828 -0.1285
vn -0.7120 -0.3462 -0.6109
vn -0.2767 -0.7913 -0.5452
vn -0.5286 -0.7701 -0.3572
vn 0.0027 -0.9560 -0.2934
vn 0.0090 -0.8401 -0.5423
vn -0.0658 -0.9682 -0.2415
vn 0.1396 -0.7807 -0.6092
vn 0.1972 -0.9131 -0.3568
vn 0.2004 -0.9417 -0.2704
vn 0.3671 -0.3165 -0.8747
vn 0.2101 -0.7741 -0.5972
vn 0.1432 -0.8168 -0.5588
vn 0.9711 -0.0256 0.2375
vn 0.9972 -0.0741 0.0096
vn 0.9916 -0.0690 0.1096
vn 0.8552 -0.0425 0.5166
vn 0.7432 -0.6272 0.2328
vn 0.7467 -0.6338 0.2018
vn 0.4820 -0.1538 0.8626
vn 0.5214 -0.1637 0.8375
vn 0.9030 -0.0484 0.4270
vn -0.0396 -0.1068 0.9935
vn 0.0215 -0.1236 0.9921
vn -0.0465 -0.1379 0.9893
vn -0.0562 -0.1190 0.9913
vn -0.0925 -0.6838 0.7238
vn -0.0984 -0.6822 0.7245
vn -0.0197 -0.3203 0.9471
vn -0.1708 -0.2557 0.9516
vn 0.0846 -0.2456 0.9657
vn -0.9996 -0.0254 -0.0129
vn -0.9514 -0.1399 0.2743
vn -0.9727 -0.1307 0.1919
vn -0.9994 -0.0270 -0.0217
vn -0.7705 -0.6374 -0.0020
vn -0.6847 -0.7217 0.1021
vn -0.9718 -0.1213 -0.2022
vn -0.9667 -0.1228 -0.2245
vn -0.9994 -0.0329 0.0101
vn -0.3180 -0.0798 -0.9447
vn -0.5164 -0.1533 -0.8425
vn -0.3284 -0.3589 -0.8737
vn -0.2348 -0.0801 -0.9687
vn -0.3317 -0.5965 -0.7309
vn -0.4806 -0.7022 -0.5252
vn -0.0363 -0.0358 -0.9987
vn 0.0270 -0.0271 -0.9993
vn 0.0190 -0.0231 -0.9996
vn 0.9223 -0.1208 -0.3672
vn 0.5363 -0.1138 -0.8363
vn 0.7887 -0.1673 -0.5916
vn 0.9751 -0.1376 -0.1742
vn 0.8197 -0.5670 -0.0815
vn 0.6829 -0.6055 -0.4088
vn 0.9852 -0.1698 0.0248
vn 0.9847 -0.1637 0.0597
vn 0.9897 -0.1315 -0.0566
vn 0.7568 0.6269 0.1850
vn 0.9603 0.2609 0.0990
vn 0.9825 0.1802 0.0471
vn 0.4726 0.8304 0.2951
vn 0.5216 0.8363 0.1688
vn 0.7501 0.5274 0.3989
vn 0.1543 0.9852 0.0750
vn 0.2510 0.9438 0.2150
vn 0.3119 0.9273 0.2068
vn 0.1388 0.6972 0.7033
vn 0.0236 0.2360 0.9715
vn 0.0728 0.1831 0.9804
vn -0.0001 0.7956 0.6059
vn -0.1630 0.7524 0.6383
vn -0.1945 0.4321 0.8806
vn -0.0942 0.9903 0.1017
vn -0.0699 0.9658 0.2497
vn 0.0256 0.9580 0.2856
vn -0.0039 0.8920 0.4520
vn -0.8202 0.4027 0.4063
vn -0.7774 0.3770 0.5035
vn -0.0141 0.9928 0.1192
vn -0.0849 0.9963 0.0120
vn -0.9352 0.3540 0.0050
vn -0.1257 0.9896 0.0702
vn -0.0647 0.9955 0.0696
vn -0.0693 0.9905 0.1187
vn -0.2507 0.9625 -0.1038
vn -0.4451 0.4077 -0.7973
vn -0.4503 0.4020 -0.7973
vn -0.2217 0.9690 -0.1090
vn -0.1688 0.9355 -0.3104
vn -0.1589 0.5701 -0.8061
vn -0.0825 0.9961 0.0327
vn -0.0561 0.9937 0.0974
vn -0.2024 0.9777 0.0556
vn 0.1914 0.7953 -0.5752
vn 0.5392 0.2239 -0.8119
vn 0.6041 0.3101 -0.7341
vn 0.2502 0.9666 -0.0552
vn 0.5715 0.8166 0.0807
vn 0.9489 0.2952 -0.1119
vn 0.1537 0.9839 0.0910
vn 0.2008 0.9771 0.0700
vn 0.1996 0.9791 0.0397
vn 0.7537 0.6257 0.2013
vn 0.9757 0.2173 0.0279
vn 0.9744 0.2162 0.0615
vn 0.1105 0.7807 -0.6151
vn -0.1874 0.3551 -0.9159
vn 0.0403 0.4122 -0.9102
vn -0.2949 0.8304 -0.4728
vn -0.8279 0.3994 -0.3939
vn -0.9453 0.3008 -0.1259
vn 0.0536 0.8731 0.4846
vn 0.0293 0.4768 0.8785
vn -0.0073 0.5005 0.8657
vn 0.3163 0.7662 0.5593
vn 0.3785 0.2714 0.8849
vn 0.5405 0.2822 0.7926
vn 0.5947 -0.8037 0.0201
vn 0.4867 -0.8596 -0.1557
vn 0.4867 -0.8500 -0.2016
vn -0.0777 -0.8593 -0.5055
vn -0.1930 -0.9171 -0.3487
vn -0.2235 -0.9094 -0.3508
vn -0.5522 -0.8254 -0.1173
vn -0.2053 -0.9787 -0.0017
vn -0.5541 -0.8247 0.1138
vn -0.0509 -0.9384 0.3417
vn -0.1178 -0.7831 0.6106
vn -0.1026 -0.7658 0.6348
vn 0.4642 -0.8274 0.3163
vn 0.4748 -0.8357 0.2758
vn 0.6005 -0.7619 0.2426
vn 0.2158 -0.9134 -0.3452
vn 0.2143 -0.9645 -0.1541
vn 0.2078 -0.9624 -0.1747
vn -0.2253 -0.9122 -0.3423
vn -0.2073 -0.9638 -0.1676
vn -0.2043 -0.9539 -0.2198
vn -0.3244 -0.9238 0.2036
vn -0.2069 -0.9710 0.1198
vn -0.1262 -0.9784 0.1636
vn -0.0104 -0.8693 0.4941
vn -0.0192 -0.9320 0.3620
vn 0.0688 -0.9528 0.2956
vn 0.5796 -0.7634 0.2850
vn 0.3905 -0.8805 0.2688
vn 0.3986 -0.9029 0.1607
vn 0.0970 -0.9953 -0.0027
vn 0.0095 -0.9974 0.0718
vn 0.0124 -0.9996 -0.0236
vn -0.0604 -0.9981 0.0114
vn -0.0224 -0.9973 0.0693
vn -0.0703 -0.9945 0.0782
vn -0.0720 -0.9947 0.0733
vn -0.0520 -0.9959 0.0739
vn -0.0539 -0.9962 0.0683
vn 0.2212 -0.9667 0.1290
vn 0.2256 -0.9700 0.0907
vn 0.1624 -0.9865 0.0218
vn -0.0229 -0.9952 0.0948
vn 0.0348 -0.9972 0.0656
vn 0.0714 -0.9944 0.0783
s 0
f 1//1 2//1 3//1
f 4//2 5//2 6//2
f 1//3 3//3 7//3
f 1//4 7//4 8//4
f 1//5 8//5 9//5
f 4//6 6//6 10//6
f 11//7 12//7 13//7
f 14//8 15//8 16//8
f 17//9 18//9 19//9
f 20//10 21//10 22//10
f 4//11 10//11 23//11
f 11//12 13//12 24//12
f 14//13 16//13 25//13
f 17//14 19//14 26//14
f 20//15 22//15 27//15
f 28//16 29//16 30//16
f 31//17 32//17 33//17
f 34//18 35//18 36//18
f 37//19 38//19 39//19
f 40//20 41//20 42//20
f 43//21 44//21 45//21
f 43//22 46//22 44//22
f 47//23 48//23 49//23
f 50//24 51//24 52//24
f 50//25 53//25 51//25
f 54//26 55//26 56//26
f 57//27 58//27 59//27
f 57//28 60//28 58//28
f 61//29 62//29 63//29
f 64//30 65//30 66//30
f 64//31 67//31 65//31
f 68//32 69//32 70//32
f 71//33 72//33 73//33
f 71//34 74//34 72//34
f 75//35 76//35 77//35
f 78//36 79//36 80//36
f 78//37 81//37 79//37
f 82//38 83//38 84//38
f 85//39 86//39 87//39
f 85//40 88//40 86//40
f 89//41 90//41 91//41
f 92//42 93//42 94//42
f 92//43 95//43 93//43
f 96//44 97//44 98//44
f 99//45 100//45 101//45
f 99//46 102//46 100//46
f 103//47 104//47 105//47
f 106//48 107//48 108//48
f 106//49 109//49 107//49
f 110//50 111//50 112//50
f 82//51 113//51 83//51
f 82//52 114//52 113//52
f 115//53 116//53 117//53
f 89//54 118//54 90//54
f 89//55 119//55 118//55
f 120//56 121//56 122//56
f 96//57 123//57 97//57
f 96//58 124//58 123//58
f 125//59 126//59 127//59
f 103//60 128//60 104//60
f 103//61 129//61 128//61
f 130//62 131//62 132//62
f 110//63 133//63 111//63
f 110//64 134//64 133//64
f 135//65 136//65 137//65
f 138//66 139//66 140//66
f 138//67 141//67 139//67
f 142//68 143//68 144//68
f 142//69 145//69 143//69
f 142//70 146//70 145//70
f 147//71 148//71 149//71
f 147//72 150//72 148//72
f 147//73 151//73 150//73
f 152//74 153//74 154//74
f 135//75 155//75 136//75
f 135//76 156//76 155//76
f 157//77 2//77 158//77
f 152//78 159//78 153//78
f 152//79 160//79 159//79
f 157//80 5//80 161//80
f 161//81 131//81 130//81
f 161//82 5//82 131//82
f 5//83 4//83 131//83
f 159//84 161//84 130//84
f 159//85 160//85 161//85
f 160//86 157//86 161//86
f 153//87 12//87 11//87
f 153//88 159//88 12//88
f 159//89 130//89 12//89
f 158//90 9//90 138//90
f 158//91 2//91 9//91
f 2//92 1//92 9//92
f 155//93 158//93 138//93
f 155//94 156//94 158//94
f 156//95 157//95 158//95
f 136//96 140//96 20//96
f 136//97 155//97 140//97
f 155//98 138//98 140//98
f 154//99 126//99 125//99
f 154//100 153//100 126//100
f 153//101 11//101 126//101
f 150//102 154//102 125//102
f 150//103 151//103 154//103
f 151//104 152//104 154//104
f 148//105 15//105 14//105
f 148//106 150//106 15//106
f 150//107 125//107 15//107
f 149//108 121//108 120//108
f 149//109 148//109 121//109
f 148//110 14//110 121//110
f 145//111 149//111 120//111
f 145//112 146//112 149//112
f 146//113 147//113 149//113
f 143//114 18//114 17//114
f 143//115 145//115 18//115
f 145//116 120//116 18//116
f 144//117 116//117 115//117
f 144//118 143//118 116//118
f 143//119 17//119 116//119
f 139//120 144//120 115//120
f 139//121 141//121 144//121
f 141//122 142//122 144//122
f 140//123 21//123 20//123
f 140//124 139//124 21//124
f 139//125 115//125 21//125
f 137//126 27//126 78//126
f 137//127 136//127 27//127
f 136//128 20//128 27//128
f 133//129 137//129 78//129
f 133//130 134//130 137//130
f 134//131 135//131 137//131
f 111//132 80//132 40//132
f 111//133 133//133 80//133
f 133//134 78//134 80//134
f 132//135 23//135 106//135
f 132//136 131//136 23//136
f 131//137 4//137 23//137
f 128//138 132//138 106//138
f 128//139 129//139 132//139
f 129//140 130//140 132//140
f 104//141 108//141 28//141
f 104//142 128//142 108//142
f 128//143 106//143 108//143
f 127//144 24//144 99//144
f 127//145 126//145 24//145
f 126//146 11//146 24//146
f 123//147 127//147 99//147
f 123//148 124//148 127//148
f 124//149 125//149 127//149
f 97//150 101//150 31//150
f 97//151 123//151 101//151
f 123//152 99//152 101//152
f 122//153 25//153 92//153
f 122//154 121//154 25//154
f 121//155 14//155 25//155
f 118//156 122//156 92//156
f 118//157 119//157 122//157
f 119//158 120//158 122//158
f 90//159 94//159 34//159
f 90//160 118//160 94//160
f 118//161 92//161 94//161
f 117//162 26//162 85//162
f 117//163 116//163 26//163
f 116//164 17//164 26//164
f 113//165 117//165 85//165
f 113//166 114//166 117//166
f 114//167 115//167 117//167
f 83//168 87//168 37//168
f 83//169 113//169 87//169
f 113//170 85//170 87//170
f 112//171 76//171 75//171
f 112//172 111//172 76//172
f 111//173 40//173 76//173
f 107//174 112//174 75//174
f 107//175 109//175 112//175
f 109//176 110//176 112//176
f 108//177 29//177 28//177
f 108//178 107//178 29//178
f 107//179 75//179 29//179
f 105//180 69//180 68//180
f 105//181 104//181 69//181
f 104//182 28//182 69//182
f 100//183 105//183 68//183
f 100//184 102//184 105//184
f 102//185 103//185 105//185
f 101//186 32//186 31//186
f 101//187 100//187 32//187
f 100//188 68//188 32//188
f 98//189 62//189 61//189
f 98//190 97//190 62//190
f 97//191 31//191 62//191
f 93//192 98//192 61//192
f 93//193 95//193 98//193
f 95//194 96//194 98//194
f 94//195 35//195 34//195
f 94//196 93//196 35//196
f 93//197 61//197 35//197
f 91//198 55//198 54//198
f 91//199 90//199 55//199
f 90//200 34//200 55//200
f 86//201 91//201 54//201
f 86//202 88//202 91//202
f 88//203 89//203 91//203
f 87//204 38//204 37//204
f 87//205 86//205 38//205
f 86//206 54//206 38//206
f 84//207 48//207 47//207
f 84//208 83//208 48//208
f 83//209 37//209 48//209
f 79//210 84//210 47//210
f 79//211 81//211 84//211
f 81//212 82//212 84//212
f 80//213 41//213 40//213
f 80//214 79//214 41//214
f 79//215 47//215 41//215
f 77//216 42//216 43//216
f 77//217 76//217 42//217
f 76//218 40//218 42//218
f 72//219 77//219 43//219
f 72//220 74//220 77//220
f 74//221 75//221 77//221
f 73//222 45//222 162//222
f 73//223 72//223 45//223
f 72//224 43//224 45//224
f 70//225 30//225 71//225
f 70//226 69//226 30//226
f 69//227 28//227 30//227
f 65//228 70//228 71//228
f 65//229 67//229 70//229
f 67//230 68//230 70//230
f 66//231 73//231 162//231
f 66//232 65//232 73//232
f 65//233 71//233 73//233
f 63//234 33//234 64//234
f 63//235 62//235 33//235
f 62//236 31//236 33//236
f 58//237 63//237 64//237
f 58//238 60//238 63//238
f 60//239 61//239 63//239
f 59//240 66//240 162//240
f 59//241 58//241 66//241
f 58//242 64//242 66//242
f 56//243 36//243 57//243
f 56//244 55//244 36//244
f 55//245 34//245 36//245
f 51//246 56//246 57//246
f 51//247 53//247 56//247
f 53//248 54//248 56//248
f 52//249 59//249 162//249
f 52//250 51//250 59//250
f 51//251 57//251 59//251
f 49//252 39//252 50//252
f 49//253 48//253 39//253
f 48//254 37//254 39//254
f 44//255 49//255 50//255
f 44//256 46//256 49//256
f 46//257 47//257 49//257
f 45//258 52//258 162//258
f 45//259 44//259 52//259
f 44//260 50//260 52//260
f 42//261 46//261 43//261
f 42//262 41//262 46//262
f 41//263 47//263 46//263
f 39//264 53//264 50//264
f 39//265 38//265 53//265
f 38//266 54//266 53//266
f 36//267 60//267 57//267
f 36//268 35//268 60//268
f 35//269 61//269 60//269
f 33//270 67//270 64//270
f 33//271 32//271 67//271
f 32//272 68//272 67//272
f 30//273 74//273 71//273
f 30//274 29//274 74//274
f 29//275 75//275 74//275
f 27//276 81//276 78//276
f 27//277 22//277 81//277
f 22//278 82//278 81//278
f 26//279 88//279 85//279
f 26//280 19//280 88//280
f 19//281 89//281 88//281
f 25//282 95//282 92//282
f 25//283 16//283 95//283
f 16//284 96//284 95//284
f 24//285 102//285 99//285
f 24//286 13//286 102//286
f 13//287 103//287 102//287
f 23//288 109//288 106//288
f 23//289 10//289 109//289
f 10//290 110//290 109//290
f 22//291 114//291 82//291
f 22//292 21//292 114//292
f 21//293 115//293 114//293
f 19//294 119//294 89//294
f 19//295 18//295 119//295
f 18//296 120//296 119//296
f 16//297 124//297 96//297
f 16//298 15//298 124//298
f 15//299 125//299 124//299
f 13//300 129//300 103//300
f 13//301 12//301 129//301
f 12//302 130//302 129//302
f 10//303 134//303 110//303
f 10//304 6//304 134//304
f 6//305 135//305 134//305
f 9//306 141//306 138//306
f 9//307 8//307 141//307
f 8//308 142//308 141//308
f 8//309 146//309 142//309
f 8//310 7//310 146//310
f 7//311 147//311 146//311
f 7//312 151//312 147//312
f 7//313 3//313 151//313
f 3//314 152//314 151//314
f 6//315 156//315 135//315
f 6//316 5//316 156//316
f 5//317 157//317 156//317
f 3//318 160//318 152//318
f 3//319 2//319 160//319
f 2//320 157//320 160//320
