# Blender 3.5.0
# www.blender.org
mtllib front_left_upper_leg_collision.mtl
o front_left_upper_leg_collision
v 0.020992 -0.353891 0.015664
v 0.025388 -0.354052 0.019175
v 0.013079 -0.351686 0.025159
v 0.054478 -0.305885 0.031340
v 0.054751 -0.333724 0.031362
v 0.057451 -0.311029 0.026867
v 0.009726 -0.350512 0.015561
v 0.014909 -0.352476 -0.032022
v 0.028838 -0.353884 -0.020785
v 0.040070 -0.228795 0.023738
v -0.019812 -0.283256 0.038178
v 0.003234 -0.296009 0.044350
v -0.010598 -0.212105 0.040612
v -0.046766 -0.256603 -0.002333
v -0.046750 -0.254197 0.006389
v -0.051143 -0.207897 0.009399
v -0.019797 -0.281341 -0.054635
v -0.029118 -0.287059 -0.045285
v -0.030746 -0.209971 -0.052266
v 0.055563 -0.307768 -0.045980
v 0.051892 -0.306948 -0.051333
v 0.039664 -0.209724 -0.048470
v 0.037354 -0.226291 0.028433
v -0.026728 -0.212959 0.035589
v -0.049754 -0.207870 -0.004960
v -0.012386 -0.211415 -0.060021
v 0.040593 -0.208450 -0.044766
v 0.034039 -0.002889 0.082141
v 0.040134 0.003617 0.072987
v 0.019750 0.035117 0.073196
v -0.052057 -0.002450 0.030711
v -0.040259 0.003722 0.072606
v -0.057486 0.046363 0.020430
v -0.048955 -0.005201 -0.044715
v -0.055456 -0.000880 -0.016661
v -0.058012 0.046291 -0.024525
v 0.028855 -0.005642 -0.061640
v 0.001795 0.005819 -0.065849
v 0.025110 0.050180 -0.055801
v 0.060271 -0.004045 -0.000189
v 0.060260 0.008577 -0.028367
v 0.059265 0.033362 -0.000125
v 0.045110 0.071623 0.001222
v 0.033695 0.075127 -0.016575
v 0.024494 0.080306 0.005073
v 0.049437 0.060780 -0.021706
v 0.058889 0.020242 -0.038996
v 0.050597 0.008189 -0.047902
v 0.045976 0.054323 -0.038004
v 0.016676 0.074336 -0.035835
v -0.011607 0.077794 -0.029819
v 0.008410 0.081047 -0.018010
v -0.005937 0.059012 -0.055403
v -0.028462 0.017415 -0.059782
v -0.046430 0.006471 -0.048853
v -0.038509 0.055487 -0.044422
v -0.037807 0.072067 -0.019749
v -0.041958 0.073394 0.003568
v -0.018207 0.080594 -0.011386
v -0.059026 0.048166 -0.017711
v -0.060566 0.038794 0.000252
v -0.054406 0.012048 0.020180
v -0.058883 0.048381 0.014850
v -0.035402 0.076040 0.015598
v -0.012216 0.081841 0.020513
v -0.018689 0.082271 0.015057
v -0.033453 0.061528 0.029521
v -0.032022 0.015526 0.080960
v 0.001123 0.008144 0.083720
v -0.005429 0.039996 0.072458
v 0.016410 0.080039 0.021741
v 0.032136 0.078048 0.015593
v 0.008758 0.083706 0.016919
v 0.040410 0.060243 0.027527
v 0.059127 0.020444 0.032520
v 0.060211 0.008205 0.028075
v 0.057472 0.035763 0.022933
v 0.044604 -0.137754 -0.043677
v 0.059384 -0.040022 -0.036353
v 0.058512 -0.050848 -0.006908
v 0.044310 -0.139259 -0.047379
v 0.042088 -0.140620 -0.051753
v 0.039484 -0.071997 -0.056869
v 0.048150 -0.058957 -0.049148
v 0.000712 -0.141385 -0.064458
v -0.013300 -0.060134 -0.066826
v 0.014555 -0.072166 -0.066233
v -0.027157 -0.141343 -0.059016
v -0.040151 -0.139087 -0.049083
v -0.046983 -0.069751 -0.046809
v -0.039004 -0.059765 -0.057041
v -0.052188 -0.137739 -0.016041
v -0.058256 -0.049489 -0.009595
v -0.049271 -0.073235 -0.040327
v -0.055275 -0.138418 0.007693
v -0.054980 -0.138545 0.011022
v -0.054289 -0.051035 0.019436
v -0.058252 -0.049478 0.005328
v -0.028949 -0.142975 0.034563
v -0.029446 -0.026933 0.074911
v -0.046740 -0.051373 0.032758
v -0.020321 -0.142699 0.039378
v -0.000546 -0.141905 0.043352
v 0.009906 -0.036459 0.078830
v -0.011715 -0.034796 0.079910
v 0.029764 -0.143317 0.034875
v 0.056849 -0.038319 0.032914
v 0.026767 -0.029428 0.074897
v 0.036661 -0.141075 0.024100
v 0.041821 -0.138089 0.009453
v 0.057988 -0.051049 0.006337
v 0.059373 -0.037874 0.028742
v 0.027513 -0.141798 -0.060028
v 0.035596 -0.223696 -0.052705
v 0.036393 -0.310694 -0.058506
v 0.000584 -0.295509 -0.058645
v 0.017596 -0.224548 -0.059635
v -0.047069 -0.138332 -0.035345
v -0.038175 -0.220922 -0.041321
v -0.033648 -0.282529 -0.038139
v -0.041994 -0.266520 -0.021209
v -0.045312 -0.220230 -0.022630
v -0.053253 -0.140181 0.014454
v -0.049458 -0.221032 0.012779
v -0.029491 -0.286135 0.030139
v -0.027709 -0.284943 0.033633
v -0.046847 -0.222781 0.016291
v 0.021029 -0.142856 0.039422
v 0.011407 -0.224459 0.040461
v 0.036654 -0.310640 0.044938
v 0.051201 -0.306887 0.035400
v 0.030773 -0.224105 0.035189
v 0.043057 -0.137876 -0.002741
v 0.040493 -0.229964 0.020078
v 0.058710 -0.316106 0.015191
v 0.057705 -0.311126 -0.027834
v 0.040498 -0.229562 -0.020611
v 0.039484 -0.350793 -0.033125
v 0.043743 -0.344138 -0.050650
v 0.056426 -0.332094 -0.043435
v 0.021982 -0.353506 -0.043310
v 0.008463 -0.348902 -0.045046
v -0.005114 -0.329715 -0.050225
v 0.014411 -0.345807 -0.053265
v -0.009877 -0.326248 -0.044415
v 0.001567 -0.344737 -0.024986
v 0.000455 -0.343720 0.015663
v -0.031607 -0.289774 0.001095
v -0.017734 -0.314088 -0.026454
v -0.017558 -0.314284 0.025140
v 0.002462 -0.345401 0.025013
v 0.010664 -0.349862 0.030754
v -0.004379 -0.329284 0.034806
v -0.009806 -0.325863 0.030764
v 0.056030 -0.334341 -0.020462
v 0.055491 -0.334749 0.017178
v 0.038897 -0.350669 0.028209
v 0.038867 -0.350637 0.014878
v 0.018159 -0.338500 0.043102
v 0.024685 -0.353359 0.030094
v 0.043527 -0.342551 0.035646
v 0.000640 0.083713 0.005965
vn -0.1312 -0.9842 0.1192
vn 0.8373 0.0086 0.5466
vn -0.2871 -0.9578 -0.0169
vn -0.2873 -0.9578 0.0082
vn -0.0857 -0.9961 -0.0186
vn 0.9074 0.2057 0.3665
vn -0.2585 0.0004 0.9660
vn -0.9950 -0.0962 0.0283
vn -0.6809 -0.0803 -0.7280
vn 0.8272 0.1202 -0.5489
vn 0.8907 0.2064 0.4050
vn -0.2976 0.0059 0.9547
vn -0.9932 -0.0661 -0.0962
vn -0.3909 -0.0294 -0.9200
vn 0.9465 0.1462 -0.2876
vn 0.6126 0.3919 0.6864
vn -0.9596 -0.0483 0.2773
vn -0.9733 -0.0881 -0.2120
vn 0.2001 0.1152 -0.9730
vn 0.9996 0.0269 0.0116
vn 0.3778 0.9239 -0.0604
vn 0.6093 0.7551 -0.2421
vn 0.5393 0.2280 -0.8107
vn 0.0441 0.9415 -0.3340
vn -0.0286 0.8027 -0.5956
vn -0.5844 0.1662 -0.7943
vn -0.3543 0.9279 -0.1159
vn -0.7441 0.6462 -0.1692
vn -0.9799 -0.0950 0.1754
vn -0.3037 0.8515 0.4274
vn -0.3091 0.6365 0.7067
vn -0.0045 0.3325 0.9431
vn 0.2400 0.9176 0.3168
vn 0.3510 0.6284 0.6942
vn 0.9953 0.0952 -0.0196
vn 0.9887 -0.1477 -0.0250
vn 0.9888 -0.1482 -0.0184
vn 0.6881 -0.0279 -0.7251
vn 0.0094 -0.0275 -0.9996
vn -0.1914 -0.0615 -0.9796
vn -0.7613 -0.0538 -0.6462
vn -0.9682 -0.0486 -0.2455
vn -0.9897 -0.0585 -0.1304
vn -0.9631 -0.0182 0.2685
vn -0.8767 -0.1613 0.4532
vn -0.4587 -0.2936 0.8387
vn 0.0226 -0.3208 0.9469
vn 0.7787 -0.1897 0.5981
vn 0.8429 -0.2082 0.4962
vn 0.9825 -0.1809 0.0456
vn 0.4960 -0.0458 -0.8671
vn 0.4953 -0.0288 -0.8683
vn -0.0019 -0.0135 -0.9999
vn -0.8924 -0.0733 -0.4453
vn -0.8928 -0.0639 -0.4460
vn -0.9214 -0.0777 -0.3807
vn -0.8993 -0.0348 0.4360
vn -0.9017 -0.0512 0.4294
vn -0.8645 -0.1308 0.4853
vn 0.1552 -0.3288 0.9316
vn 0.1789 -0.0086 0.9838
vn 0.5199 0.1304 0.8442
vn 0.9792 -0.1784 0.0962
vn 0.9949 -0.0027 0.1008
vn 0.9785 0.2063 0.0010
vn 0.7125 -0.6957 -0.0910
vn 0.3009 -0.9135 -0.2738
vn -0.5568 -0.5597 -0.6137
vn -0.7544 -0.6035 -0.2583
vn -0.7718 -0.6211 -0.1364
vn -0.8613 -0.5079 0.0146
vn -0.8563 -0.5158 -0.0255
vn -0.8379 -0.5395 0.0830
vn -0.6879 -0.5870 0.4269
vn 0.9961 -0.0823 -0.0328
vn 0.9856 -0.1689 0.0123
vn 0.2447 -0.9696 -0.0029
vn -0.4703 -0.4885 0.7350
vn -0.1374 -0.6859 0.7146
vn 0.6582 -0.6770 0.3293
vn 0.5654 -0.1160 0.8166
vn 0.4112 -0.0822 0.9078
vn 0.7771 0.0081 0.6293
vn 0.2420 -0.2229 0.9443
vn 0.1282 -0.6208 0.7734
vn 0.2236 -0.7246 0.6519
vn -0.3481 -0.1840 0.9192
vn -0.4000 -0.1670 0.9012
vn -0.0359 -0.0419 0.9985
vn 0.2861 -0.9582 0.0068
vn 0.2508 -0.9679 0.0176
vn -0.0311 -0.9995 -0.0069
vn 0.7007 -0.7134 0.0113
vn 0.6908 -0.7231 0.0021
vn 0.6912 -0.7227 -0.0033
vn 0.9933 0.0234 -0.1129
vn 0.9976 -0.0686 0.0105
vn 0.7248 -0.6868 -0.0547
vn -0.7690 -0.3729 0.5192
vn -0.6910 -0.3468 0.6343
vn -0.4522 -0.2150 0.8656
vn -0.8522 -0.4173 0.3155
vn -0.8400 -0.5407 0.0448
vn -0.6574 -0.5609 0.5032
vn -0.9081 -0.4033 0.1129
vn -0.9072 -0.4038 0.1184
vn -0.9071 -0.4049 0.1147
vn -0.8913 -0.4534 -0.0107
vn -0.8919 -0.4491 -0.0528
vn -0.9090 -0.4166 -0.0109
vn -0.8806 -0.4691 -0.0676
vn -0.8459 -0.5332 -0.0091
vn -0.8459 -0.5332 -0.0098
vn -0.6038 -0.2522 -0.7562
vn -0.8104 -0.4072 -0.4213
vn -0.8609 -0.4288 -0.2740
vn -0.0466 -0.1189 -0.9918
vn -0.2957 -0.1816 -0.9379
vn -0.3081 -0.1787 -0.9344
vn 0.0986 -0.2070 -0.9734
vn 0.1010 -0.7484 -0.6556
vn -0.2262 -0.8462 -0.4824
vn 0.8222 -0.0303 -0.5685
vn 0.5889 -0.1436 -0.7954
vn 0.4396 -0.1127 -0.8911
vn 0.9974 -0.0559 -0.0450
vn 0.9673 0.1891 0.1691
vn 0.9848 0.1495 -0.0886
vn 0.9987 -0.0352 0.0376
vn 0.9996 -0.0279 -0.0001
vn 0.9784 0.2068 0.0022
vn 0.9983 -0.0431 0.0388
vn 0.9842 -0.1730 0.0363
vn 0.9842 -0.1730 0.0367
vn 0.7181 0.0117 0.6958
vn 0.7331 0.1826 0.6551
vn 0.7424 0.1833 0.6444
vn 0.4621 0.0092 0.8868
vn 0.2630 -0.0187 0.9646
vn 0.2585 0.1255 0.9578
vn 0.3439 -0.3338 0.8777
vn 0.3326 -0.2968 0.8952
vn 0.4299 -0.2892 0.8553
vn -0.6893 -0.0112 0.7244
vn -0.6896 -0.0103 0.7241
vn -0.4960 -0.0168 0.8682
vn -0.6393 -0.0325 0.7682
vn -0.8133 -0.0502 0.5797
vn -0.8221 -0.1028 0.5600
vn -0.8684 -0.0739 0.4902
vn -0.8698 -0.0376 0.4919
vn -0.6411 -0.1095 0.7596
vn -0.9776 -0.0655 -0.1999
vn -0.9783 -0.0760 -0.1927
vn -0.9753 -0.0711 -0.2092
vn -0.9653 -0.0602 -0.2541
vn -0.9325 -0.0748 -0.3533
vn -0.9318 -0.0867 -0.3526
vn -0.9398 -0.0176 -0.3412
vn -0.9310 -0.0591 -0.3603
vn -0.9657 -0.0521 -0.2545
vn -0.0137 -0.0607 -0.9981
vn 0.0061 -0.0154 -0.9999
vn -0.2267 -0.0509 -0.9726
vn 0.1627 -0.0242 -0.9864
vn 0.3608 -0.0477 -0.9314
vn 0.3558 0.0654 -0.9323
vn 0.3517 -0.0110 -0.9360
vn 0.3517 -0.0180 -0.9359
vn 0.1619 -0.0577 -0.9851
vn 0.9622 -0.0136 0.2719
vn 0.9985 -0.0189 -0.0506
vn 0.9987 -0.0455 0.0219
vn 0.8566 -0.0298 0.5152
vn 0.8464 -0.2083 0.4900
vn 0.9335 -0.2182 0.2844
vn 0.8766 -0.3346 0.3459
vn 0.7545 -0.2706 0.5979
vn 0.9099 -0.0325 0.4135
vn -0.0960 -0.0595 0.9936
vn 0.0419 -0.1007 0.9940
vn 0.0120 -0.1067 0.9942
vn -0.3303 -0.1527 0.9314
vn -0.3793 -0.2987 0.8757
vn -0.1728 -0.3342 0.9265
vn -0.9549 -0.0920 0.2825
vn -0.8327 -0.2568 0.4905
vn -0.5909 -0.1488 0.7929
vn -0.9586 -0.0088 0.2845
vn -0.9629 -0.0050 0.2699
vn -0.9773 -0.0043 0.2120
vn -0.9997 -0.0262 0.0003
vn -0.9994 -0.0334 0.0003
vn -0.9957 -0.0310 0.0869
vn -0.9745 -0.0099 -0.2243
vn -0.9570 0.0130 -0.2898
vn -0.9507 0.0097 -0.3100
vn -0.5385 0.0437 -0.8415
vn -0.7833 -0.0110 -0.6216
vn -0.8430 -0.0083 -0.5378
vn -0.3555 0.0154 -0.9345
vn -0.3560 -0.0291 -0.9340
vn -0.6134 -0.0700 -0.7866
vn 0.1669 0.0322 -0.9854
vn 0.0252 0.0090 -0.9996
vn -0.1761 0.0549 -0.9829
vn 0.7416 -0.0146 -0.6707
vn 0.6743 -0.0109 -0.7384
vn 0.5237 0.0227 -0.8516
vn 0.7671 -0.0218 -0.6412
vn 0.7868 -0.0512 -0.6151
vn 0.8969 -0.0526 -0.4392
vn 0.9992 -0.0352 -0.0162
vn 0.9995 -0.0216 0.0217
vn 0.9922 0.0027 -0.1250
vn 0.9377 0.3456 0.0369
vn 0.9917 0.1108 0.0656
vn 0.9996 0.0269 -0.0095
vn 0.7374 0.5172 0.4345
vn 0.8190 0.5292 0.2218
vn 0.7374 0.4138 0.5339
vn 0.1370 0.9854 -0.1009
vn 0.2370 0.9708 0.0362
vn 0.3752 0.9239 -0.0743
vn 0.1266 0.7513 0.6477
vn 0.0383 0.3401 0.9396
vn 0.1381 0.2758 0.9513
vn 0.0223 0.7800 0.6254
vn -0.4004 0.6873 0.6060
vn -0.4213 0.6702 0.6110
vn -0.0550 0.9976 0.0414
vn -0.0618 0.9866 0.1511
vn 0.0265 0.8156 0.5780
vn -0.7071 0.5897 0.3902
vn -0.9733 -0.0889 0.2116
vn -0.9912 -0.0897 0.0976
vn -0.7384 0.6196 0.2661
vn -0.8282 0.5604 -0.0000
vn -0.9858 0.1681 0.0032
vn -0.1046 0.9924 -0.0648
vn -0.3272 0.9427 -0.0657
vn -0.3497 0.9367 -0.0154
vn -0.6877 0.6115 -0.3914
vn -0.7427 0.1784 -0.6455
vn -0.8850 0.0266 -0.4649
vn -0.3665 0.7770 -0.5117
vn -0.2850 0.7414 -0.6075
vn -0.3337 0.2756 -0.9015
vn -0.0481 0.9909 -0.1258
vn -0.0592 0.9836 -0.1706
vn -0.2964 0.9228 -0.2463
vn 0.4057 0.6623 -0.6299
vn 0.6062 0.2244 -0.7630
vn 0.4730 0.1230 -0.8724
vn 0.4793 0.7509 -0.4543
vn 0.5394 0.7373 -0.4067
vn 0.8817 0.3435 -0.3233
vn 0.1387 0.9882 -0.0649
vn 0.2330 0.9635 -0.1315
vn 0.2342 0.9407 -0.2455
vn 0.9379 0.3465 0.0131
vn 0.9625 0.2198 -0.1590
vn 0.9778 0.1919 0.0845
vn 0.1794 0.6632 -0.7266
vn 0.0440 0.1987 -0.9791
vn -0.1295 0.1729 -0.9764
vn -0.7296 0.6238 -0.2803
vn -0.9891 -0.0747 -0.1267
vn -0.9895 -0.0747 -0.1238
vn -0.5708 0.5272 0.6295
vn -0.5720 0.5324 0.6240
vn -0.8665 0.3599 0.3459
vn 0.4325 0.6929 0.5769
vn 0.6966 0.4471 0.5611
vn 0.7446 0.4157 0.5223
vn 0.9968 -0.0557 -0.0566
vn 0.9729 -0.0607 -0.2231
vn 0.8968 -0.0523 -0.4393
vn -0.1916 -0.0263 -0.9811
vn -0.3928 -0.0696 -0.9170
vn -0.6117 -0.0457 -0.7898
vn -0.9899 -0.0549 -0.1303
vn -0.9935 -0.0614 -0.0962
vn -0.9947 -0.0570 0.0858
vn -0.4873 -0.0027 0.8732
vn -0.2960 -0.0245 0.9549
vn -0.1966 -0.0101 0.9804
vn 0.8385 0.0345 0.5439
vn 0.8725 0.0319 0.4876
vn 0.9403 0.0351 0.3384
vn 0.8063 -0.0563 -0.5888
vn 0.5464 0.0932 -0.8323
vn 0.4063 0.0645 -0.9115
vn -0.7875 -0.0770 -0.6115
vn -0.7904 -0.0718 -0.6083
vn -0.8658 -0.0890 -0.4924
vn -0.9661 -0.0593 0.2511
vn -0.9896 -0.1006 0.1026
vn -0.8870 -0.1562 0.4346
vn -0.0139 -0.0370 0.9992
vn 0.0350 0.0503 0.9981
vn 0.0059 0.0536 0.9985
vn 0.9933 -0.0010 0.1152
vn 0.9770 0.2083 0.0465
vn 0.9784 0.2060 0.0159
vn 0.1958 -0.9777 -0.0760
vn -0.1152 -0.9932 0.0184
vn -0.3082 -0.9453 -0.1069
vn -0.4983 -0.8670 0.0087
vn -0.5095 -0.8602 -0.0200
vn -0.5909 -0.8067 0.0040
vn -0.5910 -0.8065 -0.0181
vn -0.5089 -0.8578 0.0728
vn -0.5091 -0.8586 0.0602
vn 0.9739 -0.1500 0.1703
vn 0.9926 -0.1063 0.0595
vn 0.7193 -0.6892 0.0874
vn -0.2271 -0.9505 0.2119
vn -0.1641 -0.9851 0.0519
vn 0.1950 -0.9780 0.0746
s 0
f 1//1 2//1 3//1
f 4//2 5//2 6//2
f 1//3 3//3 7//3
f 1//4 7//4 8//4
f 1//5 8//5 9//5
f 4//6 6//6 10//6
f 11//7 12//7 13//7
f 14//8 15//8 16//8
f 17//9 18//9 19//9
f 20//10 21//10 22//10
f 4//11 10//11 23//11
f 11//12 13//12 24//12
f 14//13 16//13 25//13
f 17//14 19//14 26//14
f 20//15 22//15 27//15
f 28//16 29//16 30//16
f 31//17 32//17 33//17
f 34//18 35//18 36//18
f 37//19 38//19 39//19
f 40//20 41//20 42//20
f 43//21 44//21 45//21
f 43//22 46//22 44//22
f 47//23 48//23 49//23
f 50//24 51//24 52//24
f 50//25 53//25 51//25
f 54//26 55//26 56//26
f 57//27 58//27 59//27
f 57//28 60//28 58//28
f 61//29 62//29 63//29
f 64//30 65//30 66//30
f 64//31 67//31 65//31
f 68//32 69//32 70//32
f 71//33 72//33 73//33
f 71//34 74//34 72//34
f 75//35 76//35 77//35
f 78//36 79//36 80//36
f 78//37 81//37 79//37
f 82//38 83//38 84//38
f 85//39 86//39 87//39
f 85//40 88//40 86//40
f 89//41 90//41 91//41
f 92//42 93//42 94//42
f 92//43 95//43 93//43
f 96//44 97//44 98//44
f 99//45 100//45 101//45
f 99//46 102//46 100//46
f 103//47 104//47 105//47
f 106//48 107//48 108//48
f 106//49 109//49 107//49
f 110//50 111//50 112//50
f 82//51 113//51 83//51
f 82//52 114//52 113//52
f 115//53 116//53 117//53
f 89//54 118//54 90//54
f 89//55 119//55 118//55
f 120//56 121//56 122//56
f 96//57 123//57 97//57
f 96//58 124//58 123//58
f 125//59 126//59 127//59
f 103//60 128//60 104//60
f 103//61 129//61 128//61
f 130//62 131//62 132//62
f 110//63 133//63 111//63
f 110//64 134//64 133//64
f 135//65 136//65 137//65
f 138//66 139//66 140//66
f 138//67 141//67 139//67
f 142//68 143//68 144//68
f 142//69 145//69 143//69
f 142//70 146//70 145//70
f 147//71 148//71 149//71
f 147//72 150//72 148//72
f 147//73 151//73 150//73
f 152//74 153//74 154//74
f 135//75 155//75 136//75
f 135//76 156//76 155//76
f 157//77 2//77 158//77
f 152//78 159//78 153//78
f 152//79 160//79 159//79
f 157//80 5//80 161//80
f 161//81 131//81 130//81
f 161//82 5//82 131//82
f 5//83 4//83 131//83
f 159//84 161//84 130//84
f 159//85 160//85 161//85
f 160//86 157//86 161//86
f 153//87 12//87 11//87
f 153//88 159//88 12//88
f 159//89 130//89 12//89
f 158//90 9//90 138//90
f 158//91 2//91 9//91
f 2//92 1//92 9//92
f 155//93 158//93 138//93
f 155//94 156//94 158//94
f 156//95 157//95 158//95
f 136//96 140//96 20//96
f 136//97 155//97 140//97
f 155//98 138//98 140//98
f 154//99 126//99 125//99
f 154//100 153//100 126//100
f 153//101 11//101 126//101
f 150//102 154//102 125//102
f 150//103 151//103 154//103
f 151//104 152//104 154//104
f 148//105 15//105 14//105
f 148//106 150//106 15//106
f 150//107 125//107 15//107
f 149//108 121//108 120//108
f 149//109 148//109 121//109
f 148//110 14//110 121//110
f 145//111 149//111 120//111
f 145//112 146//112 149//112
f 146//113 147//113 149//113
f 143//114 18//114 17//114
f 143//115 145//115 18//115
f 145//116 120//116 18//116
f 144//117 116//117 115//117
f 144//118 143//118 116//118
f 143//119 17//119 116//119
f 139//120 144//120 115//120
f 139//121 141//121 144//121
f 141//122 142//122 144//122
f 140//123 21//123 20//123
f 140//124 139//124 21//124
f 139//125 115//125 21//125
f 137//126 27//126 78//126
f 137//127 136//127 27//127
f 136//128 20//128 27//128
f 133//129 137//129 78//129
f 133//130 134//130 137//130
f 134//131 135//131 137//131
f 111//132 80//132 40//132
f 111//133 133//133 80//133
f 133//134 78//134 80//134
f 132//135 23//135 106//135
f 132//136 131//136 23//136
f 131//137 4//137 23//137
f 128//138 132//138 106//138
f 128//139 129//139 132//139
f 129//140 130//140 132//140
f 104//141 108//141 28//141
f 104//142 128//142 108//142
f 128//143 106//143 108//143
f 127//144 24//144 99//144
f 127//145 126//145 24//145
f 126//146 11//146 24//146
f 123//147 127//147 99//147
f 123//148 124//148 127//148
f 124//149 125//149 127//149
f 97//150 101//150 31//150
f 97//151 123//151 101//151
f 123//152 99//152 101//152
f 122//153 25//153 92//153
f 122//154 121//154 25//154
f 121//155 14//155 25//155
f 118//156 122//156 92//156
f 118//157 119//157 122//157
f 119//158 120//158 122//158
f 90//159 94//159 34//159
f 90//160 118//160 94//160
f 118//161 92//161 94//161
f 117//162 26//162 85//162
f 117//163 116//163 26//163
f 116//164 17//164 26//164
f 113//165 117//165 85//165
f 113//166 114//166 117//166
f 114//167 115//167 117//167
f 83//168 87//168 37//168
f 83//169 113//169 87//169
f 113//170 85//170 87//170
f 112//171 76//171 75//171
f 112//172 111//172 76//172
f 111//173 40//173 76//173
f 107//174 112//174 75//174
f 107//175 109//175 112//175
f 109//176 110//176 112//176
f 108//177 29//177 28//177
f 108//178 107//178 29//178
f 107//179 75//179 29//179
f 105//180 69//180 68//180
f 105//181 104//181 69//181
f 104//182 28//182 69//182
f 100//183 105//183 68//183
f 100//184 102//184 105//184
f 102//185 103//185 105//185
f 101//186 32//186 31//186
f 101//187 100//187 32//187
f 100//188 68//188 32//188
f 98//189 62//189 61//189
f 98//190 97//190 62//190
f 97//191 31//191 62//191
f 93//192 98//192 61//192
f 93//193 95//193 98//193
f 95//194 96//194 98//194
f 94//195 35//195 34//195
f 94//196 93//196 35//196
f 93//197 61//197 35//197
f 91//198 55//198 54//198
f 91//199 90//199 55//199
f 90//200 34//200 55//200
f 86//201 91//201 54//201
f 86//202 88//202 91//202
f 88//203 89//203 91//203
f 87//204 38//204 37//204
f 87//205 86//205 38//205
f 86//206 54//206 38//206
f 84//207 48//207 47//207
f 84//208 83//208 48//208
f 83//209 37//209 48//209
f 79//210 84//210 47//210
f 79//211 81//211 84//211
f 81//212 82//212 84//212
f 80//213 41//213 40//213
f 80//214 79//214 41//214
f 79//215 47//215 41//215
f 77//216 42//216 43//216
f 77//217 76//217 42//217
f 76//218 40//218 42//218
f 72//219 77//219 43//219
f 72//220 74//220 77//220
f 74//221 75//221 77//221
f 73//222 45//222 162//222
f 73//223 72//223 45//223
f 72//224 43//224 45//224
f 70//225 30//225 71//225
f 70//226 69//226 30//226
f 69//227 28//227 30//227
f 65//228 70//228 71//228
f 65//229 67//229 70//229
f 67//230 68//230 70//230
f 66//231 73//231 162//231
f 66//232 65//232 73//232
f 65//233 71//233 73//233
f 63//234 33//234 64//234
f 63//235 62//235 33//235
f 62//236 31//236 33//236
f 58//237 63//237 64//237
f 58//238 60//238 63//238
f 60//239 61//239 63//239
f 59//240 66//240 162//240
f 59//241 58//241 66//241
f 58//242 64//242 66//242
f 56//243 36//243 57//243
f 56//244 55//244 36//244
f 55//245 34//245 36//245
f 51//246 56//246 57//246
f 51//247 53//247 56//247
f 53//248 54//248 56//248
f 52//249 59//249 162//249
f 52//250 51//250 59//250
f 51//251 57//251 59//251
f 49//252 39//252 50//252
f 49//253 48//253 39//253
f 48//254 37//254 39//254
f 44//255 49//255 50//255
f 44//256 46//256 49//256
f 46//257 47//257 49//257
f 45//258 52//258 162//258
f 45//259 44//259 52//259
f 44//260 50//260 52//260
f 42//261 46//261 43//261
f 42//262 41//262 46//262
f 41//263 47//263 46//263
f 39//264 53//264 50//264
f 39//265 38//265 53//265
f 38//266 54//266 53//266
f 36//267 60//267 57//267
f 36//268 35//268 60//268
f 35//269 61//269 60//269
f 33//270 67//270 64//270
f 33//271 32//271 67//271
f 32//272 68//272 67//272
f 30//273 74//273 71//273
f 30//274 29//274 74//274
f 29//275 75//275 74//275
f 27//276 81//276 78//276
f 27//277 22//277 81//277
f 22//278 82//278 81//278
f 26//279 88//279 85//279
f 26//280 19//280 88//280
f 19//281 89//281 88//281
f 25//282 95//282 92//282
f 25//283 16//283 95//283
f 16//284 96//284 95//284
f 24//285 102//285 99//285
f 24//286 13//286 102//286
f 13//287 103//287 102//287
f 23//288 109//288 106//288
f 23//289 10//289 109//289
f 10//290 110//290 109//290
f 22//291 114//291 82//291
f 22//292 21//292 114//292
f 21//293 115//293 114//293
f 19//294 119//294 89//294
f 19//295 18//295 119//295
f 18//296 120//296 119//296
f 16//297 124//297 96//297
f 16//298 15//298 124//298
f 15//299 125//299 124//299
f 13//300 129//300 103//300
f 13//301 12//301 129//301
f 12//302 130//302 129//302
f 10//303 134//303 110//303
f 10//304 6//304 134//304
f 6//305 135//305 134//305
f 9//306 141//306 138//306
f 9//307 8//307 141//307
f 8//308 142//308 141//308
f 8//309 146//309 142//309
f 8//310 7//310 146//310
f 7//311 147//311 146//311
f 7//312 151//312 147//312
f 7//313 3//313 151//313
f 3//314 152//314 151//314
f 6//315 156//315 135//315
f 6//316 5//316 156//316
f 5//317 157//317 156//317
f 3//318 160//318 152//318
f 3//319 2//319 160//319
f 2//320 157//320 160//320
