# Blender 3.5.0
# www.blender.org
mtllib front_right_upper_leg_collision.mtl
o front_right_upper_leg_collision
v 0.020950 -0.353787 -0.015323
v 0.025371 -0.353878 0.021148
v 0.013262 -0.351790 0.024884
v 0.055471 -0.307630 0.046365
v 0.056163 -0.332456 0.043420
v 0.057677 -0.310936 0.028011
v 0.009390 -0.350295 -0.015230
v 0.014435 -0.352359 -0.025675
v 0.026350 -0.353831 -0.016870
v 0.040476 -0.208407 0.044982
v -0.019837 -0.279923 0.055058
v 0.000218 -0.295659 0.058981
v -0.012176 -0.211405 0.060249
v -0.047251 -0.255339 -0.000213
v -0.042142 -0.266370 0.020964
v -0.049912 -0.207705 0.004935
v -0.019635 -0.283314 -0.037969
v -0.027694 -0.285213 -0.033345
v -0.026721 -0.212841 -0.035377
v 0.055054 -0.307104 -0.031055
v 0.051733 -0.308058 -0.035096
v 0.037659 -0.226708 -0.027995
v 0.039552 -0.209817 0.048684
v -0.030257 -0.210027 0.052930
v -0.051213 -0.207834 -0.009440
v -0.011101 -0.212043 -0.040330
v 0.039936 -0.228499 -0.023626
v 0.029026 -0.005577 0.061548
v 0.050525 0.008203 0.047833
v 0.025428 0.048495 0.056391
v -0.048981 -0.004884 0.044786
v -0.046329 0.007031 0.049235
v -0.058193 0.046344 0.024459
v -0.052242 -0.002382 -0.030597
v -0.054500 0.012121 -0.020285
v -0.057824 0.046228 -0.020536
v 0.033605 -0.003741 -0.082208
v 0.001095 0.008216 -0.083777
v 0.019625 0.035206 -0.073199
v 0.060156 -0.004066 0.000106
v 0.060120 0.008192 -0.028020
v 0.059099 0.033462 -0.000031
v 0.044924 0.071646 -0.000505
v 0.032827 0.077871 -0.015446
v 0.025522 0.080148 -0.004225
v 0.057386 0.035847 -0.022895
v 0.059035 0.020489 -0.032482
v 0.040067 0.003836 -0.072991
v 0.040291 0.060819 -0.027342
v 0.015932 0.080557 -0.021482
v -0.012895 0.081771 -0.020419
v 0.008331 0.083817 -0.017159
v -0.005237 0.040042 -0.072495
v -0.032122 0.015276 -0.081077
v -0.040306 0.003635 -0.072641
v -0.034382 0.061736 -0.029143
v -0.035795 0.076001 -0.015152
v -0.041523 0.073893 -0.004144
v -0.019608 0.082156 -0.014902
v -0.059224 0.048249 -0.014928
v -0.060593 0.038433 -0.000103
v -0.055502 -0.000547 0.016571
v -0.059230 0.048224 0.017673
v -0.038355 0.072042 0.019383
v -0.013392 0.077321 0.030070
v -0.017970 0.080755 0.010800
v -0.038735 0.056246 0.043822
v -0.028726 0.017425 0.059625
v 0.000881 0.005746 0.065930
v -0.005984 0.059037 0.055234
v 0.016561 0.074473 0.035789
v 0.033133 0.074952 0.019013
v 0.005842 0.081280 0.018684
v 0.045716 0.055719 0.037246
v 0.059243 0.020526 0.037883
v 0.060117 0.008060 0.028581
v 0.049316 0.060185 0.022657
v 0.041682 -0.138254 -0.009935
v 0.059285 -0.037677 -0.028620
v 0.057914 -0.050807 -0.006239
v 0.036060 -0.140664 -0.025036
v 0.029711 -0.143413 -0.034697
v 0.026503 -0.029589 -0.074863
v 0.056761 -0.038122 -0.032779
v -0.000651 -0.141815 -0.043216
v -0.012019 -0.034488 -0.080004
v 0.011935 -0.036494 -0.077591
v -0.020289 -0.142512 -0.039328
v -0.029044 -0.142802 -0.034425
v -0.046837 -0.051038 -0.032771
v -0.029398 -0.026997 -0.074906
v -0.055034 -0.138483 -0.010832
v -0.058322 -0.049667 -0.005206
v -0.054383 -0.050968 -0.019397
v -0.055340 -0.138291 -0.007502
v -0.052310 -0.138117 0.016349
v -0.049419 -0.073154 0.040163
v -0.058361 -0.049398 0.009621
v -0.039449 -0.139486 0.050378
v -0.039504 -0.059594 0.056729
v -0.047560 -0.070155 0.046142
v -0.027263 -0.141383 0.059074
v 0.000830 -0.141445 0.064600
v 0.015021 -0.072192 0.066317
v -0.013224 -0.060281 0.066885
v 0.041891 -0.140866 0.051929
v 0.047993 -0.058979 0.049373
v 0.040899 -0.072238 0.055944
v 0.044227 -0.139289 0.047293
v 0.044508 -0.137846 0.044310
v 0.058439 -0.050586 0.006820
v 0.059593 -0.039877 0.034597
v 0.022068 -0.142725 -0.039206
v 0.030815 -0.224144 -0.034920
v 0.036499 -0.310646 -0.044582
v 0.003337 -0.295932 -0.044039
v 0.010477 -0.224484 -0.040285
v -0.053012 -0.139975 -0.014877
v -0.046690 -0.222518 -0.016320
v -0.029559 -0.286162 -0.029859
v -0.046141 -0.256034 -0.004949
v -0.049629 -0.220889 -0.012453
v -0.046878 -0.138340 0.036420
v -0.045593 -0.220340 0.022067
v -0.033893 -0.282997 0.037357
v -0.029177 -0.286847 0.045623
v -0.038392 -0.220957 0.041228
v 0.028863 -0.142021 0.059637
v 0.016719 -0.224827 0.060086
v 0.036947 -0.310483 0.058799
v 0.052356 -0.307921 0.051741
v 0.035390 -0.223744 0.053024
v 0.042984 -0.137863 0.001259
v 0.040507 -0.230138 0.020846
v 0.058707 -0.316009 -0.014858
v 0.057521 -0.311452 -0.026709
v 0.040572 -0.230826 -0.020401
v 0.039314 -0.350298 -0.028085
v 0.042981 -0.342721 -0.035258
v 0.055676 -0.331161 -0.031027
v 0.023404 -0.353229 -0.029709
v 0.008149 -0.348479 -0.030372
v -0.004307 -0.329218 -0.034494
v 0.016514 -0.337876 -0.042780
v -0.009670 -0.325891 -0.030482
v 0.002817 -0.345570 -0.025252
v -0.002151 -0.340753 -0.015298
v -0.031602 -0.289655 -0.000966
v -0.017789 -0.313975 -0.025094
v -0.017747 -0.313955 0.026986
v 0.002653 -0.345588 0.024996
v 0.008533 -0.348916 0.044873
v -0.004950 -0.329794 0.050705
v -0.009797 -0.326406 0.044900
v 0.055821 -0.334400 -0.017236
v 0.054253 -0.337525 0.020753
v 0.038759 -0.350936 0.033310
v 0.039954 -0.350061 -0.014540
v 0.012933 -0.345210 0.053508
v 0.022719 -0.353367 0.043312
v 0.043391 -0.344262 0.051008
v 0.000906 0.083814 -0.006573
vn -0.1646 -0.9862 0.0175
vn 0.9931 0.0138 0.1169
vn -0.2892 -0.9572 -0.0078
vn -0.2884 -0.9562 0.0496
vn -0.0402 -0.9929 -0.1117
vn 0.9845 0.1501 0.0913
vn -0.2280 -0.0482 0.9725
vn -0.9776 -0.0758 0.1963
vn -0.4944 -0.0177 -0.8691
vn 0.7375 0.1843 -0.6497
vn 0.9451 0.1469 0.2919
vn -0.3769 -0.0280 0.9258
vn -0.9938 -0.0653 0.0905
vn -0.3025 0.0046 -0.9531
vn 0.8997 0.2092 -0.3831
vn 0.4808 0.1149 0.8692
vn -0.8860 0.0244 0.4630
vn -0.9920 -0.0973 -0.0804
vn 0.1461 0.2724 -0.9510
vn 0.9995 0.0282 0.0110
vn 0.3896 0.9185 0.0673
vn 0.7587 0.5143 -0.4000
vn 0.7473 0.4136 -0.5200
vn 0.0124 0.8087 -0.5881
vn 0.0099 0.7810 -0.6244
vn -0.8663 0.3529 -0.3534
vn -0.3553 0.9347 -0.0059
vn -0.7378 0.6207 -0.2651
vn -0.9898 -0.0783 0.1191
vn -0.2965 0.9256 0.2354
vn -0.3783 0.7801 0.4983
vn -0.1373 0.1779 0.9744
vn 0.2165 0.9461 0.2409
vn 0.4591 0.7507 0.4750
vn 0.9707 0.1836 -0.1548
vn 0.9825 -0.1804 -0.0457
vn 0.9253 -0.2194 -0.3095
vn 0.7787 -0.1892 -0.5982
vn 0.0688 -0.3170 -0.9459
vn -0.1715 -0.3356 -0.9262
vn -0.8758 -0.1616 -0.4547
vn -0.9638 -0.0188 -0.2658
vn -0.9955 -0.0312 -0.0895
vn -0.9680 -0.0473 0.2466
vn -0.7695 -0.0511 0.6366
vn -0.5863 -0.0646 0.8075
vn 0.0089 -0.0266 0.9996
vn 0.7097 -0.0309 0.7039
vn 0.8989 -0.0534 0.4349
vn 0.9885 -0.1505 0.0170
vn 0.4685 -0.2822 -0.8372
vn 0.5087 0.0093 -0.8609
vn 0.0066 0.0518 -0.9986
vn -0.6360 -0.1095 -0.7639
vn -0.6341 -0.0351 -0.7724
vn -0.9036 -0.1733 -0.3919
vn -0.9641 -0.0525 0.2603
vn -0.9637 -0.0606 0.2601
vn -0.8828 -0.0927 0.4605
vn 0.1728 -0.0598 0.9831
vn 0.1739 -0.0202 0.9846
vn 0.4061 0.0680 0.9113
vn 0.9845 -0.1721 -0.0348
vn 0.9988 -0.0343 -0.0353
vn 0.9782 0.2071 -0.0183
vn 0.6937 -0.6430 -0.3246
vn 0.2007 -0.7229 -0.6611
vn -0.4885 -0.4728 -0.7334
vn -0.6918 -0.5480 -0.4702
vn -0.7112 -0.5631 -0.4209
vn -0.8651 -0.5015 0.0102
vn -0.8668 -0.4986 -0.0038
vn -0.8389 -0.5432 0.0348
vn -0.7468 -0.6084 0.2684
vn 0.9796 -0.1343 -0.1497
vn 0.9870 -0.1584 0.0277
vn 0.2252 -0.9742 -0.0122
vn -0.5920 -0.5861 0.5532
vn -0.2152 -0.8529 0.4757
vn 0.7025 -0.7068 0.0827
vn 0.4302 -0.1242 0.8942
vn 0.6130 -0.1668 0.7723
vn 0.8655 -0.0351 0.4996
vn 0.0865 -0.2082 0.9743
vn 0.0778 -0.7407 0.6673
vn 0.3041 -0.9149 0.2654
vn -0.3209 -0.1770 0.9304
vn -0.3027 -0.1810 0.9357
vn -0.0438 -0.1208 0.9917
vn 0.2664 -0.9638 0.0043
vn 0.2662 -0.9639 0.0057
vn -0.0086 -1.0000 -0.0014
vn 0.7005 -0.7133 -0.0206
vn 0.6996 -0.7139 -0.0298
vn 0.6557 -0.7551 0.0026
vn 0.8788 0.0222 -0.4766
vn 0.9958 -0.0865 -0.0308
vn 0.7376 -0.6555 -0.1617
vn -0.8571 -0.4252 0.2910
vn -0.8045 -0.4021 0.4370
vn -0.5936 -0.2441 0.7668
vn -0.8771 -0.4768 0.0579
vn -0.8405 -0.5418 -0.0035
vn -0.7695 -0.6267 0.1227
vn -0.9098 -0.4150 0.0033
vn -0.8913 -0.4506 0.0501
vn -0.8889 -0.4578 -0.0171
vn -0.9075 -0.4038 -0.1157
vn -0.9074 -0.4055 -0.1107
vn -0.9006 -0.4074 -0.1512
vn -0.8405 -0.4153 -0.3481
vn -0.8365 -0.5453 -0.0546
vn -0.8282 -0.5394 -0.1523
vn -0.4474 -0.2151 -0.8681
vn -0.6907 -0.3506 -0.6325
vn -0.7699 -0.3774 -0.5146
vn -0.0344 -0.0408 -0.9986
vn -0.4215 -0.1592 -0.8928
vn -0.3447 -0.1848 -0.9204
vn 0.2270 -0.2293 -0.9465
vn 0.1092 -0.6155 -0.7805
vn -0.1821 -0.6835 -0.7069
vn 0.7701 0.0192 -0.6376
vn 0.3911 -0.0945 -0.9155
vn 0.5400 -0.1325 -0.8311
vn 0.9823 0.0093 -0.1869
vn 0.9771 0.2087 -0.0420
vn 0.9253 0.2079 -0.3172
vn 0.9933 0.0012 -0.1156
vn 0.9996 -0.0264 0.0020
vn 0.9781 0.2081 -0.0019
vn 0.9983 -0.0425 -0.0394
vn 0.9844 -0.1720 -0.0367
vn 0.9783 -0.1770 -0.1076
vn 0.8032 -0.0552 0.5932
vn 0.5443 0.0970 0.8332
vn 0.8552 0.1273 0.5024
vn 0.5109 -0.0287 0.8592
vn 0.3558 -0.0471 0.9334
vn 0.3494 0.0685 0.9344
vn 0.3720 -0.0118 0.9281
vn 0.3720 -0.0150 0.9281
vn 0.5115 -0.0428 0.8582
vn -0.7821 -0.0796 0.6180
vn -0.7876 -0.0693 0.6123
vn -0.6789 -0.0790 0.7300
vn -0.8831 -0.0637 0.4648
vn -0.9342 -0.0757 0.3487
vn -0.9333 -0.0894 0.3479
vn -0.9527 -0.0144 0.3036
vn -0.9452 -0.0553 0.3218
vn -0.8828 -0.0749 0.4637
vn -0.9652 -0.0583 -0.2550
vn -0.9928 -0.1091 -0.0495
vn -0.9702 -0.1216 -0.2095
vn -0.9006 -0.0506 -0.4316
vn -0.8055 -0.0514 -0.5904
vn -0.8116 -0.0958 -0.5763
vn -0.8687 -0.0746 -0.4897
vn -0.8704 -0.0383 -0.4909
vn -0.8991 -0.0360 -0.4362
vn -0.0199 -0.0381 -0.9991
vn 0.0305 0.0494 -0.9983
vn -0.2562 -0.0013 -0.9666
vn 0.1734 -0.0116 -0.9848
vn 0.2553 -0.0234 -0.9666
vn 0.2512 0.1237 -0.9600
vn 0.3264 -0.3403 -0.8819
vn 0.3098 -0.2968 -0.9033
vn 0.1520 -0.3230 -0.9341
vn 0.9957 0.0007 0.0926
vn 0.9992 -0.0154 -0.0356
vn 0.9993 -0.0346 0.0161
vn 0.8033 -0.0277 0.5949
vn 0.8177 -0.0532 0.5732
vn 0.9884 -0.1502 0.0203
vn 0.5274 0.0225 0.8493
vn 0.6888 -0.0093 0.7249
vn 0.7605 -0.0138 0.6492
vn -0.1875 0.0542 0.9808
vn 0.0240 0.0093 0.9997
vn 0.1676 0.0353 0.9852
vn -0.3601 0.0153 0.9328
vn -0.3610 -0.0273 0.9322
vn -0.1928 -0.0610 0.9794
vn -0.8499 -0.0076 0.5269
vn -0.7900 -0.0120 0.6130
vn -0.5260 0.0417 0.8495
vn -0.9491 0.0107 0.3149
vn -0.9565 0.0145 0.2913
vn -0.9746 -0.0089 0.2239
vn -0.9997 -0.0256 -0.0021
vn -0.9994 -0.0336 -0.0020
vn -0.9903 -0.0580 0.1262
vn -0.9782 -0.0047 -0.2075
vn -0.9637 -0.0055 -0.2670
vn -0.9603 -0.0086 -0.2787
vn -0.5949 -0.1535 -0.7890
vn -0.8310 -0.2595 -0.4920
vn -0.9542 -0.0933 -0.2843
vn -0.3398 -0.1572 -0.9273
vn -0.3851 -0.2993 -0.8730
vn -0.4595 -0.2943 -0.8380
vn -0.0029 -0.1377 -0.9905
vn 0.0900 -0.1150 -0.9893
vn -0.0934 -0.0591 -0.9939
vn 0.9103 -0.0332 -0.4126
vn 0.7541 -0.2726 -0.5975
vn 0.8784 -0.3375 -0.3384
vn 0.8560 -0.0306 -0.5161
vn 0.8459 -0.2079 -0.4911
vn 0.8436 -0.2077 -0.4952
vn 0.9988 -0.0451 -0.0209
vn 0.9986 -0.0188 0.0501
vn 0.9621 -0.0140 -0.2725
vn 0.9375 0.3480 -0.0056
vn 0.9630 0.2176 0.1589
vn 0.9995 0.0281 -0.0106
vn 0.6215 0.7426 0.2496
vn 0.5810 0.7270 0.3659
vn 0.8814 0.3446 0.3230
vn 0.1402 0.9875 0.0717
vn 0.2219 0.9645 0.1430
vn 0.3875 0.9185 0.0785
vn 0.1907 0.6491 0.7364
vn 0.0312 0.2006 0.9792
vn 0.1945 0.1059 0.9752
vn -0.0372 0.8032 0.5946
vn -0.2777 0.7365 0.6169
vn -0.3371 0.2791 0.8991
vn -0.0586 0.9921 0.1110
vn -0.0859 0.9771 0.1946
vn 0.0202 0.9332 0.3587
vn -0.7312 0.6204 0.2837
vn -0.9885 -0.0785 0.1293
vn -0.9732 -0.0913 0.2109
vn -0.7487 0.6453 0.1516
vn -0.8230 0.5680 0.0003
vn -0.9904 0.1381 -0.0001
vn -0.1049 0.9926 0.0608
vn -0.3208 0.9444 0.0719
vn -0.3471 0.9301 0.1199
vn -0.5809 0.5399 -0.6092
vn -0.5774 0.5262 -0.6243
vn -0.9587 -0.0522 -0.2796
vn -0.3220 0.6465 -0.6917
vn -0.3942 0.6880 -0.6093
vn -0.4186 0.6677 -0.6156
vn -0.0628 0.9971 -0.0438
vn -0.0711 0.9853 -0.1553
vn -0.3132 0.8417 -0.4399
vn 0.4242 0.6956 -0.5797
vn 0.6940 0.4485 -0.5632
vn 0.5845 0.3761 -0.7189
vn 0.3476 0.6340 -0.6908
vn 0.8215 0.5211 -0.2316
vn 0.7398 0.4117 -0.5322
vn 0.1376 0.9857 0.0968
vn 0.2384 0.9703 -0.0417
vn 0.2449 0.9308 -0.2713
vn 0.9371 0.3475 -0.0340
vn 0.9920 0.1097 -0.0629
vn 0.9953 0.0948 0.0193
vn 0.1275 0.7502 -0.6488
vn 0.0397 0.3409 -0.9393
vn -0.0058 0.3331 -0.9429
vn -0.7053 0.5923 -0.3896
vn -0.9733 -0.0964 -0.2082
vn -0.9816 -0.1046 -0.1600
vn -0.6927 0.6106 0.3838
vn -0.7389 0.1853 0.6478
vn -0.5756 0.1766 0.7984
vn 0.3857 0.6505 0.6543
vn 0.6235 0.2296 0.7474
vn 0.5698 0.2332 0.7880
vn 0.9347 0.0356 -0.3537
vn 0.8917 0.0321 -0.4515
vn 0.8307 0.0346 -0.5557
vn -0.1938 -0.0115 -0.9810
vn -0.3010 -0.0260 -0.9533
vn -0.4885 -0.0043 -0.8726
vn -0.9945 -0.0566 -0.0879
vn -0.9940 -0.0615 0.0905
vn -0.9905 -0.0548 0.1262
vn -0.5851 -0.0469 0.8096
vn -0.3787 -0.0661 0.9231
vn -0.1930 -0.0251 0.9809
vn 0.8987 -0.0510 0.4356
vn 0.9736 -0.0602 0.2201
vn 0.9962 -0.0563 0.0664
vn 0.7134 0.0117 -0.7007
vn 0.7323 0.1839 -0.6556
vn 0.5084 0.1285 -0.8515
vn -0.6870 -0.0129 -0.7265
vn -0.6875 -0.0111 -0.7261
vn -0.8600 -0.1263 -0.4944
vn -0.9780 -0.0661 0.1977
vn -0.9788 -0.0779 0.1893
vn -0.9201 -0.0782 0.3837
vn -0.0213 -0.0581 0.9981
vn -0.0014 -0.0153 0.9999
vn -0.0012 -0.0153 0.9999
vn 0.9970 -0.0565 0.0521
vn 0.9669 0.1904 -0.1702
vn 0.9782 0.2078 -0.0011
vn 0.1893 -0.9779 -0.0893
vn -0.1065 -0.9941 -0.0222
vn -0.2591 -0.8858 -0.3850
vn -0.5052 -0.8623 -0.0363
vn -0.5051 -0.8599 -0.0741
vn -0.6364 -0.7694 0.0547
vn -0.6370 -0.7707 -0.0165
vn -0.5045 -0.8633 0.0165
vn -0.5046 -0.8633 0.0048
vn 0.9896 -0.1384 0.0401
vn 0.9920 -0.1118 -0.0586
vn 0.6964 -0.7107 0.1002
vn -0.2918 -0.9540 0.0681
vn -0.1691 -0.9856 0.0025
vn 0.1763 -0.9834 0.0438
s 0
f 1//1 2//1 3//1
f 4//2 5//2 6//2
f 1//3 3//3 7//3
f 1//4 7//4 8//4
f 1//5 8//5 9//5
f 4//6 6//6 10//6
f 11//7 12//7 13//7
f 14//8 15//8 16//8
f 17//9 18//9 19//9
f 20//10 21//10 22//10
f 4//11 10//11 23//11
f 11//12 13//12 24//12
f 14//13 16//13 25//13
f 17//14 19//14 26//14
f 20//15 22//15 27//15
f 28//16 29//16 30//16
f 31//17 32//17 33//17
f 34//18 35//18 36//18
f 37//19 38//19 39//19
f 40//20 41//20 42//20
f 43//21 44//21 45//21
f 43//22 46//22 44//22
f 47//23 48//23 49//23
f 50//24 51//24 52//24
f 50//25 53//25 51//25
f 54//26 55//26 56//26
f 57//27 58//27 59//27
f 57//28 60//28 58//28
f 61//29 62//29 63//29
f 64//30 65//30 66//30
f 64//31 67//31 65//31
f 68//32 69//32 70//32
f 71//33 72//33 73//33
f 71//34 74//34 72//34
f 75//35 76//35 77//35
f 78//36 79//36 80//36
f 78//37 81//37 79//37
f 82//38 83//38 84//38
f 85//39 86//39 87//39
f 85//40 88//40 86//40
f 89//41 90//41 91//41
f 92//42 93//42 94//42
f 92//43 95//43 93//43
f 96//44 97//44 98//44
f 99//45 100//45 101//45
f 99//46 102//46 100//46
f 103//47 104//47 105//47
f 106//48 107//48 108//48
f 106//49 109//49 107//49
f 110//50 111//50 112//50
f 82//51 113//51 83//51
f 82//52 114//52 113//52
f 115//53 116//53 117//53
f 89//54 118//54 90//54
f 89//55 119//55 118//55
f 120//56 121//56 122//56
f 96//57 123//57 97//57
f 96//58 124//58 123//58
f 125//59 126//59 127//59
f 103//60 128//60 104//60
f 103//61 129//61 128//61
f 130//62 131//62 132//62
f 110//63 133//63 111//63
f 110//64 134//64 133//64
f 135//65 136//65 137//65
f 138//66 139//66 140//66
f 138//67 141//67 139//67
f 142//68 143//68 144//68
f 142//69 145//69 143//69
f 142//70 146//70 145//70
f 147//71 148//71 149//71
f 147//72 150//72 148//72
f 147//73 151//73 150//73
f 152//74 153//74 154//74
f 135//75 155//75 136//75
f 135//76 156//76 155//76
f 157//77 2//77 158//77
f 152//78 159//78 153//78
f 152//79 160//79 159//79
f 157//80 5//80 161//80
f 161//81 131//81 130//81
f 161//82 5//82 131//82
f 5//83 4//83 131//83
f 159//84 161//84 130//84
f 159//85 160//85 161//85
f 160//86 157//86 161//86
f 153//87 12//87 11//87
f 153//88 159//88 12//88
f 159//89 130//89 12//89
f 158//90 9//90 138//90
f 158//91 2//91 9//91
f 2//92 1//92 9//92
f 155//93 158//93 138//93
f 155//94 156//94 158//94
f 156//95 157//95 158//95
f 136//96 140//96 20//96
f 136//97 155//97 140//97
f 155//98 138//98 140//98
f 154//99 126//99 125//99
f 154//100 153//100 126//100
f 153//101 11//101 126//101
f 150//102 154//102 125//102
f 150//103 151//103 154//103
f 151//104 152//104 154//104
f 148//105 15//105 14//105
f 148//106 150//106 15//106
f 150//107 125//107 15//107
f 149//108 121//108 120//108
f 149//109 148//109 121//109
f 148//110 14//110 121//110
f 145//111 149//111 120//111
f 145//112 146//112 149//112
f 146//113 147//113 149//113
f 143//114 18//114 17//114
f 143//115 145//115 18//115
f 145//116 120//116 18//116
f 144//117 116//117 115//117
f 144//118 143//118 116//118
f 143//119 17//119 116//119
f 139//120 144//120 115//120
f 139//121 141//121 144//121
f 141//122 142//122 144//122
f 140//123 21//123 20//123
f 140//124 139//124 21//124
f 139//125 115//125 21//125
f 137//126 27//126 78//126
f 137//127 136//127 27//127
f 136//128 20//128 27//128
f 133//129 137//129 78//129
f 133//130 134//130 137//130
f 134//131 135//131 137//131
f 111//132 80//132 40//132
f 111//133 133//133 80//133
f 133//134 78//134 80//134
f 132//135 23//135 106//135
f 132//136 131//136 23//136
f 131//137 4//137 23//137
f 128//138 132//138 106//138
f 128//139 129//139 132//139
f 129//140 130//140 132//140
f 104//141 108//141 28//141
f 104//142 128//142 108//142
f 128//143 106//143 108//143
f 127//144 24//144 99//144
f 127//145 126//145 24//145
f 126//146 11//146 24//146
f 123//147 127//147 99//147
f 123//148 124//148 127//148
f 124//149 125//149 127//149
f 97//150 101//150 31//150
f 97//151 123//151 101//151
f 123//152 99//152 101//152
f 122//153 25//153 92//153
f 122//154 121//154 25//154
f 121//155 14//155 25//155
f 118//156 122//156 92//156
f 118//157 119//157 122//157
f 119//158 120//158 122//158
f 90//159 94//159 34//159
f 90//160 118//160 94//160
f 118//161 92//161 94//161
f 117//162 26//162 85//162
f 117//163 116//163 26//163
f 116//164 17//164 26//164
f 113//165 117//165 85//165
f 113//166 114//166 117//166
f 114//167 115//167 117//167
f 83//168 87//168 37//168
f 83//169 113//169 87//169
f 113//170 85//170 87//170
f 112//171 76//171 75//171
f 112//172 111//172 76//172
f 111//173 40//173 76//173
f 107//174 112//174 75//174
f 107//175 109//175 112//175
f 109//176 110//176 112//176
f 108//177 29//177 28//177
f 108//178 107//178 29//178
f 107//179 75//179 29//179
f 105//180 69//180 68//180
f 105//181 104//181 69//181
f 104//182 28//182 69//182
f 100//183 105//183 68//183
f 100//184 102//184 105//184
f 102//185 103//185 105//185
f 101//186 32//186 31//186
f 101//187 100//187 32//187
f 100//188 68//188 32//188
f 98//189 62//189 61//189
f 98//190 97//190 62//190
f 97//191 31//191 62//191
f 93//192 98//192 61//192
f 93//193 95//193 98//193
f 95//194 96//194 98//194
f 94//195 35//195 34//195
f 94//196 93//196 35//196
f 93//197 61//197 35//197
f 91//198 55//198 54//198
f 91//199 90//199 55//199
f 90//200 34//200 55//200
f 86//201 91//201 54//201
f 86//202 88//202 91//202
f 88//203 89//203 91//203
f 87//204 38//204 37//204
f 87//205 86//205 38//205
f 86//206 54//206 38//206
f 84//207 48//207 47//207
f 84//208 83//208 48//208
f 83//209 37//209 48//209
f 79//210 84//210 47//210
f 79//211 81//211 84//211
f 81//212 82//212 84//212
f 80//213 41//213 40//213
f 80//214 79//214 41//214
f 79//215 47//215 41//215
f 77//216 42//216 43//216
f 77//217 76//217 42//217
f 76//218 40//218 42//218
f 72//219 77//219 43//219
f 72//220 74//220 77//220
f 74//221 75//221 77//221
f 73//222 45//222 162//222
f 73//223 72//223 45//223
f 72//224 43//224 45//224
f 70//225 30//225 71//225
f 70//226 69//226 30//226
f 69//227 28//227 30//227
f 65//228 70//228 71//228
f 65//229 67//229 70//229
f 67//230 68//230 70//230
f 66//231 73//231 162//231
f 66//232 65//232 73//232
f 65//233 71//233 73//233
f 63//234 33//234 64//234
f 63//235 62//235 33//235
f 62//236 31//236 33//236
f 58//237 63//237 64//237
f 58//238 60//238 63//238
f 60//239 61//239 63//239
f 59//240 66//240 162//240
f 59//241 58//241 66//241
f 58//242 64//242 66//242
f 56//243 36//243 57//243
f 56//244 55//244 36//244
f 55//245 34//245 36//245
f 51//246 56//246 57//246
f 51//247 53//247 56//247
f 53//248 54//248 56//248
f 52//249 59//249 162//249
f 52//250 51//250 59//250
f 51//251 57//251 59//251
f 49//252 39//252 50//252
f 49//253 48//253 39//253
f 48//254 37//254 39//254
f 44//255 49//255 50//255
f 44//256 46//256 49//256
f 46//257 47//257 49//257
f 45//258 52//258 162//258
f 45//259 44//259 52//259
f 44//260 50//260 52//260
f 42//261 46//261 43//261
f 42//262 41//262 46//262
f 41//263 47//263 46//263
f 39//264 53//264 50//264
f 39//265 38//265 53//265
f 38//266 54//266 53//266
f 36//267 60//267 57//267
f 36//268 35//268 60//268
f 35//269 61//269 60//269
f 33//270 67//270 64//270
f 33//271 32//271 67//271
f 32//272 68//272 67//272
f 30//273 74//273 71//273
f 30//274 29//274 74//274
f 29//275 75//275 74//275
f 27//276 81//276 78//276
f 27//277 22//277 81//277
f 22//278 82//278 81//278
f 26//279 88//279 85//279
f 26//280 19//280 88//280
f 19//281 89//281 88//281
f 25//282 95//282 92//282
f 25//283 16//283 95//283
f 16//284 96//284 95//284
f 24//285 102//285 99//285
f 24//286 13//286 102//286
f 13//287 103//287 102//287
f 23//288 109//288 106//288
f 23//289 10//289 109//289
f 10//290 110//290 109//290
f 22//291 114//291 82//291
f 22//292 21//292 114//292
f 21//293 115//293 114//293
f 19//294 119//294 89//294
f 19//295 18//295 119//295
f 18//296 120//296 119//296
f 16//297 124//297 96//297
f 16//298 15//298 124//298
f 15//299 125//299 124//299
f 13//300 129//300 103//300
f 13//301 12//301 129//301
f 12//302 130//302 129//302
f 10//303 134//303 110//303
f 10//304 6//304 134//304
f 6//305 135//305 134//305
f 9//306 141//306 138//306
f 9//307 8//307 141//307
f 8//308 142//308 141//308
f 8//309 146//309 142//309
f 8//310 7//310 146//310
f 7//311 147//311 146//311
f 7//312 151//312 147//312
f 7//313 3//313 151//313
f 3//314 152//314 151//314
f 6//315 156//315 135//315
f 6//316 5//316 156//316
f 5//317 157//317 156//317
f 3//318 160//318 152//318
f 3//319 2//319 160//319
f 2//320 157//320 160//320
