# Blender 3.5.0
# www.blender.org
mtllib rear_left_lower_leg_collision.mtl
o rear_left_lower_leg_collision
v 0.001214 -0.380862 0.003121
v 0.015883 -0.377631 0.007269
v -0.006070 -0.379553 0.008972
v 0.042274 -0.286985 0.015333
v 0.040126 -0.336127 0.020095
v 0.043505 -0.294873 0.012713
v -0.017029 -0.377512 0.003067
v -0.006116 -0.379701 -0.011997
v 0.015497 -0.377882 -0.010153
v 0.046286 -0.208183 0.014574
v -0.019817 -0.306009 0.025257
v -0.005173 -0.298726 0.025719
v 0.014823 -0.207737 0.021550
v -0.044515 -0.330190 0.003329
v -0.044158 -0.330706 0.007937
v -0.032363 -0.308948 0.011857
v -0.019207 -0.305181 -0.028634
v -0.031096 -0.314625 -0.026560
v 0.010385 -0.209155 -0.021977
v 0.042180 -0.283910 -0.018752
v 0.038667 -0.301873 -0.024426
v 0.043827 -0.207569 -0.021901
v 0.043757 -0.207350 0.018534
v 0.010529 -0.208781 0.018654
v -0.031987 -0.308266 -0.011896
v 0.014790 -0.207990 -0.024912
v 0.046458 -0.208429 -0.017474
v 0.016124 -0.001573 0.024625
v 0.019373 0.003266 0.022384
v 0.014426 0.046033 0.013034
v -0.032765 -0.004591 0.016921
v -0.029519 0.008307 0.020700
v -0.031551 0.039097 0.016822
v -0.033054 -0.004165 -0.019222
v -0.034101 0.007924 -0.016022
v -0.032242 0.039793 -0.018255
v 0.016060 -0.000870 -0.027840
v 0.001262 0.008739 -0.028504
v 0.014050 0.046987 -0.015993
v 0.027949 -0.001424 -0.001299
v 0.027583 0.000717 -0.007482
v 0.024321 0.041687 -0.001284
v 0.016176 0.056349 -0.001394
v 0.012608 0.058428 -0.007974
v 0.006092 0.062324 -0.000651
v 0.022671 0.045494 -0.007315
v 0.021755 0.004710 -0.021719
v 0.019847 0.002849 -0.024940
v 0.019518 0.046514 -0.012679
v 0.003838 0.060387 -0.012048
v -0.010444 0.061176 -0.011176
v 0.001143 0.063156 -0.007765
v -0.015720 0.047558 -0.021116
v -0.024880 0.020306 -0.026057
v -0.030172 0.008044 -0.023221
v -0.026695 0.042465 -0.022603
v -0.021297 0.057403 -0.010744
v -0.021274 0.058233 -0.001322
v -0.011734 0.062599 -0.006511
v -0.031975 0.044279 -0.012404
v -0.034620 0.020195 -0.001583
v -0.033958 0.007850 0.013540
v -0.032138 0.043510 0.010394
v -0.022582 0.056220 0.008397
v -0.010328 0.060847 0.008728
v -0.011015 0.062756 0.003474
v -0.027100 0.042444 0.019357
v -0.024567 0.020487 0.023121
v 0.001005 0.008477 0.025408
v -0.015456 0.047423 0.018182
v 0.005141 0.060408 0.008306
v 0.012064 0.058717 0.005139
v 0.001142 0.063074 0.005018
v 0.018279 0.047471 0.010236
v 0.021962 0.002943 0.018746
v 0.027612 0.001480 0.003877
v 0.022211 0.046296 0.005165
v 0.047609 -0.151197 -0.019615
v 0.036615 -0.089954 -0.024389
v 0.040295 -0.101024 -0.012678
v 0.046042 -0.147530 -0.023381
v 0.042471 -0.143608 -0.027586
v 0.029589 -0.087417 -0.032150
v 0.032778 -0.083189 -0.027947
v 0.013031 -0.135943 -0.030895
v -0.008442 -0.065841 -0.032161
v 0.019980 -0.078144 -0.033472
v 0.003850 -0.123107 -0.029612
v -0.002856 -0.111219 -0.027407
v -0.021918 -0.053517 -0.024366
v -0.018585 -0.053197 -0.028079
v -0.009100 -0.098313 -0.022458
v -0.031012 -0.030818 -0.012655
v -0.026854 -0.042770 -0.019967
v -0.009663 -0.099006 -0.001390
v -0.009124 -0.097942 0.019410
v -0.026681 -0.042992 0.017012
v -0.030816 -0.030870 0.012138
v -0.003003 -0.110496 0.024220
v -0.018571 -0.053266 0.024949
v -0.021285 -0.053311 0.022158
v 0.004250 -0.122218 0.026752
v 0.012582 -0.135148 0.027632
v 0.020856 -0.077733 0.030170
v -0.008598 -0.066048 0.028983
v 0.041496 -0.143005 0.025056
v 0.032907 -0.083206 0.024724
v 0.030048 -0.087437 0.028740
v 0.045991 -0.146834 0.020267
v 0.047558 -0.150917 0.016690
v 0.039474 -0.098378 0.013806
v 0.035859 -0.087528 0.021261
v 0.036274 -0.139523 -0.030552
v 0.038864 -0.220015 -0.024076
v 0.032390 -0.314227 -0.028692
v -0.004837 -0.299640 -0.029230
v 0.021136 -0.220336 -0.024949
v -0.006540 -0.104568 -0.024926
v -0.021091 -0.298276 -0.022511
v -0.039689 -0.331698 -0.023390
v -0.044245 -0.330648 -0.010931
v -0.030702 -0.307446 -0.019992
v -0.006236 -0.104675 0.022128
v -0.031948 -0.309040 0.016872
v -0.039472 -0.331771 0.020350
v -0.030551 -0.313729 0.023246
v -0.021714 -0.299697 0.019749
v 0.036207 -0.139802 0.027260
v 0.021133 -0.219786 0.021469
v 0.032287 -0.314244 0.025158
v 0.038202 -0.302579 0.021405
v 0.038937 -0.219647 0.020633
v 0.048015 -0.148708 -0.001567
v 0.046595 -0.221927 0.010256
v 0.043776 -0.304542 -0.001617
v 0.043550 -0.294279 -0.015742
v 0.046548 -0.222257 -0.013520
v 0.028999 -0.369295 -0.012868
v 0.029319 -0.354883 -0.028964
v 0.040533 -0.336720 -0.022492
v 0.010376 -0.373739 -0.024341
v -0.013618 -0.371788 -0.025465
v -0.022636 -0.341969 -0.033952
v 0.006462 -0.354052 -0.034600
v -0.035609 -0.346671 -0.027105
v -0.025176 -0.372218 -0.012280
v -0.034431 -0.365012 0.003126
v -0.045037 -0.341857 0.003155
v -0.043438 -0.346178 -0.011951
v -0.043333 -0.346231 0.009059
v -0.027605 -0.370208 0.009361
v -0.013093 -0.371608 0.022342
v -0.023364 -0.343103 0.030225
v -0.035470 -0.347077 0.023632
v 0.041414 -0.343051 -0.011954
v 0.041355 -0.342638 0.009712
v 0.029119 -0.368929 0.009700
v 0.029811 -0.369954 0.002949
v 0.006719 -0.353627 0.031148
v 0.010340 -0.373455 0.021270
v 0.029074 -0.354808 0.025569
v -0.003926 0.063994 -0.001148
vn 0.1083 -0.9329 0.3435
vn 0.9065 0.0013 0.4221
vn -0.1806 -0.9835 -0.0048
vn -0.1806 -0.9835 0.0121
vn 0.0935 -0.9882 -0.1212
vn 0.8547 -0.0385 0.5176
vn -0.0607 0.0590 0.9964
vn -0.8817 0.4564 0.1194
vn -0.2873 0.1541 -0.9454
vn 0.8984 -0.0374 -0.4376
vn 0.8386 -0.0375 0.5435
vn -0.5821 0.2346 0.7786
vn -0.8681 0.4964 0.0005
vn -0.5812 0.2332 -0.7796
vn 0.8556 -0.0398 -0.5162
vn 0.2882 0.2362 0.9280
vn -0.7966 0.0235 0.6041
vn -0.9174 0.0257 -0.3971
vn 0.2006 0.2433 -0.9490
vn 0.9960 0.0838 -0.0299
vn 0.5095 0.8604 -0.0043
vn 0.7733 0.5898 -0.2329
vn 0.8032 0.1667 -0.5719
vn 0.0138 0.8437 -0.5367
vn -0.0163 0.5936 -0.8046
vn -0.6004 0.0749 -0.7962
vn -0.4494 0.8900 -0.0773
vn -0.7712 0.6343 -0.0540
vn -0.9941 0.0588 0.0916
vn -0.3380 0.8695 0.3602
vn -0.2654 0.6521 0.7102
vn -0.0028 0.1813 0.9834
vn 0.3514 0.8890 0.2935
vn 0.4535 0.5636 0.6904
vn 0.9332 0.1026 0.3445
vn 0.9748 0.1631 -0.1521
vn 0.9563 0.1522 -0.2496
vn 0.7332 0.1136 -0.6705
vn -0.0620 -0.0370 -0.9974
vn -0.2758 -0.1017 -0.9558
vn -0.7199 -0.2029 -0.6638
vn -0.9521 -0.3022 -0.0474
vn -0.9520 -0.3039 -0.0354
vn -0.9517 -0.3016 0.0574
vn -0.7010 -0.1994 0.6847
vn -0.5438 -0.1584 0.8241
vn -0.0546 -0.0362 0.9979
vn 0.7504 0.1114 0.6515
vn 0.7682 0.1138 0.6301
vn 0.9594 0.1603 0.2319
vn 0.4475 0.0300 -0.8938
vn 0.3980 -0.0608 -0.9154
vn 0.0315 0.0436 -0.9986
vn -0.7972 -0.2340 -0.5565
vn -0.5222 0.0286 -0.8523
vn -0.8627 0.3683 -0.3465
vn -0.9182 -0.2812 0.2792
vn -0.6111 0.0566 0.7895
vn -0.8425 0.4612 -0.2783
vn 0.0069 -0.0451 0.9990
vn 0.0014 -0.0725 0.9974
vn 0.5313 0.0032 0.8472
vn 0.9871 0.1542 0.0434
vn 0.9996 -0.0156 0.0232
vn 0.9982 -0.0402 -0.0451
vn 0.8490 -0.4019 -0.3431
vn 0.5057 -0.6477 -0.5699
vn -0.1506 -0.3125 -0.9379
vn -0.3348 -0.3502 -0.8748
vn -0.6090 -0.5692 -0.5524
vn -0.9089 -0.4163 0.0229
vn -0.9082 -0.4159 -0.0460
vn -0.7607 -0.4937 0.4214
vn -0.3501 -0.3647 0.8628
vn 0.9976 -0.0476 -0.0505
vn 0.9981 -0.0622 0.0039
vn 0.5171 -0.8368 0.1800
vn -0.1372 -0.3096 0.9409
vn 0.0059 -0.4450 0.8955
vn 0.8464 -0.3966 0.3554
vn 0.5883 -0.0384 0.8077
vn 0.4555 -0.0086 0.8902
vn 0.8023 0.0227 0.5965
vn 0.2417 -0.0093 0.9703
vn 0.2008 -0.4072 0.8910
vn 0.5081 -0.6427 0.5733
vn -0.1014 0.1416 0.9847
vn 0.0042 0.0993 0.9950
vn 0.0609 0.1113 0.9919
vn 0.5266 -0.8478 -0.0624
vn 0.4832 -0.8755 0.0019
vn 0.2125 -0.9771 0.0093
vn 0.9030 -0.4249 -0.0640
vn 0.9202 -0.3914 0.0100
vn 0.8956 -0.4169 0.1551
vn 0.9111 0.0008 -0.4122
vn 0.9920 -0.0523 -0.1145
vn 0.8633 -0.3975 -0.3111
vn -0.4432 0.0757 0.8932
vn -0.4976 0.0834 0.8634
vn -0.2879 0.1541 0.9452
vn -0.8758 -0.1292 0.4650
vn -0.7729 -0.5021 0.3879
vn -0.5812 -0.5612 0.5892
vn -0.9957 0.0434 0.0820
vn -0.9665 -0.0329 0.2546
vn -0.9360 -0.0243 0.3513
vn -0.9396 -0.0264 -0.3414
vn -0.9947 -0.0456 -0.0922
vn -0.9988 0.0450 -0.0204
vn -0.8828 -0.1284 -0.4519
vn -0.7609 -0.5289 -0.3759
vn -0.8001 -0.5583 -0.2195
vn -0.2942 0.1636 -0.9416
vn -0.4887 0.0836 -0.8684
vn -0.4863 0.0833 -0.8698
vn 0.0574 0.1098 -0.9923
vn 0.0204 0.1024 -0.9945
vn -0.0992 0.1514 -0.9835
vn 0.2390 -0.0116 -0.9710
vn 0.2028 -0.4205 -0.8843
vn 0.0040 -0.4615 -0.8871
vn 0.8304 0.0136 -0.5570
vn 0.5230 -0.0193 -0.8521
vn 0.6160 -0.0413 -0.7867
vn 0.9940 -0.0240 -0.1065
vn 0.9880 -0.0365 -0.1501
vn 0.8512 -0.0394 -0.5233
vn 0.9997 -0.0167 -0.0202
vn 0.9998 -0.0197 -0.0017
vn 0.9994 -0.0339 -0.0015
vn 0.9925 0.1209 0.0187
vn 0.9865 0.1631 0.0143
vn 0.9878 0.1499 -0.0429
vn 0.5360 -0.0665 0.8416
vn 0.3882 0.0051 0.9215
vn 0.8702 -0.0360 0.4913
vn 0.3498 -0.0656 0.9345
vn 0.0473 -0.0810 0.9956
vn 0.0465 0.0445 0.9979
vn 0.2405 0.0853 0.9669
vn 0.1421 -0.0113 0.9898
vn 0.3952 0.0205 0.9184
vn 0.1380 -0.0370 0.9897
vn -0.6374 0.2171 -0.7393
vn -0.2879 0.1540 0.9452
vn -0.5049 0.0296 0.8627
vn -0.2795 0.0105 0.9601
vn -0.4943 0.2890 0.8198
vn -0.7997 -0.1253 0.5872
vn -0.8777 -0.2574 0.4042
vn -0.7862 -0.2307 0.5733
vn -0.9842 0.0999 -0.1462
vn -0.8751 0.4753 -0.0908
vn -0.8772 0.4790 -0.0320
vn -0.6203 0.0548 -0.7824
vn -0.2603 0.0075 -0.9655
vn -0.4984 0.2987 -0.8139
vn -0.7887 -0.1150 -0.6039
vn -0.8960 -0.2660 -0.3555
vn -0.9282 -0.2860 -0.2379
vn -0.1723 -0.0857 -0.9813
vn 0.0605 0.0340 -0.9976
vn -0.0648 0.0608 -0.9960
vn 0.0040 -0.0699 -0.9975
vn 0.0504 -0.0785 -0.9956
vn 0.0483 0.0456 -0.9978
vn 0.2128 0.0818 -0.9737
vn 0.1222 -0.0148 -0.9924
vn 0.0077 -0.0455 -0.9989
vn 0.9288 0.1521 0.3380
vn 0.9554 0.1394 0.2604
vn 0.9930 0.1178 -0.0014
vn 0.8341 0.1429 0.5328
vn 0.8299 0.1327 0.5420
vn 0.9582 0.1597 0.2373
vn 0.4428 0.1144 0.8893
vn 0.7358 0.1331 0.6640
vn 0.8124 0.1424 0.5654
vn -0.0629 0.0559 0.9965
vn -0.0202 0.0505 0.9985
vn 0.1036 0.0786 0.9915
vn -0.3841 -0.0083 0.9232
vn -0.5350 -0.1554 0.8304
vn -0.2499 -0.0954 0.9636
vn -0.6335 -0.0664 0.7709
vn -0.7141 -0.0790 0.6956
vn -0.4166 -0.0113 0.9090
vn -0.9966 -0.0801 -0.0217
vn -0.8567 -0.0879 0.5082
vn -0.9625 -0.1530 -0.2238
vn -0.9974 -0.0722 0.0077
vn -0.9546 -0.2977 0.0069
vn -0.9520 -0.3035 0.0402
vn -0.9455 -0.1573 0.2851
vn -0.9285 -0.1050 -0.3563
vn -0.9966 -0.0769 0.0295
vn -0.4475 -0.0137 -0.8942
vn -0.7377 -0.0864 -0.6696
vn -0.6809 -0.0777 -0.7282
vn -0.3811 -0.0072 -0.9245
vn -0.5241 -0.1498 -0.8383
vn -0.5511 -0.1589 -0.8191
vn 0.0947 0.0771 -0.9925
vn -0.0235 0.0520 -0.9984
vn -0.0677 0.0577 -0.9960
vn 0.8136 0.1420 -0.5638
vn 0.7212 0.1321 -0.6800
vn 0.5236 0.1238 -0.8429
vn 0.7957 0.1415 -0.5890
vn 0.7780 0.1166 -0.6173
vn 0.8112 0.1267 -0.5709
vn 0.9921 0.1247 -0.0155
vn 0.9745 0.1311 -0.1823
vn 0.9287 0.1553 -0.3366
vn 0.8728 0.4844 -0.0607
vn 0.9652 0.1095 0.2375
vn 0.9963 0.0838 0.0179
vn 0.7496 0.6130 0.2497
vn 0.7049 0.5767 0.4129
vn 0.7972 0.1763 0.5774
vn 0.1638 0.9864 0.0125
vn 0.3616 0.9117 0.1951
vn 0.5103 0.8600 0.0095
vn 0.1734 0.4070 0.8968
vn 0.1756 0.2509 0.9520
vn 0.2076 0.2384 0.9487
vn 0.0386 0.5655 0.8239
vn -0.1840 0.6120 0.7692
vn 0.0259 0.1718 0.9848
vn -0.0494 0.9811 0.1869
vn -0.0687 0.9347 0.3487
vn 0.0391 0.7988 0.6003
vn -0.6740 0.5789 0.4589
vn -0.9892 0.0622 0.1330
vn -0.9086 0.0262 0.4169
vn -0.7979 0.6026 0.0175
vn -0.7990 0.6011 0.0146
vn -0.9942 0.1076 -0.0035
vn -0.1738 0.9848 -0.0030
vn -0.4093 0.9123 0.0151
vn -0.4480 0.8855 0.1231
vn -0.6518 0.6019 -0.4615
vn -0.6381 0.0782 -0.7660
vn -0.8486 0.0273 -0.5283
vn -0.2563 0.6561 -0.7098
vn -0.1876 0.6255 -0.7574
vn 0.0599 0.1585 -0.9855
vn -0.0591 0.9837 -0.1698
vn -0.0711 0.9484 -0.3090
vn -0.3194 0.8781 -0.3562
vn 0.4652 0.5570 -0.6880
vn 0.5186 0.2348 -0.8221
vn 0.4361 0.2335 -0.8691
vn 0.4506 0.5416 -0.7097
vn 0.7521 0.5681 -0.3341
vn 0.8645 0.1500 -0.4797
vn 0.1644 0.9864 0.0010
vn 0.3743 0.9145 -0.1534
vn 0.3530 0.8712 -0.3411
vn 0.8720 0.4849 0.0676
vn 0.9742 0.1076 -0.1986
vn 0.9303 0.1034 -0.3519
vn 0.1634 0.3911 -0.9057
vn 0.1687 0.2550 -0.9521
vn -0.0114 0.1821 -0.9832
vn -0.6726 0.6017 -0.4307
vn -0.9983 0.0583 0.0008
vn -0.9934 0.0673 -0.0930
vn -0.6862 0.5772 0.4426
vn -0.5334 0.0710 0.8429
vn -0.5770 0.0729 0.8135
vn 0.3786 0.5007 0.7785
vn 0.5105 0.2396 0.8258
vn 0.8096 0.1741 0.5606
vn 0.9107 -0.0337 -0.4117
vn 0.8550 -0.0443 -0.5167
vn 0.7409 -0.0439 -0.6702
vn -0.2551 -0.0862 -0.9631
vn -0.5297 -0.1148 -0.8404
vn -0.4867 -0.1138 -0.8661
vn -0.9940 0.1072 -0.0230
vn -0.9942 0.1067 -0.0127
vn -0.9939 0.1087 0.0202
vn -0.4898 -0.1164 0.8641
vn -0.5355 -0.1171 0.8364
vn -0.2394 -0.0884 0.9669
vn 0.7096 -0.0463 0.7031
vn 0.8374 -0.0465 0.5446
vn 0.8996 -0.0361 0.4352
vn 0.5306 -0.0639 -0.8452
vn 0.3952 0.0030 -0.9186
vn 0.5592 0.0022 -0.8290
vn 0.1247 -0.0381 -0.9915
vn -0.6642 0.2303 0.7112
vn -0.8559 0.4706 0.2146
vn -0.9908 0.1061 0.0840
vn -0.8823 0.4636 0.0816
vn -0.8690 0.3423 0.3574
vn -0.1539 -0.0872 0.9842
vn 0.0705 0.0302 0.9971
vn 0.0327 0.0429 0.9985
vn 0.9869 -0.0278 0.1591
vn 0.9824 -0.0354 0.1832
vn 0.9981 -0.0407 0.0463
vn 0.4357 -0.8095 -0.3936
vn 0.1062 -0.9435 -0.3138
vn -0.0482 -0.8727 -0.4859
vn -0.3411 -0.8811 -0.3277
vn -0.3609 -0.9239 -0.1271
vn -0.5830 -0.8119 0.0295
vn -0.5830 -0.8116 -0.0379
vn -0.3627 -0.8515 0.3787
vn -0.3720 -0.8706 0.3219
vn 0.9975 -0.0481 0.0513
vn 0.9871 -0.0539 0.1506
vn 0.8497 -0.3956 0.3486
vn -0.0460 -0.8692 0.4923
vn 0.1074 -0.9403 0.3230
vn 0.4460 -0.7939 0.4133
s 0
f 1//1 2//1 3//1
f 4//2 5//2 6//2
f 1//3 3//3 7//3
f 1//4 7//4 8//4
f 1//5 8//5 9//5
f 4//6 6//6 10//6
f 11//7 12//7 13//7
f 14//8 15//8 16//8
f 17//9 18//9 19//9
f 20//10 21//10 22//10
f 4//11 10//11 23//11
f 11//12 13//12 24//12
f 14//13 16//13 25//13
f 17//14 19//14 26//14
f 20//15 22//15 27//15
f 28//16 29//16 30//16
f 31//17 32//17 33//17
f 34//18 35//18 36//18
f 37//19 38//19 39//19
f 40//20 41//20 42//20
f 43//21 44//21 45//21
f 43//22 46//22 44//22
f 47//23 48//23 49//23
f 50//24 51//24 52//24
f 50//25 53//25 51//25
f 54//26 55//26 56//26
f 57//27 58//27 59//27
f 57//28 60//28 58//28
f 61//29 62//29 63//29
f 64//30 65//30 66//30
f 64//31 67//31 65//31
f 68//32 69//32 70//32
f 71//33 72//33 73//33
f 71//34 74//34 72//34
f 75//35 76//35 77//35
f 78//36 79//36 80//36
f 78//37 81//37 79//37
f 82//38 83//38 84//38
f 85//39 86//39 87//39
f 85//40 88//40 86//40
f 89//41 90//41 91//41
f 92//42 93//42 94//42
f 92//43 95//43 93//43
f 96//44 97//44 98//44
f 99//45 100//45 101//45
f 99//46 102//46 100//46
f 103//47 104//47 105//47
f 106//48 107//48 108//48
f 106//49 109//49 107//49
f 110//50 111//50 112//50
f 82//51 113//51 83//51
f 82//52 114//52 113//52
f 115//53 116//53 117//53
f 89//54 118//54 90//54
f 89//55 119//55 118//55
f 120//56 121//56 122//56
f 96//57 123//57 97//57
f 96//58 124//58 123//58
f 125//59 126//59 127//59
f 103//60 128//60 104//60
f 103//61 129//61 128//61
f 130//62 131//62 132//62
f 110//63 133//63 111//63
f 110//64 134//64 133//64
f 135//65 136//65 137//65
f 138//66 139//66 140//66
f 138//67 141//67 139//67
f 142//68 143//68 144//68
f 142//69 145//69 143//69
f 142//70 146//70 145//70
f 147//71 148//71 149//71
f 147//72 150//72 148//72
f 147//73 151//73 150//73
f 152//74 153//74 154//74
f 135//75 155//75 136//75
f 135//76 156//76 155//76
f 157//77 2//77 158//77
f 152//78 159//78 153//78
f 152//79 160//79 159//79
f 157//80 5//80 161//80
f 161//81 131//81 130//81
f 161//82 5//82 131//82
f 5//83 4//83 131//83
f 159//84 161//84 130//84
f 159//85 160//85 161//85
f 160//86 157//86 161//86
f 153//87 12//87 11//87
f 153//88 159//88 12//88
f 159//89 130//89 12//89
f 158//90 9//90 138//90
f 158//91 2//91 9//91
f 2//92 1//92 9//92
f 155//93 158//93 138//93
f 155//94 156//94 158//94
f 156//95 157//95 158//95
f 136//96 140//96 20//96
f 136//97 155//97 140//97
f 155//98 138//98 140//98
f 154//99 126//99 125//99
f 154//100 153//100 126//100
f 153//101 11//101 126//101
f 150//102 154//102 125//102
f 150//103 151//103 154//103
f 151//104 152//104 154//104
f 148//105 15//105 14//105
f 148//106 150//106 15//106
f 150//107 125//107 15//107
f 149//108 121//108 120//108
f 149//109 148//109 121//109
f 148//110 14//110 121//110
f 145//111 149//111 120//111
f 145//112 146//112 149//112
f 146//113 147//113 149//113
f 143//114 18//114 17//114
f 143//115 145//115 18//115
f 145//116 120//116 18//116
f 144//117 116//117 115//117
f 144//118 143//118 116//118
f 143//119 17//119 116//119
f 139//120 144//120 115//120
f 139//121 141//121 144//121
f 141//122 142//122 144//122
f 140//123 21//123 20//123
f 140//124 139//124 21//124
f 139//125 115//125 21//125
f 137//126 27//126 78//126
f 137//127 136//127 27//127
f 136//128 20//128 27//128
f 133//129 137//129 78//129
f 133//130 134//130 137//130
f 134//131 135//131 137//131
f 111//132 80//132 40//132
f 111//133 133//133 80//133
f 133//134 78//134 80//134
f 132//135 23//135 106//135
f 132//136 131//136 23//136
f 131//137 4//137 23//137
f 128//138 132//138 106//138
f 128//139 129//139 132//139
f 129//140 130//140 132//140
f 104//141 108//141 28//141
f 104//142 128//142 108//142
f 128//143 106//143 108//143
f 127//144 24//144 99//144
f 127//145 126//145 24//145
f 126//146 11//146 24//146
f 123//147 127//147 99//147
f 123//148 124//148 127//148
f 124//149 125//149 127//149
f 97//150 101//150 31//150
f 97//151 123//151 101//151
f 123//152 99//152 101//152
f 122//153 25//153 92//153
f 122//154 121//154 25//154
f 121//155 14//155 25//155
f 118//156 122//156 92//156
f 118//157 119//157 122//157
f 119//158 120//158 122//158
f 90//159 94//159 34//159
f 90//160 118//160 94//160
f 118//161 92//161 94//161
f 117//162 26//162 85//162
f 117//163 116//163 26//163
f 116//164 17//164 26//164
f 113//165 117//165 85//165
f 113//166 114//166 117//166
f 114//167 115//167 117//167
f 83//168 87//168 37//168
f 83//169 113//169 87//169
f 113//170 85//170 87//170
f 112//171 76//171 75//171
f 112//172 111//172 76//172
f 111//173 40//173 76//173
f 107//174 112//174 75//174
f 107//175 109//175 112//175
f 109//176 110//176 112//176
f 108//177 29//177 28//177
f 108//178 107//178 29//178
f 107//179 75//179 29//179
f 105//180 69//180 68//180
f 105//181 104//181 69//181
f 104//182 28//182 69//182
f 100//183 105//183 68//183
f 100//184 102//184 105//184
f 102//185 103//185 105//185
f 101//186 32//186 31//186
f 101//187 100//187 32//187
f 100//188 68//188 32//188
f 98//189 62//189 61//189
f 98//190 97//190 62//190
f 97//191 31//191 62//191
f 93//192 98//192 61//192
f 93//193 95//193 98//193
f 95//194 96//194 98//194
f 94//195 35//195 34//195
f 94//196 93//196 35//196
f 93//197 61//197 35//197
f 91//198 55//198 54//198
f 91//199 90//199 55//199
f 90//200 34//200 55//200
f 86//201 91//201 54//201
f 86//202 88//202 91//202
f 88//203 89//203 91//203
f 87//204 38//204 37//204
f 87//205 86//205 38//205
f 86//206 54//206 38//206
f 84//207 48//207 47//207
f 84//208 83//208 48//208
f 83//209 37//209 48//209
f 79//210 84//210 47//210
f 79//211 81//211 84//211
f 81//212 82//212 84//212
f 80//213 41//213 40//213
f 80//214 79//214 41//214
f 79//215 47//215 41//215
f 77//216 42//216 43//216
f 77//217 76//217 42//217
f 76//218 40//218 42//218
f 72//219 77//219 43//219
f 72//220 74//220 77//220
f 74//221 75//221 77//221
f 73//222 45//222 162//222
f 73//223 72//223 45//223
f 72//224 43//224 45//224
f 70//225 30//225 71//225
f 70//226 69//226 30//226
f 69//227 28//227 30//227
f 65//228 70//228 71//228
f 65//229 67//229 70//229
f 67//230 68//230 70//230
f 66//231 73//231 162//231
f 66//232 65//232 73//232
f 65//233 71//233 73//233
f 63//234 33//234 64//234
f 63//235 62//235 33//235
f 62//236 31//236 33//236
f 58//237 63//237 64//237
f 58//238 60//238 63//238
f 60//239 61//239 63//239
f 59//240 66//240 162//240
f 59//241 58//241 66//241
f 58//242 64//242 66//242
f 56//243 36//243 57//243
f 56//244 55//244 36//244
f 55//245 34//245 36//245
f 51//246 56//246 57//246
f 51//247 53//247 56//247
f 53//248 54//248 56//248
f 52//249 59//249 162//249
f 52//250 51//250 59//250
f 51//251 57//251 59//251
f 49//252 39//252 50//252
f 49//253 48//253 39//253
f 48//254 37//254 39//254
f 44//255 49//255 50//255
f 44//256 46//256 49//256
f 46//257 47//257 49//257
f 45//258 52//258 162//258
f 45//259 44//259 52//259
f 44//260 50//260 52//260
f 42//261 46//261 43//261
f 42//262 41//262 46//262
f 41//263 47//263 46//263
f 39//264 53//264 50//264
f 39//265 38//265 53//265
f 38//266 54//266 53//266
f 36//267 60//267 57//267
f 36//268 35//268 60//268
f 35//269 61//269 60//269
f 33//270 67//270 64//270
f 33//271 32//271 67//271
f 32//272 68//272 67//272
f 30//273 74//273 71//273
f 30//274 29//274 74//274
f 29//275 75//275 74//275
f 27//276 81//276 78//276
f 27//277 22//277 81//277
f 22//278 82//278 81//278
f 26//279 88//279 85//279
f 26//280 19//280 88//280
f 19//281 89//281 88//281
f 25//282 95//282 92//282
f 25//283 16//283 95//283
f 16//284 96//284 95//284
f 24//285 102//285 99//285
f 24//286 13//286 102//286
f 13//287 103//287 102//287
f 23//288 109//288 106//288
f 23//289 10//289 109//289
f 10//290 110//290 109//290
f 22//291 114//291 82//291
f 22//292 21//292 114//292
f 21//293 115//293 114//293
f 19//294 119//294 89//294
f 19//295 18//295 119//295
f 18//296 120//296 119//296
f 16//297 124//297 96//297
f 16//298 15//298 124//298
f 15//299 125//299 124//299
f 13//300 129//300 103//300
f 13//301 12//301 129//301
f 12//302 130//302 129//302
f 10//303 134//303 110//303
f 10//304 6//304 134//304
f 6//305 135//305 134//305
f 9//306 141//306 138//306
f 9//307 8//307 141//307
f 8//308 142//308 141//308
f 8//309 146//309 142//309
f 8//310 7//310 146//310
f 7//311 147//311 146//311
f 7//312 151//312 147//312
f 7//313 3//313 151//313
f 3//314 152//314 151//314
f 6//315 156//315 135//315
f 6//316 5//316 156//316
f 5//317 157//317 156//317
f 3//318 160//318 152//318
f 3//319 2//319 160//319
f 2//320 157//320 160//320
