# Blender 3.5.0
# www.blender.org
mtllib rear_right_hip_collision.mtl
o rear_right_hip_collision
v -0.001149 -0.056130 0.029605
v 0.007224 -0.056662 0.040970
v -0.003105 -0.056915 0.044219
v 0.093320 -0.047711 0.007840
v 0.026581 -0.052582 0.045358
v 0.093675 -0.047868 0.006615
v -0.005245 -0.055667 0.026499
v -0.000766 -0.053921 -0.001790
v 0.005066 -0.054459 0.009129
v 0.094552 -0.046976 0.010284
v -0.008148 -0.056165 0.049840
v -0.000102 -0.056789 0.049692
v -0.007496 -0.055897 0.051090
v -0.040804 -0.048143 0.025621
v -0.040438 -0.049554 0.041033
v -0.042297 -0.047938 0.032187
v -0.005969 -0.046614 -0.028831
v -0.010740 -0.045950 -0.027969
v -0.015993 -0.043914 -0.029586
v 0.093347 -0.047101 -0.010900
v 0.077684 -0.046545 -0.013153
v 0.093010 -0.045050 -0.017532
v 0.040708 -0.049285 0.049420
v -0.032762 -0.050784 0.050361
v -0.042062 -0.047298 0.024506
v -0.005356 -0.046191 -0.030189
v 0.094613 -0.046894 -0.010974
v 0.043199 -0.004094 0.071610
v 0.055416 0.006476 0.066108
v 0.031014 0.044691 0.066993
v -0.056833 -0.003375 0.049595
v -0.053825 0.007053 0.054575
v -0.049120 0.041540 0.047773
v -0.048312 -0.001139 -0.036981
v -0.051299 0.008715 -0.025343
v -0.046975 0.025004 -0.032698
v 0.042327 -0.001432 -0.046891
v 0.000670 0.008156 -0.047702
v 0.017460 0.032143 -0.041491
v 0.104582 -0.004095 0.000021
v 0.104640 0.008190 -0.028683
v 0.100237 0.045161 0.000415
v 0.082306 0.048476 0.000079
v 0.049282 0.044975 -0.012566
v 0.021174 0.051394 0.006641
v 0.093143 0.044910 -0.018159
v 0.098448 0.015875 -0.043690
v 0.076492 0.004617 -0.048116
v 0.074873 0.037004 -0.031021
v 0.009061 0.046101 -0.029492
v -0.006674 0.046754 -0.028364
v 0.006211 0.053117 -0.007886
v -0.003029 0.036848 -0.041055
v -0.029445 0.014977 -0.047308
v -0.045247 0.004411 -0.041377
v -0.035742 0.029855 -0.038278
v -0.022711 0.043674 -0.018198
v -0.039496 0.048188 0.022974
v -0.009599 0.053297 0.001775
v -0.046606 0.026000 -0.026100
v -0.054120 0.009094 0.013903
v -0.056358 0.004100 0.034926
v -0.047380 0.042275 0.025416
v -0.040858 0.049458 0.040818
v -0.008219 0.056508 0.045002
v -0.012460 0.054407 0.024429
v -0.041796 0.048034 0.051970
v -0.036054 0.017440 0.071201
v 0.000275 0.018202 0.070821
v -0.005865 0.046476 0.065275
v 0.011135 0.055784 0.049063
v 0.038480 0.049630 0.033770
v 0.005928 0.056087 0.031917
v 0.044570 0.047030 0.050072
v 0.098414 0.015656 0.043818
v 0.104487 0.008158 0.028570
v 0.093096 0.044991 0.018087
v 0.097094 -0.045976 -0.011016
v 0.100558 -0.035461 -0.027320
v 0.101717 -0.042307 -0.010054
v 0.094763 -0.044324 -0.018617
v 0.091842 -0.040795 -0.025960
v 0.075713 -0.028517 -0.038959
v 0.093752 -0.031309 -0.036722
v -0.001937 -0.044255 -0.033835
v -0.012460 -0.032203 -0.042797
v 0.008849 -0.033991 -0.042423
v -0.012489 -0.043126 -0.033088
v -0.036914 -0.029784 -0.037124
v -0.045719 -0.024785 -0.035083
v -0.036581 -0.026476 -0.041275
v -0.044200 -0.044459 0.021307
v -0.049285 -0.022076 -0.026430
v -0.048145 -0.023719 -0.031457
v -0.045597 -0.044460 0.024768
v -0.046205 -0.045767 0.041103
v -0.049218 -0.041257 0.047509
v -0.048807 -0.038694 0.025476
v -0.041890 -0.048155 0.051332
v -0.044553 -0.041754 0.055560
v -0.047965 -0.042230 0.051434
v -0.026153 -0.051316 0.052534
v -0.000058 -0.055197 0.053503
v 0.027535 -0.042654 0.069243
v -0.013713 -0.040526 0.069941
v 0.041585 -0.048297 0.051466
v 0.093653 -0.031300 0.036862
v 0.037411 -0.040616 0.066663
v 0.094765 -0.043770 0.020085
v 0.096998 -0.045499 0.012841
v 0.102070 -0.042238 0.009319
v 0.100627 -0.035841 0.026854
v 0.013956 -0.042777 -0.033053
v 0.076069 -0.044673 -0.018411
v 0.009256 -0.051960 -0.010943
v -0.000735 -0.047058 -0.028636
v 0.005469 -0.046367 -0.029928
v -0.044226 -0.027594 -0.032016
v -0.017285 -0.043809 -0.028392
v -0.015436 -0.051947 0.004454
v -0.040081 -0.048255 0.024621
v -0.040427 -0.047318 0.022034
v -0.043746 -0.047644 0.048972
v -0.041797 -0.048966 0.044914
v -0.040086 -0.049553 0.048097
v -0.023587 -0.053029 0.048923
v -0.040702 -0.049277 0.049129
v 0.030926 -0.045699 0.064819
v 0.007046 -0.056060 0.050800
v 0.007591 -0.056311 0.049514
v 0.026137 -0.052523 0.048972
v 0.030003 -0.051494 0.050200
v 0.097204 -0.047179 0.000191
v 0.094990 -0.047706 0.005433
v 0.093979 -0.048250 0.000201
v 0.093631 -0.048084 -0.004622
v 0.094949 -0.047861 -0.004330
v 0.006652 -0.053197 -0.005607
v 0.009489 -0.052248 -0.009653
v 0.088827 -0.048054 -0.005474
v 0.004815 -0.053385 -0.006093
v -0.001125 -0.053813 -0.002600
v -0.001532 -0.053591 -0.003515
v 0.004483 -0.053220 -0.007139
v -0.006732 -0.053588 0.000544
v -0.006164 -0.053817 0.001535
v -0.011434 -0.054670 0.025745
v -0.039277 -0.048661 0.025780
v -0.013614 -0.052604 0.005031
v -0.029628 -0.051932 0.041128
v -0.007759 -0.056563 0.041210
v -0.004360 -0.056867 0.044700
v -0.007567 -0.056398 0.048789
v -0.008536 -0.056304 0.048110
v 0.092682 -0.048194 -0.004044
v 0.092717 -0.048344 0.000754
v 0.008167 -0.056569 0.041418
v 0.009613 -0.055047 0.026197
v 0.000190 -0.056924 0.048693
v 0.002900 -0.056959 0.045067
v 0.007793 -0.056412 0.048350
v -0.000434 0.054720 0.008025
vn 0.0080 -0.9986 -0.0526
vn 0.1683 -0.9703 0.1735
vn -0.0653 -0.9959 -0.0623
vn -0.0588 -0.9958 -0.0708
vn 0.0384 -0.9968 -0.0697
vn 0.2083 -0.9606 0.1838
vn -0.0705 -0.9672 0.2440
vn -0.4384 -0.8959 -0.0717
vn -0.2017 -0.8729 -0.4442
vn 0.0087 -0.9552 -0.2959
vn 0.1842 -0.9630 0.1966
vn -0.1974 -0.9324 0.3027
vn -0.5010 -0.8610 -0.0870
vn -0.2142 -0.9008 -0.3776
vn 0.1368 -0.9444 -0.2991
vn 0.2862 0.1609 0.9446
vn -0.9607 0.1738 0.2165
vn -0.9395 0.1016 -0.3272
vn 0.0665 0.2062 -0.9762
vn 0.9954 0.0875 0.0394
vn 0.0134 0.9541 -0.2992
vn -0.0248 0.9782 -0.2060
vn -0.0595 0.4636 -0.8840
vn 0.0175 0.9516 -0.3067
vn -0.0116 0.7866 -0.6173
vn -0.4983 0.2858 -0.8185
vn -0.3211 0.9183 -0.2316
vn -0.5035 0.8123 -0.2943
vn -0.9749 0.2162 -0.0524
vn -0.2037 0.9773 -0.0578
vn -0.2228 0.9692 0.1050
vn 0.0062 0.1938 0.9810
vn 0.1967 0.9795 -0.0424
vn 0.2511 0.9661 0.0603
vn 0.9190 0.3407 0.1985
vn 0.6287 -0.7075 -0.3227
vn 0.5976 -0.7256 -0.3410
vn -0.0332 -0.7468 -0.6642
vn -0.0380 -0.6174 -0.7857
vn -0.1231 -0.6591 -0.7419
vn -0.5029 -0.6559 -0.5630
vn -0.9192 -0.3851 -0.0826
vn -0.6523 -0.7106 -0.2637
vn -0.8737 -0.4811 -0.0723
vn -0.5792 -0.6032 0.5484
vn -0.1791 -0.5930 0.7850
vn -0.0280 -0.7572 0.6525
vn 0.3922 -0.7731 0.4985
vn 0.3949 -0.7246 0.5647
vn 0.6560 -0.6901 0.3057
vn 0.0842 -0.6701 -0.7375
vn 0.0565 -0.9311 -0.3603
vn 0.0458 -0.9557 -0.2907
vn -0.5194 -0.7409 -0.4258
vn -0.4613 -0.8340 -0.3027
vn -0.3589 -0.8919 -0.2753
vn -0.7663 -0.6365 0.0876
vn -0.5799 -0.8146 -0.0130
vn -0.2107 -0.9684 0.1339
vn 0.0349 -0.8106 0.5846
vn 0.0837 -0.8642 0.4962
vn 0.2020 -0.9641 0.1726
vn 0.5927 -0.7971 0.1155
vn 0.4946 -0.8605 0.1223
vn 0.1761 -0.9833 -0.0465
vn 0.0617 -0.9805 -0.1868
vn 0.1362 -0.9815 -0.1348
vn -0.0649 -0.9760 -0.2078
vn -0.1373 -0.9749 -0.1753
vn -0.1258 -0.9800 -0.1543
vn -0.2105 -0.9747 -0.0751
vn -0.2105 -0.9747 -0.0754
vn -0.2064 -0.9759 -0.0704
vn -0.1135 -0.9932 0.0251
vn 0.0903 -0.9951 -0.0408
vn 0.0607 -0.9976 -0.0317
vn 0.1378 -0.9868 -0.0856
vn -0.0668 -0.9958 0.0620
vn -0.0127 -0.9999 0.0003
vn 0.2047 -0.9783 0.0331
vn 0.2020 -0.9721 0.1194
vn 0.2059 -0.9777 0.0410
vn 0.0878 -0.9958 0.0268
vn 0.0712 -0.9926 0.0985
vn 0.0698 -0.9956 0.0619
vn 0.0929 -0.9953 0.0275
vn -0.0729 -0.9815 0.1771
vn -0.0658 -0.9912 0.1147
vn 0.0648 -0.9862 0.1522
vn 0.1354 -0.9883 -0.0701
vn 0.1717 -0.9819 -0.0795
vn 0.0333 -0.9969 -0.0712
vn 0.0591 -0.9962 -0.0635
vn 0.0707 -0.9970 -0.0318
vn 0.0513 -0.9942 -0.0945
vn 0.0215 -0.9876 -0.1555
vn 0.0211 -0.9880 -0.1531
vn 0.0608 -0.9643 -0.2577
vn -0.2088 -0.9757 0.0657
vn -0.2021 -0.9670 0.1552
vn -0.2039 -0.9736 0.1030
vn -0.2092 -0.9777 0.0198
vn -0.2072 -0.9782 0.0134
vn -0.1140 -0.9932 0.0244
vn -0.3128 -0.9465 -0.0793
vn -0.2136 -0.9742 -0.0733
vn -0.2149 -0.9766 0.0109
vn -0.2843 -0.9426 -0.1749
vn -0.2664 -0.9524 -0.1485
vn -0.3081 -0.9442 -0.1167
vn -0.2717 -0.9390 -0.2107
vn -0.2079 -0.9724 -0.1055
vn -0.1954 -0.9777 -0.0770
vn -0.1752 -0.9566 -0.2329
vn -0.1806 -0.9561 -0.2307
vn -0.2726 -0.9382 -0.2130
vn 0.0285 -0.9590 -0.2818
vn -0.0932 -0.9629 -0.2534
vn -0.0724 -0.9647 -0.2532
vn 0.0731 -0.9705 -0.2297
vn 0.0967 -0.9779 -0.1855
vn -0.0176 -0.9884 -0.1509
vn -0.0090 -0.9836 -0.1802
vn 0.0655 -0.9569 -0.2830
vn 0.0694 -0.9709 -0.2291
vn 0.3409 -0.9277 -0.1523
vn 0.1968 -0.9688 -0.1509
vn 0.1501 -0.9757 -0.1595
vn 0.4648 -0.8799 -0.0990
vn 0.2634 -0.9646 0.0142
vn 0.4217 -0.9066 0.0126
vn 0.9974 -0.0701 -0.0179
vn 0.7223 -0.6915 -0.0107
vn 0.6305 -0.7711 -0.0890
vn 0.2137 -0.9124 0.3491
vn 0.2102 -0.9663 0.1485
vn 0.2049 -0.9530 0.2233
vn 0.2139 -0.9127 0.3483
vn 0.1915 -0.9165 0.3512
vn 0.1947 -0.9439 0.2668
vn 0.2822 -0.1725 0.9437
vn 0.3148 -0.6519 0.6899
vn 0.4426 -0.7455 0.4983
vn -0.2263 -0.9120 0.3422
vn -0.2091 -0.9632 0.1689
vn -0.2062 -0.9610 0.1843
vn -0.4721 -0.8621 0.1842
vn -0.4743 -0.8784 0.0585
vn -0.3704 -0.9284 0.0278
vn -0.9461 -0.2040 0.2516
vn -0.7662 -0.6367 0.0869
vn -0.6474 -0.6699 0.3636
vn -0.5251 -0.7797 -0.3412
vn -0.4073 -0.8747 -0.2626
vn -0.4165 -0.8865 -0.2017
vn -0.5534 -0.7942 -0.2509
vn -0.4687 -0.8399 -0.2736
vn -0.3195 -0.9238 -0.2109
vn -0.8415 -0.1343 -0.5234
vn -0.6962 -0.6651 -0.2702
vn -0.7021 -0.6791 -0.2144
vn -0.0031 -0.8820 -0.4712
vn -0.0027 -0.8765 -0.4814
vn -0.0679 -0.9433 -0.3248
vn 0.1029 -0.7802 -0.6170
vn 0.1164 -0.7942 -0.5964
vn 0.0710 -0.9529 -0.2948
vn 0.0672 -0.2032 -0.9768
vn 0.0940 -0.7002 -0.7078
vn 0.0998 -0.6981 -0.7090
vn 0.9077 -0.0956 0.4085
vn 0.9892 -0.0913 0.1147
vn 0.9979 -0.0588 0.0285
vn 0.7710 -0.1691 0.6139
vn 0.3414 -0.7434 0.5752
vn 0.5816 -0.7324 0.3541
vn 0.5388 -0.1964 0.8192
vn 0.4834 -0.1747 0.8578
vn 0.4824 -0.1760 0.8581
vn 0.0108 -0.0176 0.9998
vn 0.0159 -0.0188 0.9997
vn -0.0414 -0.0444 0.9982
vn -0.4101 -0.1775 0.8946
vn -0.2693 -0.7205 0.6391
vn -0.1400 -0.7937 0.5920
vn -0.7067 -0.1284 0.6958
vn -0.7567 -0.1308 0.6406
vn -0.6451 -0.1073 0.7565
vn -0.9801 -0.1424 -0.1381
vn -0.9855 -0.1656 -0.0377
vn -0.9737 -0.1887 -0.1277
vn -0.9927 -0.1173 -0.0284
vn -0.8722 -0.4681 -0.1418
vn -0.8752 -0.4785 -0.0708
vn -0.9776 -0.0568 -0.2028
vn -0.9775 -0.0568 -0.2031
vn -0.9955 -0.0626 -0.0710
vn -0.2986 -0.0869 -0.9504
vn -0.5740 -0.1637 -0.8024
vn -0.7258 -0.1337 -0.6748
vn -0.0926 -0.1278 -0.9875
vn -0.2007 -0.6505 -0.7325
vn -0.3003 -0.7341 -0.6091
vn -0.0097 -0.1261 -0.9920
vn 0.0071 -0.1229 -0.9924
vn -0.0376 -0.1085 -0.9934
vn 0.2765 -0.1673 -0.9463
vn 0.0778 -0.2673 -0.9605
vn 0.0126 -0.2666 -0.9637
vn 0.7617 -0.1682 -0.6257
vn 0.3161 -0.7619 -0.5654
vn 0.4855 -0.6968 -0.5280
vn 0.9973 -0.0677 -0.0270
vn 0.9899 -0.0958 -0.1044
vn 0.9014 -0.0975 -0.4218
vn 0.1797 0.9803 0.0821
vn 0.8614 0.3665 0.3516
vn 0.9955 0.0881 -0.0345
vn 0.1182 0.9857 0.1200
vn 0.1165 0.9866 0.1138
vn 0.4435 0.6351 0.6324
vn 0.1455 0.9848 -0.0951
vn 0.1976 0.9783 -0.0624
vn 0.0511 0.9982 0.0323
vn 0.0177 0.8590 0.5117
vn -0.0368 0.1846 0.9821
vn 0.0351 0.1029 0.9941
vn -0.0607 0.8918 0.4484
vn -0.1290 0.8827 0.4518
vn -0.2885 0.4701 0.8341
vn -0.0761 0.9964 -0.0367
vn -0.0541 0.9944 -0.0904
vn 0.0360 0.9993 0.0068
vn -0.7053 0.7082 -0.0316
vn -0.9748 0.2121 -0.0689
vn -0.9837 0.1712 0.0553
vn -0.6170 0.7803 -0.1026
vn -0.6291 0.7385 -0.2428
vn -0.9701 0.2270 -0.0863
vn -0.1113 0.9918 -0.0627
vn -0.2197 0.9727 -0.0754
vn -0.2189 0.9720 -0.0859
vn -0.4880 0.8341 -0.2573
vn -0.5239 0.2931 -0.7998
vn -0.8792 0.1204 -0.4609
vn -0.3821 0.8583 -0.3427
vn -0.2123 0.7398 -0.6384
vn -0.1718 0.4570 -0.8727
vn -0.0667 0.9896 -0.1276
vn -0.1247 0.9670 -0.2220
vn -0.3225 0.9181 -0.2306
vn 0.0764 0.6760 -0.7329
vn 0.1200 0.4681 -0.8755
vn -0.0564 0.1177 -0.9915
vn 0.1275 0.9626 -0.2389
vn -0.0576 0.8849 -0.4621
vn 0.2140 0.6668 -0.7139
vn 0.1497 0.9880 -0.0370
vn 0.1783 0.9817 -0.0672
vn 0.1476 0.9462 -0.2878
vn 0.1827 0.9797 -0.0830
vn 0.8671 0.3678 -0.3361
vn 0.9168 0.3448 -0.2017
vn 0.1442 0.6936 -0.7058
vn 0.0320 0.2295 -0.9728
vn 0.0394 0.2303 -0.9723
vn -0.5726 0.8148 -0.0910
vn -0.9648 0.2626 0.0144
vn -0.9634 0.2584 -0.0718
vn -0.6749 0.7370 0.0373
vn -0.6303 0.2321 0.7408
vn -0.7360 0.2559 0.6268
vn 0.2317 0.9211 0.3130
vn 0.6792 0.4197 0.6021
vn 0.3441 0.4234 0.8381
vn 0.3273 -0.8975 -0.2955
vn 0.1940 -0.9310 -0.3093
vn 0.0828 -0.8849 -0.4583
vn -0.1272 -0.8217 -0.5556
vn -0.2130 -0.8857 -0.4124
vn -0.3422 -0.7834 -0.5187
vn -0.6174 -0.7460 -0.2496
vn -0.6276 -0.7740 -0.0836
vn -0.6254 -0.7756 -0.0853
vn -0.2094 -0.8826 0.4209
vn -0.1945 -0.9087 0.3693
vn -0.1362 -0.7564 0.6397
vn 0.2681 -0.9075 0.3234
vn 0.2544 -0.9208 0.2957
vn 0.2472 -0.9225 0.2964
vn 0.0036 -0.8925 -0.4511
vn -0.0036 -0.9424 -0.3345
vn 0.0625 -0.9340 -0.3518
vn -0.4193 -0.8240 -0.3810
vn -0.2891 -0.9290 -0.2309
vn -0.2912 -0.9323 -0.2146
vn -0.5612 -0.8265 -0.0447
vn -0.5119 -0.8576 -0.0492
vn -0.3541 -0.9350 0.0178
vn -0.0049 -0.9562 0.2928
vn 0.0014 -0.8397 0.5430
vn 0.0655 -0.9738 0.2179
vn 0.3723 -0.9123 0.1709
vn 0.2670 -0.9491 0.1669
vn 0.1811 -0.9812 0.0669
vn 0.1205 -0.9901 -0.0719
vn 0.0410 -0.9966 -0.0710
vn -0.0055 -0.9914 -0.1307
vn -0.0794 -0.9920 -0.0979
vn -0.0632 -0.9954 -0.0714
vn -0.1506 -0.9863 -0.0675
vn -0.1483 -0.9853 -0.0854
vn -0.0325 -0.9973 -0.0663
vn -0.0519 -0.9980 -0.0364
vn 0.1022 -0.9927 0.0639
vn 0.1062 -0.9923 0.0632
vn 0.1745 -0.9705 0.1665
vn -0.0156 -0.9982 0.0583
vn 0.0025 -0.9976 -0.0699
vn 0.0882 -0.9959 0.0206
s 0
f 1//1 2//1 3//1
f 4//2 5//2 6//2
f 1//3 3//3 7//3
f 1//4 7//4 8//4
f 1//5 8//5 9//5
f 4//6 6//6 10//6
f 11//7 12//7 13//7
f 14//8 15//8 16//8
f 17//9 18//9 19//9
f 20//10 21//10 22//10
f 4//11 10//11 23//11
f 11//12 13//12 24//12
f 14//13 16//13 25//13
f 17//14 19//14 26//14
f 20//15 22//15 27//15
f 28//16 29//16 30//16
f 31//17 32//17 33//17
f 34//18 35//18 36//18
f 37//19 38//19 39//19
f 40//20 41//20 42//20
f 43//21 44//21 45//21
f 43//22 46//22 44//22
f 47//23 48//23 49//23
f 50//24 51//24 52//24
f 50//25 53//25 51//25
f 54//26 55//26 56//26
f 57//27 58//27 59//27
f 57//28 60//28 58//28
f 61//29 62//29 63//29
f 64//30 65//30 66//30
f 64//31 67//31 65//31
f 68//32 69//32 70//32
f 71//33 72//33 73//33
f 71//34 74//34 72//34
f 75//35 76//35 77//35
f 78//36 79//36 80//36
f 78//37 81//37 79//37
f 82//38 83//38 84//38
f 85//39 86//39 87//39
f 85//40 88//40 86//40
f 89//41 90//41 91//41
f 92//42 93//42 94//42
f 92//43 95//43 93//43
f 96//44 97//44 98//44
f 99//45 100//45 101//45
f 99//46 102//46 100//46
f 103//47 104//47 105//47
f 106//48 107//48 108//48
f 106//49 109//49 107//49
f 110//50 111//50 112//50
f 82//51 113//51 83//51
f 82//52 114//52 113//52
f 115//53 116//53 117//53
f 89//54 118//54 90//54
f 89//55 119//55 118//55
f 120//56 121//56 122//56
f 96//57 123//57 97//57
f 96//58 124//58 123//58
f 125//59 126//59 127//59
f 103//60 128//60 104//60
f 103//61 129//61 128//61
f 130//62 131//62 132//62
f 110//63 133//63 111//63
f 110//64 134//64 133//64
f 135//65 136//65 137//65
f 138//66 139//66 140//66
f 138//67 141//67 139//67
f 142//68 143//68 144//68
f 142//69 145//69 143//69
f 142//70 146//70 145//70
f 147//71 148//71 149//71
f 147//72 150//72 148//72
f 147//73 151//73 150//73
f 152//74 153//74 154//74
f 135//75 155//75 136//75
f 135//76 156//76 155//76
f 157//77 2//77 158//77
f 152//78 159//78 153//78
f 152//79 160//79 159//79
f 157//80 5//80 161//80
f 161//81 131//81 130//81
f 161//82 5//82 131//82
f 5//83 4//83 131//83
f 159//84 161//84 130//84
f 159//85 160//85 161//85
f 160//86 157//86 161//86
f 153//87 12//87 11//87
f 153//88 159//88 12//88
f 159//89 130//89 12//89
f 158//90 9//90 138//90
f 158//91 2//91 9//91
f 2//92 1//92 9//92
f 155//93 158//93 138//93
f 155//94 156//94 158//94
f 156//95 157//95 158//95
f 136//96 140//96 20//96
f 136//97 155//97 140//97
f 155//98 138//98 140//98
f 154//99 126//99 125//99
f 154//100 153//100 126//100
f 153//101 11//101 126//101
f 150//102 154//102 125//102
f 150//103 151//103 154//103
f 151//104 152//104 154//104
f 148//105 15//105 14//105
f 148//106 150//106 15//106
f 150//107 125//107 15//107
f 149//108 121//108 120//108
f 149//109 148//109 121//109
f 148//110 14//110 121//110
f 145//111 149//111 120//111
f 145//112 146//112 149//112
f 146//113 147//113 149//113
f 143//114 18//114 17//114
f 143//115 145//115 18//115
f 145//116 120//116 18//116
f 144//117 116//117 115//117
f 144//118 143//118 116//118
f 143//119 17//119 116//119
f 139//120 144//120 115//120
f 139//121 141//121 144//121
f 141//122 142//122 144//122
f 140//123 21//123 20//123
f 140//124 139//124 21//124
f 139//125 115//125 21//125
f 137//126 27//126 78//126
f 137//127 136//127 27//127
f 136//128 20//128 27//128
f 133//129 137//129 78//129
f 133//130 134//130 137//130
f 134//131 135//131 137//131
f 111//132 80//132 40//132
f 111//133 133//133 80//133
f 133//134 78//134 80//134
f 132//135 23//135 106//135
f 132//136 131//136 23//136
f 131//137 4//137 23//137
f 128//138 132//138 106//138
f 128//139 129//139 132//139
f 129//140 130//140 132//140
f 104//141 108//141 28//141
f 104//142 128//142 108//142
f 128//143 106//143 108//143
f 127//144 24//144 99//144
f 127//145 126//145 24//145
f 126//146 11//146 24//146
f 123//147 127//147 99//147
f 123//148 124//148 127//148
f 124//149 125//149 127//149
f 97//150 101//150 31//150
f 97//151 123//151 101//151
f 123//152 99//152 101//152
f 122//153 25//153 92//153
f 122//154 121//154 25//154
f 121//155 14//155 25//155
f 118//156 122//156 92//156
f 118//157 119//157 122//157
f 119//158 120//158 122//158
f 90//159 94//159 34//159
f 90//160 118//160 94//160
f 118//161 92//161 94//161
f 117//162 26//162 85//162
f 117//163 116//163 26//163
f 116//164 17//164 26//164
f 113//165 117//165 85//165
f 113//166 114//166 117//166
f 114//167 115//167 117//167
f 83//168 87//168 37//168
f 83//169 113//169 87//169
f 113//170 85//170 87//170
f 112//171 76//171 75//171
f 112//172 111//172 76//172
f 111//173 40//173 76//173
f 107//174 112//174 75//174
f 107//175 109//175 112//175
f 109//176 110//176 112//176
f 108//177 29//177 28//177
f 108//178 107//178 29//178
f 107//179 75//179 29//179
f 105//180 69//180 68//180
f 105//181 104//181 69//181
f 104//182 28//182 69//182
f 100//183 105//183 68//183
f 100//184 102//184 105//184
f 102//185 103//185 105//185
f 101//186 32//186 31//186
f 101//187 100//187 32//187
f 100//188 68//188 32//188
f 98//189 62//189 61//189
f 98//190 97//190 62//190
f 97//191 31//191 62//191
f 93//192 98//192 61//192
f 93//193 95//193 98//193
f 95//194 96//194 98//194
f 94//195 35//195 34//195
f 94//196 93//196 35//196
f 93//197 61//197 35//197
f 91//198 55//198 54//198
f 91//199 90//199 55//199
f 90//200 34//200 55//200
f 86//201 91//201 54//201
f 86//202 88//202 91//202
f 88//203 89//203 91//203
f 87//204 38//204 37//204
f 87//205 86//205 38//205
f 86//206 54//206 38//206
f 84//207 48//207 47//207
f 84//208 83//208 48//208
f 83//209 37//209 48//209
f 79//210 84//210 47//210
f 79//211 81//211 84//211
f 81//212 82//212 84//212
f 80//213 41//213 40//213
f 80//214 79//214 41//214
f 79//215 47//215 41//215
f 77//216 42//216 43//216
f 77//217 76//217 42//217
f 76//218 40//218 42//218
f 72//219 77//219 43//219
f 72//220 74//220 77//220
f 74//221 75//221 77//221
f 73//222 45//222 162//222
f 73//223 72//223 45//223
f 72//224 43//224 45//224
f 70//225 30//225 71//225
f 70//226 69//226 30//226
f 69//227 28//227 30//227
f 65//228 70//228 71//228
f 65//229 67//229 70//229
f 67//230 68//230 70//230
f 66//231 73//231 162//231
f 66//232 65//232 73//232
f 65//233 71//233 73//233
f 63//234 33//234 64//234
f 63//235 62//235 33//235
f 62//236 31//236 33//236
f 58//237 63//237 64//237
f 58//238 60//238 63//238
f 60//239 61//239 63//239
f 59//240 66//240 162//240
f 59//241 58//241 66//241
f 58//242 64//242 66//242
f 56//243 36//243 57//243
f 56//244 55//244 36//244
f 55//245 34//245 36//245
f 51//246 56//246 57//246
f 51//247 53//247 56//247
f 53//248 54//248 56//248
f 52//249 59//249 162//249
f 52//250 51//250 59//250
f 51//251 57//251 59//251
f 49//252 39//252 50//252
f 49//253 48//253 39//253
f 48//254 37//254 39//254
f 44//255 49//255 50//255
f 44//256 46//256 49//256
f 46//257 47//257 49//257
f 45//258 52//258 162//258
f 45//259 44//259 52//259
f 44//260 50//260 52//260
f 42//261 46//261 43//261
f 42//262 41//262 46//262
f 41//263 47//263 46//263
f 39//264 53//264 50//264
f 39//265 38//265 53//265
f 38//266 54//266 53//266
f 36//267 60//267 57//267
f 36//268 35//268 60//268
f 35//269 61//269 60//269
f 33//270 67//270 64//270
f 33//271 32//271 67//271
f 32//272 68//272 67//272
f 30//273 74//273 71//273
f 30//274 29//274 74//274
f 29//275 75//275 74//275
f 27//276 81//276 78//276
f 27//277 22//277 81//277
f 22//278 82//278 81//278
f 26//279 88//279 85//279
f 26//280 19//280 88//280
f 19//281 89//281 88//281
f 25//282 95//282 92//282
f 25//283 16//283 95//283
f 16//284 96//284 95//284
f 24//285 102//285 99//285
f 24//286 13//286 102//286
f 13//287 103//287 102//287
f 23//288 109//288 106//288
f 23//289 10//289 109//289
f 10//290 110//290 109//290
f 22//291 114//291 82//291
f 22//292 21//292 114//292
f 21//293 115//293 114//293
f 19//294 119//294 89//294
f 19//295 18//295 119//295
f 18//296 120//296 119//296
f 16//297 124//297 96//297
f 16//298 15//298 124//298
f 15//299 125//299 124//299
f 13//300 129//300 103//300
f 13//301 12//301 129//301
f 12//302 130//302 129//302
f 10//303 134//303 110//303
f 10//304 6//304 134//304
f 6//305 135//305 134//305
f 9//306 141//306 138//306
f 9//307 8//307 141//307
f 8//308 142//308 141//308
f 8//309 146//309 142//309
f 8//310 7//310 146//310
f 7//311 147//311 146//311
f 7//312 151//312 147//312
f 7//313 3//313 151//313
f 3//314 152//314 151//314
f 6//315 156//315 135//315
f 6//316 5//316 156//316
f 5//317 157//317 156//317
f 3//318 160//318 152//318
f 3//319 2//319 160//319
f 2//320 157//320 160//320
