# Blender 3.5.0
# www.blender.org
mtllib rear_left_hip_collision.mtl
o rear_left_hip_collision
v 0.001208 -0.056106 -0.028874
v 0.005495 -0.054438 -0.009299
v -0.003004 -0.053940 0.000125
v 0.093347 -0.047024 0.011216
v 0.089968 -0.048078 0.005264
v 0.093640 -0.048052 0.004893
v -0.004968 -0.055771 -0.027362
v -0.002618 -0.056999 -0.044557
v 0.007214 -0.056647 -0.040933
v 0.094613 -0.046818 0.011286
v -0.005411 -0.046669 0.028856
v 0.001218 -0.047036 0.028693
v -0.004806 -0.046246 0.030215
v -0.040076 -0.048255 -0.024768
v -0.039354 -0.048372 -0.023767
v -0.042670 -0.046888 -0.024290
v -0.007769 -0.056256 -0.049802
v -0.023944 -0.052984 -0.048886
v -0.033011 -0.050777 -0.050326
v 0.093106 -0.047140 -0.010972
v 0.024697 -0.052802 -0.048932
v 0.041436 -0.049019 -0.049389
v 0.093248 -0.044853 0.017897
v -0.012824 -0.044934 0.029655
v -0.042758 -0.047776 -0.033255
v -0.007123 -0.055988 -0.051053
v 0.094376 -0.046931 -0.011045
v 0.042154 -0.002733 0.046848
v 0.076375 0.004932 0.048056
v 0.017846 0.032184 0.041268
v -0.048444 -0.001937 0.036949
v -0.045138 0.005821 0.041407
v -0.047099 0.024896 0.032687
v -0.056623 -0.001379 -0.049588
v -0.056490 0.002685 -0.034894
v -0.049126 0.041538 -0.047722
v 0.043471 -0.004193 -0.071700
v 0.005560 0.016927 -0.070862
v 0.031024 0.044648 -0.067008
v 0.104574 -0.004095 0.000297
v 0.104516 0.008123 -0.028573
v 0.100075 0.045373 -0.000633
v 0.082302 0.048476 -0.000029
v 0.038501 0.049542 -0.033641
v 0.021214 0.051341 -0.006469
v 0.093102 0.044908 -0.018280
v 0.098246 0.016128 -0.043753
v 0.055132 0.006173 -0.066257
v 0.044274 0.047111 -0.050091
v 0.011389 0.055666 -0.049098
v -0.008390 0.056464 -0.044920
v 0.005584 0.056076 -0.031811
v -0.005864 0.046427 -0.065295
v -0.036160 0.017358 -0.071219
v -0.054203 0.004466 -0.054591
v -0.041759 0.047992 -0.051992
v -0.040598 0.049552 -0.040849
v -0.039507 0.048029 -0.022711
v -0.013810 0.054272 -0.026187
v -0.047643 0.041699 -0.025103
v -0.054284 0.008910 -0.014412
v -0.051274 0.008416 0.025266
v -0.046583 0.026029 0.026085
v -0.023783 0.043206 0.018160
v -0.006293 0.046823 0.028331
v -0.009654 0.053246 -0.001897
v -0.035977 0.029777 0.038296
v -0.029563 0.014813 0.047289
v 0.000906 0.008154 0.047691
v -0.003395 0.037126 0.040803
v 0.010233 0.045781 0.029405
v 0.049933 0.044942 0.012810
v 0.006119 0.053104 0.007848
v 0.074915 0.037749 0.030097
v 0.098307 0.015771 0.043936
v 0.104609 0.008168 0.028768
v 0.093025 0.044533 0.019111
v 0.097831 -0.045542 -0.011167
v 0.100278 -0.035872 -0.027292
v 0.102216 -0.041804 -0.009469
v 0.094712 -0.044350 -0.018670
v 0.042296 -0.048044 -0.051438
v 0.037836 -0.040283 -0.066691
v 0.093660 -0.031332 -0.036815
v 0.000089 -0.055236 -0.053465
v -0.012825 -0.040825 -0.069913
v 0.027528 -0.042689 -0.069215
v -0.026301 -0.051319 -0.052500
v -0.041933 -0.048201 -0.051301
v -0.047959 -0.042227 -0.051404
v -0.044548 -0.041750 -0.055529
v -0.046569 -0.045366 -0.041072
v -0.048773 -0.038755 -0.025344
v -0.049221 -0.041237 -0.047465
v -0.045724 -0.044367 -0.024989
v -0.044136 -0.044478 -0.021254
v -0.047907 -0.023943 0.031666
v -0.049373 -0.021899 0.026445
v -0.036571 -0.029862 0.037355
v -0.036943 -0.026317 0.041185
v -0.046046 -0.024607 0.034870
v -0.015271 -0.042336 0.032933
v 0.000022 -0.044644 0.033517
v 0.008523 -0.034271 0.042378
v -0.012195 -0.032094 0.042935
v 0.091614 -0.041438 0.024931
v 0.093745 -0.031265 0.036779
v 0.075721 -0.029142 0.038490
v 0.094990 -0.044279 0.018665
v 0.097095 -0.045902 0.011319
v 0.102050 -0.042147 0.010051
v 0.100350 -0.035434 0.027754
v 0.030902 -0.045764 -0.064792
v 0.028967 -0.051660 -0.050162
v 0.007979 -0.056303 -0.049475
v 0.000051 -0.056831 -0.049652
v 0.007428 -0.056051 -0.050762
v -0.043790 -0.047690 -0.048939
v -0.040745 -0.049323 -0.049096
v -0.040130 -0.049600 -0.048063
v -0.040716 -0.049454 -0.040998
v -0.041961 -0.048937 -0.045790
v -0.044058 -0.027622 0.032250
v -0.040364 -0.047569 -0.022462
v -0.015602 -0.051872 -0.004395
v -0.012329 -0.045534 0.028071
v -0.018624 -0.043222 0.028399
v 0.013061 -0.042855 0.033263
v 0.002247 -0.046582 0.029900
v 0.009890 -0.051834 0.011102
v 0.077175 -0.047011 0.011464
v 0.076310 -0.044170 0.019733
v 0.097205 -0.047179 0.000123
v 0.094958 -0.047830 0.004597
v 0.093979 -0.048249 0.000130
v 0.093617 -0.048088 -0.004692
v 0.094936 -0.047866 -0.004400
v 0.008157 -0.056554 -0.041381
v 0.008183 -0.056404 -0.048311
v 0.027661 -0.052430 -0.041948
v 0.004266 -0.056921 -0.044377
v -0.002984 -0.056986 -0.045319
v -0.007186 -0.056490 -0.048750
v 0.000345 -0.056966 -0.048653
v -0.008154 -0.056395 -0.048071
v -0.007774 -0.056572 -0.041170
v -0.010672 -0.054856 -0.025751
v -0.038546 -0.048777 -0.024922
v -0.029105 -0.052020 -0.041093
v -0.012134 -0.052884 -0.004068
v -0.007641 -0.053600 -0.002261
v 0.000286 -0.053684 0.003906
v -0.000127 -0.053465 0.004814
v -0.005893 -0.053534 0.000328
v 0.092668 -0.048198 -0.004115
v 0.092707 -0.048273 0.002097
v 0.010793 -0.052695 0.004081
v 0.009465 -0.055091 -0.025835
v 0.004600 -0.053190 0.007310
v 0.004932 -0.053355 0.006265
v 0.010126 -0.052121 0.009812
v 0.000156 0.054697 -0.007815
vn 0.0289 -0.9965 0.0786
vn 0.0232 -0.9866 0.1615
vn -0.0372 -0.9969 0.0691
vn -0.0379 -0.9971 0.0660
vn 0.0163 -0.9985 0.0529
vn 0.1493 -0.9749 0.1654
vn -0.0447 -0.9480 0.3150
vn -0.4267 -0.8810 0.2044
vn -0.2048 -0.9613 -0.1841
vn 0.2083 -0.9497 -0.2337
vn 0.1361 -0.9416 0.3081
vn -0.1751 -0.9152 0.3630
vn -0.4509 -0.8878 0.0924
vn -0.1963 -0.9332 -0.3011
vn 0.1515 -0.9761 -0.1560
vn -0.0610 0.1160 0.9914
vn -0.8838 0.1163 0.4531
vn -0.9840 0.1736 -0.0391
vn 0.0364 0.1048 -0.9938
vn 0.9952 0.0912 0.0366
vn 0.0504 0.9982 -0.0340
vn 0.1182 0.9854 -0.1228
vn 0.3410 0.4221 -0.8400
vn 0.0380 0.9992 -0.0110
vn -0.0584 0.8926 -0.4470
vn -0.7467 0.2503 -0.6162
vn -0.2229 0.9702 0.0949
vn -0.6294 0.7703 0.1026
vn -0.9644 0.2533 0.0763
vn -0.3241 0.9174 0.2310
vn -0.3780 0.8594 0.3443
vn 0.0389 0.2366 0.9708
vn 0.1428 0.9451 0.2938
vn 0.1174 0.9656 0.2321
vn 0.9151 0.3464 0.2066
vn 0.6834 -0.6672 -0.2964
vn 0.5734 -0.7381 -0.3556
vn 0.3937 -0.7677 -0.5057
vn -0.0240 -0.7612 -0.6481
vn -0.1398 -0.7966 -0.5882
vn -0.5827 -0.5973 -0.5510
vn -0.8849 -0.4606 0.0696
vn -0.8782 -0.4724 0.0755
vn -0.9073 -0.4098 0.0944
vn -0.5097 -0.6555 0.5573
vn -0.2877 -0.7166 0.6354
vn -0.0450 -0.6273 0.7775
vn -0.0270 -0.7560 0.6540
vn 0.4099 -0.7272 0.5506
vn 0.6223 -0.7102 0.3291
vn 0.4453 -0.7387 -0.5060
vn 0.2158 -0.9152 -0.3403
vn 0.0697 -0.9729 -0.2204
vn -0.6513 -0.6634 -0.3685
vn -0.4720 -0.8621 -0.1846
vn -0.3512 -0.9362 -0.0098
vn -0.6915 -0.6887 0.2180
vn -0.5651 -0.7867 0.2486
vn -0.3271 -0.9207 0.2127
vn 0.1093 -0.6959 0.7097
vn 0.1255 -0.8402 0.5275
vn 0.0657 -0.9416 0.3304
vn 0.6165 -0.7815 0.0952
vn 0.4639 -0.8797 0.1049
vn 0.1761 -0.9833 -0.0461
vn 0.2063 -0.9783 -0.0204
vn 0.1098 -0.9937 -0.0211
vn -0.0621 -0.9958 -0.0679
vn -0.1065 -0.9942 -0.0133
vn -0.1031 -0.9945 -0.0198
vn -0.2105 -0.9749 0.0726
vn -0.2104 -0.9748 0.0745
vn -0.1867 -0.9794 0.0765
vn -0.1267 -0.9759 0.1778
vn 0.0906 -0.9951 -0.0401
vn -0.0003 -0.9999 -0.0121
vn 0.1408 -0.9873 0.0728
vn -0.0545 -0.9760 0.2107
vn -0.0080 -0.9881 0.1535
vn 0.0563 -0.9928 0.1060
vn 0.0684 -0.9711 0.2286
vn 0.0652 -0.9522 0.2985
vn 0.0018 -0.9849 0.1733
vn 0.0830 -0.9694 0.2309
vn 0.1042 -0.9768 0.1873
vn 0.1538 -0.9812 0.1162
vn -0.0469 -0.9639 0.2622
vn -0.0832 -0.9611 0.2635
vn 0.0431 -0.9583 0.2826
vn 0.1360 -0.9874 0.0815
vn 0.1607 -0.9840 0.0775
vn 0.0560 -0.9958 0.0726
vn 0.0592 -0.9943 0.0886
vn 0.0858 -0.9962 -0.0126
vn 0.0556 -0.9955 0.0773
vn 0.1544 -0.9750 -0.1598
vn 0.0893 -0.9951 -0.0422
vn 0.1951 -0.9538 -0.2285
vn -0.2635 -0.9415 0.2103
vn -0.1721 -0.9564 0.2358
vn -0.1829 -0.9559 0.2300
vn -0.2933 -0.9136 0.2815
vn -0.2231 -0.9590 0.1751
vn -0.0640 -0.9956 0.0686
vn -0.3107 -0.9437 0.1134
vn -0.2653 -0.9527 0.1484
vn -0.2916 -0.9379 0.1881
vn -0.2157 -0.9764 0.0022
vn -0.2147 -0.9742 0.0700
vn -0.3145 -0.9457 0.0823
vn -0.2079 -0.9781 -0.0108
vn -0.2088 -0.9779 -0.0136
vn -0.2080 -0.9757 0.0695
vn -0.2028 -0.9736 -0.1044
vn -0.2012 -0.9677 -0.1520
vn -0.2074 -0.9760 -0.0657
vn 0.0691 -0.9857 -0.1538
vn -0.0612 -0.9913 -0.1163
vn -0.0687 -0.9812 -0.1805
vn 0.0755 -0.9922 -0.0994
vn 0.0739 -0.9956 -0.0571
vn 0.0087 -1.0000 0.0028
vn 0.0694 -0.9973 0.0237
vn 0.2116 -0.9766 -0.0378
vn 0.2072 -0.9708 -0.1207
vn 0.3634 -0.9178 -0.1597
vn 0.1973 -0.9684 -0.1528
vn 0.1512 -0.9755 -0.1596
vn 0.4678 -0.8780 -0.1013
vn 0.2841 -0.9588 0.0031
vn 0.3833 -0.9236 0.0027
vn 0.9979 -0.0643 0.0073
vn 0.7261 -0.6876 -0.0059
vn 0.6629 -0.7453 -0.0713
vn 0.0113 -0.8985 0.4388
vn -0.0029 -0.9458 0.3246
vn 0.0039 -0.9510 0.3092
vn 0.0528 -0.9396 0.3382
vn 0.1046 -0.8162 0.5682
vn 0.0716 -0.9527 0.2953
vn 0.0728 -0.2156 0.9738
vn 0.0944 -0.7009 0.7070
vn 0.0892 -0.6836 0.7244
vn -0.3429 -0.7955 0.4996
vn -0.3229 -0.9140 0.2458
vn -0.1872 -0.9364 0.2967
vn -0.4617 -0.8300 0.3129
vn -0.4725 -0.8378 0.2736
vn -0.3170 -0.9239 0.2144
vn -0.8687 -0.1356 0.4764
vn -0.6878 -0.6783 0.2587
vn -0.5208 -0.7292 0.4439
vn -0.5878 -0.8081 0.0374
vn -0.5265 -0.8490 0.0451
vn -0.4247 -0.9015 0.0834
vn -0.5947 -0.8035 0.0273
vn -0.4744 -0.8774 -0.0719
vn -0.3707 -0.9283 -0.0278
vn -0.9479 -0.1897 -0.2560
vn -0.7719 -0.6294 -0.0891
vn -0.7718 -0.6299 -0.0866
vn 0.0017 -0.9562 -0.2928
vn 0.0072 -0.8400 -0.5426
vn -0.0666 -0.9681 -0.2417
vn 0.0852 -0.8662 -0.4925
vn 0.1967 -0.9181 -0.3440
vn 0.1995 -0.9420 -0.2699
vn 0.2723 -0.1738 -0.9464
vn 0.3204 -0.6456 -0.6932
vn 0.0327 -0.8087 -0.5873
vn 0.9007 -0.0978 0.4233
vn 0.9862 -0.0994 0.1324
vn 0.9979 -0.0599 0.0246
vn 0.7564 -0.1695 0.6318
vn 0.2963 -0.7659 0.5706
vn 0.6140 -0.7152 0.3339
vn 0.0267 -0.2707 0.9623
vn 0.0593 -0.2709 0.9608
vn 0.2625 -0.1700 0.9499
vn -0.0362 -0.1056 0.9937
vn 0.0139 -0.1218 0.9925
vn -0.0131 -0.1266 0.9919
vn -0.0998 -0.1285 0.9867
vn -0.2039 -0.6520 0.7303
vn -0.1293 -0.6727 0.7285
vn -0.6658 -0.1377 0.7333
vn -0.5826 -0.1541 0.7981
vn -0.3086 -0.0852 0.9474
vn -0.9954 -0.0595 0.0748
vn -0.9665 -0.0508 0.2515
vn -0.9817 -0.0668 0.1786
vn -0.9922 -0.1211 0.0279
vn -0.8736 -0.4657 0.1415
vn -0.6614 -0.7034 0.2603
vn -0.9821 -0.1793 0.0584
vn -0.9839 -0.1741 0.0395
vn -0.9776 -0.1475 0.1501
vn -0.6273 -0.1154 -0.7702
vn -0.7542 -0.1446 -0.6405
vn -0.8121 -0.1471 -0.5647
vn -0.4017 -0.1813 -0.8976
vn -0.2700 -0.7179 -0.6416
vn -0.1779 -0.5888 -0.7884
vn -0.0471 -0.0449 -0.9979
vn 0.0163 -0.0216 -0.9996
vn 0.0084 -0.0191 -0.9998
vn 0.4868 -0.1722 -0.8564
vn 0.4862 -0.1730 -0.8566
vn 0.5540 -0.1987 -0.8085
vn 0.7716 -0.1644 -0.6146
vn 0.2906 -0.7694 -0.5688
vn 0.3959 -0.7351 -0.5504
vn 0.9981 -0.0558 -0.0256
vn 0.9852 -0.0990 -0.1401
vn 0.9002 -0.0991 -0.4241
vn 0.1745 0.9792 0.1040
vn 0.8719 0.3646 0.3269
vn 0.9952 0.0897 -0.0399
vn -0.0220 0.9767 0.2135
vn -0.0579 0.8893 0.4537
vn 0.1922 0.6612 0.7252
vn 0.1547 0.9871 0.0415
vn 0.1757 0.9823 0.0643
vn 0.0135 0.9548 0.2968
vn 0.1465 0.6956 0.7033
vn 0.0336 0.2359 0.9712
vn 0.0748 0.2079 0.9753
vn 0.0101 0.7906 0.6123
vn -0.2167 0.7457 0.6301
vn -0.1696 0.4532 0.8751
vn -0.0697 0.9894 0.1272
vn -0.1270 0.9673 0.2196
vn 0.0394 0.9484 0.3147
vn -0.5780 0.8106 0.0940
vn -0.9655 0.2585 -0.0311
vn -0.9441 0.0973 0.3149
vn -0.5089 0.8100 0.2914
vn -0.6390 0.7317 0.2372
vn -0.9701 0.2256 0.0891
vn -0.1101 0.9921 0.0607
vn -0.2252 0.9711 0.0795
vn -0.3224 0.9177 0.2323
vn -0.6696 0.7419 -0.0341
vn -0.6281 0.2241 -0.7451
vn -0.9511 0.1771 -0.2530
vn -0.2221 0.9685 -0.1125
vn -0.1287 0.8832 -0.4510
vn -0.2885 0.4706 -0.8338
vn -0.0814 0.9959 0.0388
vn -0.0641 0.9932 0.0977
vn -0.2028 0.9776 0.0557
vn 0.2301 0.9210 -0.3143
vn 0.6849 0.4175 -0.5972
vn 0.2928 0.1651 -0.9418
vn 0.2498 0.9667 -0.0552
vn 0.1137 0.9878 -0.1061
vn 0.4404 0.6379 -0.6318
vn 0.1511 0.9843 0.0907
vn 0.1976 0.9784 0.0610
vn 0.1968 0.9795 0.0428
vn 0.1682 0.9814 -0.0924
vn 0.8623 0.3656 -0.3504
vn 0.9186 0.3409 -0.1997
vn 0.0178 0.8602 -0.5097
vn -0.0375 0.1713 -0.9845
vn 0.0104 0.1893 -0.9819
vn -0.7015 0.7115 0.0409
vn -0.9766 0.2058 0.0626
vn -0.9766 0.2112 0.0410
vn -0.4936 0.8313 0.2555
vn -0.5324 0.3061 0.7893
vn -0.4805 0.2912 0.8272
vn 0.0766 0.6795 0.7297
vn 0.1231 0.4806 0.8683
vn -0.0708 0.4764 0.8764
vn 0.3487 -0.8923 -0.2867
vn 0.2536 -0.9196 -0.3001
vn 0.2650 -0.9091 -0.3214
vn -0.1356 -0.7556 -0.6408
vn -0.1933 -0.9087 -0.3700
vn -0.2083 -0.8818 -0.4232
vn -0.6462 -0.7588 0.0811
vn -0.6454 -0.7594 0.0816
vn -0.6495 -0.7164 0.2549
vn -0.4174 -0.8377 0.3523
vn -0.1729 -0.8307 0.5292
vn -0.1423 -0.7928 0.5927
vn 0.0925 -0.8871 0.4522
vn 0.1695 -0.9345 0.3129
vn 0.3277 -0.8984 0.2924
vn 0.2150 -0.9138 -0.3446
vn 0.2139 -0.9648 -0.1530
vn 0.2073 -0.9627 -0.1740
vn -0.2259 -0.9119 -0.3426
vn -0.2079 -0.9635 -0.1684
vn -0.2094 -0.9685 -0.1347
vn -0.5177 -0.7741 0.3644
vn -0.4270 -0.8794 0.2107
vn -0.3556 -0.8934 0.2746
vn -0.0216 -0.8867 0.4619
vn -0.0276 -0.9277 0.3723
vn 0.0731 -0.9524 0.2958
vn 0.3401 -0.9271 0.1578
vn 0.1982 -0.9676 0.1566
vn 0.1776 -0.9827 0.0533
vn 0.0964 -0.9953 -0.0035
vn 0.0096 -0.9974 0.0710
vn 0.0121 -0.9997 -0.0234
vn -0.0715 -0.9973 0.0169
vn -0.0393 -0.9971 0.0659
vn -0.1344 -0.9873 0.0846
vn -0.1385 -0.9878 0.0707
vn -0.1108 -0.9911 0.0739
vn -0.1873 -0.9555 0.2277
vn 0.0922 -0.9946 0.0477
vn 0.0144 -0.9972 0.0739
vn 0.0562 -0.9924 0.1098
vn 0.0652 -0.9978 0.0108
vn 0.0193 -0.9974 0.0700
vn 0.1387 -0.9876 0.0737
s 0
f 1//1 2//1 3//1
f 4//2 5//2 6//2
f 1//3 3//3 7//3
f 1//4 7//4 8//4
f 1//5 8//5 9//5
f 4//6 6//6 10//6
f 11//7 12//7 13//7
f 14//8 15//8 16//8
f 17//9 18//9 19//9
f 20//10 21//10 22//10
f 4//11 10//11 23//11
f 11//12 13//12 24//12
f 14//13 16//13 25//13
f 17//14 19//14 26//14
f 20//15 22//15 27//15
f 28//16 29//16 30//16
f 31//17 32//17 33//17
f 34//18 35//18 36//18
f 37//19 38//19 39//19
f 40//20 41//20 42//20
f 43//21 44//21 45//21
f 43//22 46//22 44//22
f 47//23 48//23 49//23
f 50//24 51//24 52//24
f 50//25 53//25 51//25
f 54//26 55//26 56//26
f 57//27 58//27 59//27
f 57//28 60//28 58//28
f 61//29 62//29 63//29
f 64//30 65//30 66//30
f 64//31 67//31 65//31
f 68//32 69//32 70//32
f 71//33 72//33 73//33
f 71//34 74//34 72//34
f 75//35 76//35 77//35
f 78//36 79//36 80//36
f 78//37 81//37 79//37
f 82//38 83//38 84//38
f 85//39 86//39 87//39
f 85//40 88//40 86//40
f 89//41 90//41 91//41
f 92//42 93//42 94//42
f 92//43 95//43 93//43
f 96//44 97//44 98//44
f 99//45 100//45 101//45
f 99//46 102//46 100//46
f 103//47 104//47 105//47
f 106//48 107//48 108//48
f 106//49 109//49 107//49
f 110//50 111//50 112//50
f 82//51 113//51 83//51
f 82//52 114//52 113//52
f 115//53 116//53 117//53
f 89//54 118//54 90//54
f 89//55 119//55 118//55
f 120//56 121//56 122//56
f 96//57 123//57 97//57
f 96//58 124//58 123//58
f 125//59 126//59 127//59
f 103//60 128//60 104//60
f 103//61 129//61 128//61
f 130//62 131//62 132//62
f 110//63 133//63 111//63
f 110//64 134//64 133//64
f 135//65 136//65 137//65
f 138//66 139//66 140//66
f 138//67 141//67 139//67
f 142//68 143//68 144//68
f 142//69 145//69 143//69
f 142//70 146//70 145//70
f 147//71 148//71 149//71
f 147//72 150//72 148//72
f 147//73 151//73 150//73
f 152//74 153//74 154//74
f 135//75 155//75 136//75
f 135//76 156//76 155//76
f 157//77 2//77 158//77
f 152//78 159//78 153//78
f 152//79 160//79 159//79
f 157//80 5//80 161//80
f 161//81 131//81 130//81
f 161//82 5//82 131//82
f 5//83 4//83 131//83
f 159//84 161//84 130//84
f 159//85 160//85 161//85
f 160//86 157//86 161//86
f 153//87 12//87 11//87
f 153//88 159//88 12//88
f 159//89 130//89 12//89
f 158//90 9//90 138//90
f 158//91 2//91 9//91
f 2//92 1//92 9//92
f 155//93 158//93 138//93
f 155//94 156//94 158//94
f 156//95 157//95 158//95
f 136//96 140//96 20//96
f 136//97 155//97 140//97
f 155//98 138//98 140//98
f 154//99 126//99 125//99
f 154//100 153//100 126//100
f 153//101 11//101 126//101
f 150//102 154//102 125//102
f 150//103 151//103 154//103
f 151//104 152//104 154//104
f 148//105 15//105 14//105
f 148//106 150//106 15//106
f 150//107 125//107 15//107
f 149//108 121//108 120//108
f 149//109 148//109 121//109
f 148//110 14//110 121//110
f 145//111 149//111 120//111
f 145//112 146//112 149//112
f 146//113 147//113 149//113
f 143//114 18//114 17//114
f 143//115 145//115 18//115
f 145//116 120//116 18//116
f 144//117 116//117 115//117
f 144//118 143//118 116//118
f 143//119 17//119 116//119
f 139//120 144//120 115//120
f 139//121 141//121 144//121
f 141//122 142//122 144//122
f 140//123 21//123 20//123
f 140//124 139//124 21//124
f 139//125 115//125 21//125
f 137//126 27//126 78//126
f 137//127 136//127 27//127
f 136//128 20//128 27//128
f 133//129 137//129 78//129
f 133//130 134//130 137//130
f 134//131 135//131 137//131
f 111//132 80//132 40//132
f 111//133 133//133 80//133
f 133//134 78//134 80//134
f 132//135 23//135 106//135
f 132//136 131//136 23//136
f 131//137 4//137 23//137
f 128//138 132//138 106//138
f 128//139 129//139 132//139
f 129//140 130//140 132//140
f 104//141 108//141 28//141
f 104//142 128//142 108//142
f 128//143 106//143 108//143
f 127//144 24//144 99//144
f 127//145 126//145 24//145
f 126//146 11//146 24//146
f 123//147 127//147 99//147
f 123//148 124//148 127//148
f 124//149 125//149 127//149
f 97//150 101//150 31//150
f 97//151 123//151 101//151
f 123//152 99//152 101//152
f 122//153 25//153 92//153
f 122//154 121//154 25//154
f 121//155 14//155 25//155
f 118//156 122//156 92//156
f 118//157 119//157 122//157
f 119//158 120//158 122//158
f 90//159 94//159 34//159
f 90//160 118//160 94//160
f 118//161 92//161 94//161
f 117//162 26//162 85//162
f 117//163 116//163 26//163
f 116//164 17//164 26//164
f 113//165 117//165 85//165
f 113//166 114//166 117//166
f 114//167 115//167 117//167
f 83//168 87//168 37//168
f 83//169 113//169 87//169
f 113//170 85//170 87//170
f 112//171 76//171 75//171
f 112//172 111//172 76//172
f 111//173 40//173 76//173
f 107//174 112//174 75//174
f 107//175 109//175 112//175
f 109//176 110//176 112//176
f 108//177 29//177 28//177
f 108//178 107//178 29//178
f 107//179 75//179 29//179
f 105//180 69//180 68//180
f 105//181 104//181 69//181
f 104//182 28//182 69//182
f 100//183 105//183 68//183
f 100//184 102//184 105//184
f 102//185 103//185 105//185
f 101//186 32//186 31//186
f 101//187 100//187 32//187
f 100//188 68//188 32//188
f 98//189 62//189 61//189
f 98//190 97//190 62//190
f 97//191 31//191 62//191
f 93//192 98//192 61//192
f 93//193 95//193 98//193
f 95//194 96//194 98//194
f 94//195 35//195 34//195
f 94//196 93//196 35//196
f 93//197 61//197 35//197
f 91//198 55//198 54//198
f 91//199 90//199 55//199
f 90//200 34//200 55//200
f 86//201 91//201 54//201
f 86//202 88//202 91//202
f 88//203 89//203 91//203
f 87//204 38//204 37//204
f 87//205 86//205 38//205
f 86//206 54//206 38//206
f 84//207 48//207 47//207
f 84//208 83//208 48//208
f 83//209 37//209 48//209
f 79//210 84//210 47//210
f 79//211 81//211 84//211
f 81//212 82//212 84//212
f 80//213 41//213 40//213
f 80//214 79//214 41//214
f 79//215 47//215 41//215
f 77//216 42//216 43//216
f 77//217 76//217 42//217
f 76//218 40//218 42//218
f 72//219 77//219 43//219
f 72//220 74//220 77//220
f 74//221 75//221 77//221
f 73//222 45//222 162//222
f 73//223 72//223 45//223
f 72//224 43//224 45//224
f 70//225 30//225 71//225
f 70//226 69//226 30//226
f 69//227 28//227 30//227
f 65//228 70//228 71//228
f 65//229 67//229 70//229
f 67//230 68//230 70//230
f 66//231 73//231 162//231
f 66//232 65//232 73//232
f 65//233 71//233 73//233
f 63//234 33//234 64//234
f 63//235 62//235 33//235
f 62//236 31//236 33//236
f 58//237 63//237 64//237
f 58//238 60//238 63//238
f 60//239 61//239 63//239
f 59//240 66//240 162//240
f 59//241 58//241 66//241
f 58//242 64//242 66//242
f 56//243 36//243 57//243
f 56//244 55//244 36//244
f 55//245 34//245 36//245
f 51//246 56//246 57//246
f 51//247 53//247 56//247
f 53//248 54//248 56//248
f 52//249 59//249 162//249
f 52//250 51//250 59//250
f 51//251 57//251 59//251
f 49//252 39//252 50//252
f 49//253 48//253 39//253
f 48//254 37//254 39//254
f 44//255 49//255 50//255
f 44//256 46//256 49//256
f 46//257 47//257 49//257
f 45//258 52//258 162//258
f 45//259 44//259 52//259
f 44//260 50//260 52//260
f 42//261 46//261 43//261
f 42//262 41//262 46//262
f 41//263 47//263 46//263
f 39//264 53//264 50//264
f 39//265 38//265 53//265
f 38//266 54//266 53//266
f 36//267 60//267 57//267
f 36//268 35//268 60//268
f 35//269 61//269 60//269
f 33//270 67//270 64//270
f 33//271 32//271 67//271
f 32//272 68//272 67//272
f 30//273 74//273 71//273
f 30//274 29//274 74//274
f 29//275 75//275 74//275
f 27//276 81//276 78//276
f 27//277 22//277 81//277
f 22//278 82//278 81//278
f 26//279 88//279 85//279
f 26//280 19//280 88//280
f 19//281 89//281 88//281
f 25//282 95//282 92//282
f 25//283 16//283 95//283
f 16//284 96//284 95//284
f 24//285 102//285 99//285
f 24//286 13//286 102//286
f 13//287 103//287 102//287
f 23//288 109//288 106//288
f 23//289 10//289 109//289
f 10//290 110//290 109//290
f 22//291 114//291 82//291
f 22//292 21//292 114//292
f 21//293 115//293 114//293
f 19//294 119//294 89//294
f 19//295 18//295 119//295
f 18//296 120//296 119//296
f 16//297 124//297 96//297
f 16//298 15//298 124//298
f 15//299 125//299 124//299
f 13//300 129//300 103//300
f 13//301 12//301 129//301
f 12//302 130//302 129//302
f 10//303 134//303 110//303
f 10//304 6//304 134//304
f 6//305 135//305 134//305
f 9//306 141//306 138//306
f 9//307 8//307 141//307
f 8//308 142//308 141//308
f 8//309 146//309 142//309
f 8//310 7//310 146//310
f 7//311 147//311 146//311
f 7//312 151//312 147//312
f 7//313 3//313 151//313
f 3//314 152//314 151//314
f 6//315 156//315 135//315
f 6//316 5//316 156//316
f 5//317 157//317 156//317
f 3//318 160//318 152//318
f 3//319 2//319 160//319
f 2//320 157//320 160//320
