# Blender 3.5.0
# www.blender.org
mtllib rear_right_upper_leg_collision.mtl
o rear_right_upper_leg_collision
v 0.021249 -0.353844 -0.015928
v 0.025277 -0.354062 0.020565
v 0.013214 -0.351855 0.031756
v 0.055628 -0.307758 0.045794
v 0.056414 -0.332102 0.043529
v 0.057779 -0.310949 0.027735
v 0.009693 -0.350353 -0.015855
v 0.014751 -0.352408 -0.026280
v 0.026263 -0.353937 -0.017452
v 0.040457 -0.208526 0.044595
v -0.019761 -0.280126 0.054434
v 0.000299 -0.295568 0.058352
v -0.011934 -0.211272 0.059846
v -0.047163 -0.255264 -0.001286
v -0.041789 -0.266968 0.021368
v -0.049842 -0.207607 0.004353
v -0.019408 -0.283001 -0.038584
v -0.027505 -0.285234 -0.033868
v -0.026569 -0.212920 -0.035871
v 0.055382 -0.307101 -0.031526
v 0.052046 -0.308051 -0.035601
v 0.037632 -0.226757 -0.028539
v 0.039526 -0.209758 0.048295
v -0.030287 -0.209885 0.052452
v -0.051106 -0.207747 -0.009818
v -0.010826 -0.212129 -0.040794
v 0.039948 -0.227929 -0.024345
v 0.029126 -0.005519 0.061443
v 0.050581 0.008236 0.047700
v 0.025303 0.048544 0.056325
v -0.049300 -0.004862 0.044756
v -0.046893 0.006993 0.048883
v -0.058423 0.046157 0.024408
v -0.052481 -0.002535 -0.030414
v -0.054610 0.011934 -0.020327
v -0.057969 0.046098 -0.020611
v 0.033912 -0.003099 -0.082146
v 0.001083 0.008126 -0.083708
v 0.019669 0.035241 -0.073122
v 0.060007 -0.004164 -0.000160
v 0.060049 0.008113 -0.027861
v 0.058913 0.033385 -0.000260
v 0.044880 0.071471 -0.000075
v 0.032074 0.077980 -0.015377
v 0.025533 0.080061 -0.005338
v 0.057273 0.035809 -0.022700
v 0.058939 0.020376 -0.032292
v 0.040147 0.003881 -0.072909
v 0.040281 0.060641 -0.027186
v 0.014806 0.080561 -0.021352
v -0.011979 0.081780 -0.020529
v 0.007955 0.083754 -0.016869
v -0.005207 0.040052 -0.072457
v -0.032216 0.015498 -0.080931
v -0.040225 0.003618 -0.072715
v -0.034454 0.061186 -0.029194
v -0.036932 0.075416 -0.014670
v -0.042018 0.073475 -0.003690
v -0.019337 0.082118 -0.014790
v -0.059364 0.048117 -0.014991
v -0.060774 0.038028 0.000066
v -0.055695 -0.000744 0.016436
v -0.059466 0.048039 0.017758
v -0.038294 0.071313 0.021761
v -0.013267 0.077265 0.029962
v -0.017850 0.080673 0.010904
v -0.038897 0.056351 0.043686
v -0.028631 0.017515 0.059710
v 0.000612 0.005790 0.065918
v -0.005904 0.058877 0.055325
v 0.016271 0.074295 0.035939
v 0.033234 0.074701 0.018972
v 0.006563 0.081069 0.018518
v 0.045399 0.054680 0.038090
v 0.058969 0.020521 0.038045
v 0.059859 0.007981 0.028367
v 0.048989 0.060392 0.022253
v 0.041720 -0.138448 -0.010112
v 0.059259 -0.037692 -0.028536
v 0.057738 -0.051043 -0.006679
v 0.036145 -0.140869 -0.025243
v 0.029811 -0.143611 -0.034944
v 0.026421 -0.029726 -0.074849
v 0.056734 -0.038134 -0.032692
v -0.000457 -0.141980 -0.043515
v -0.013099 -0.034483 -0.079693
v 0.009725 -0.037040 -0.077868
v -0.020196 -0.142621 -0.039677
v -0.028956 -0.142851 -0.034775
v -0.046867 -0.051290 -0.032954
v -0.029302 -0.027003 -0.075005
v -0.054988 -0.138415 -0.011086
v -0.058384 -0.049978 -0.005393
v -0.054492 -0.050837 -0.019596
v -0.055283 -0.138235 -0.007756
v -0.052345 -0.137822 0.016058
v -0.049597 -0.072899 0.040144
v -0.058484 -0.049591 0.009386
v -0.039590 -0.139324 0.050005
v -0.039366 -0.059475 0.056803
v -0.047289 -0.070150 0.046692
v -0.027009 -0.141249 0.058886
v 0.000683 -0.141334 0.064318
v 0.014862 -0.072068 0.066208
v -0.013084 -0.060189 0.066817
v 0.041769 -0.140634 0.051783
v 0.047763 -0.059266 0.049310
v 0.039381 -0.072460 0.056781
v 0.044107 -0.139309 0.047245
v 0.044376 -0.138049 0.044269
v 0.058353 -0.050805 0.006528
v 0.059384 -0.039999 0.034672
v 0.021707 -0.142857 -0.039564
v 0.030990 -0.224125 -0.035324
v 0.036943 -0.310447 -0.045138
v 0.003491 -0.295793 -0.044623
v 0.011894 -0.224538 -0.040590
v -0.053030 -0.139712 -0.015307
v -0.046822 -0.222628 -0.016581
v -0.029339 -0.286179 -0.030378
v -0.046276 -0.255492 -0.005975
v -0.049504 -0.221048 -0.012935
v -0.046756 -0.138188 0.036664
v -0.045329 -0.220174 0.022300
v -0.033806 -0.283215 0.036749
v -0.029074 -0.287048 0.045009
v -0.038393 -0.220797 0.040722
v 0.028707 -0.141960 0.059432
v 0.016673 -0.224729 0.059665
v 0.036906 -0.310504 0.058251
v 0.051911 -0.306769 0.051092
v 0.035325 -0.223691 0.052679
v 0.043011 -0.137978 0.001842
v 0.040578 -0.230234 0.020492
v 0.058986 -0.316041 -0.015311
v 0.057830 -0.311414 -0.027144
v 0.040754 -0.230380 -0.020724
v 0.039637 -0.350357 -0.028622
v 0.043008 -0.343003 -0.035833
v 0.055951 -0.331392 -0.031508
v 0.023709 -0.353300 -0.030279
v 0.008454 -0.348547 -0.030984
v -0.004171 -0.329099 -0.035129
v 0.018615 -0.338638 -0.043353
v -0.009525 -0.325717 -0.031093
v 0.003095 -0.345641 -0.024913
v -0.001847 -0.340822 -0.015940
v -0.031411 -0.289793 -0.000647
v -0.017665 -0.313756 -0.025710
v -0.017776 -0.313845 0.027353
v 0.001901 -0.344935 0.031804
v 0.008233 -0.348876 0.044352
v -0.004936 -0.329745 0.050091
v -0.009843 -0.326349 0.044291
v 0.056178 -0.334359 -0.017469
v 0.054445 -0.337647 0.020280
v 0.038992 -0.351043 0.033269
v 0.040004 -0.350218 -0.015073
v 0.014407 -0.345734 0.053014
v 0.022058 -0.353555 0.042902
v 0.043441 -0.344353 0.050563
v 0.000813 0.083723 -0.006743
vn -0.1686 -0.9856 0.0127
vn 0.9932 0.0214 0.1145
vn -0.2893 -0.9572 -0.0088
vn -0.2886 -0.9562 0.0485
vn -0.0506 -0.9931 -0.1060
vn 0.9843 0.1516 0.0905
vn -0.2287 -0.0504 0.9722
vn -0.9783 -0.0777 0.1919
vn -0.4996 -0.0175 -0.8661
vn 0.7382 0.1872 -0.6481
vn 0.9463 0.1481 0.2874
vn -0.3755 -0.0301 0.9263
vn -0.9938 -0.0664 0.0893
vn -0.2988 0.0064 -0.9543
vn 0.8796 0.2102 -0.4267
vn 0.4818 0.1163 0.8685
vn -0.8902 0.0223 0.4550
vn -0.9928 -0.0982 -0.0688
vn 0.1395 0.2757 -0.9511
vn 0.9995 0.0292 0.0144
vn 0.3903 0.9184 0.0640
vn 0.7510 0.5195 -0.4075
vn 0.7508 0.4133 -0.5152
vn 0.0206 0.8289 -0.5590
vn 0.0163 0.7804 -0.6250
vn -0.8713 0.3485 -0.3455
vn -0.3559 0.9345 0.0003
vn -0.7491 0.6183 -0.2377
vn -0.9898 -0.0797 0.1183
vn -0.2976 0.9248 0.2369
vn -0.3552 0.7766 0.5203
vn -0.1356 0.1778 0.9747
vn 0.2213 0.9442 0.2438
vn 0.4646 0.7428 0.4822
vn 0.9715 0.1841 -0.1492
vn 0.9831 -0.1786 -0.0406
vn 0.9267 -0.2174 -0.3067
vn 0.7797 -0.1863 -0.5978
vn 0.0406 -0.3144 -0.9484
vn -0.1696 -0.3322 -0.9278
vn -0.8738 -0.1618 -0.4585
vn -0.9646 -0.0201 -0.2631
vn -0.9957 -0.0327 -0.0867
vn -0.9688 -0.0491 0.2428
vn -0.7579 -0.0532 0.6502
vn -0.5822 -0.0673 0.8102
vn 0.0093 -0.0292 0.9995
vn 0.6900 -0.0288 0.7232
vn 0.8939 -0.0523 0.4452
vn 0.9886 -0.1493 0.0211
vn 0.4551 -0.2824 -0.8445
vn 0.4960 0.0114 -0.8682
vn 0.0089 0.0555 -0.9984
vn -0.6336 -0.1087 -0.7660
vn -0.6312 -0.0353 -0.7748
vn -0.8959 -0.1671 -0.4116
vn -0.9639 -0.0558 0.2605
vn -0.9635 -0.0624 0.2602
vn -0.8821 -0.0942 0.4615
vn 0.1701 -0.0617 0.9835
vn 0.1712 -0.0221 0.9850
vn 0.4163 0.0658 0.9068
vn 0.9847 -0.1716 -0.0320
vn 0.9989 -0.0329 -0.0322
vn 0.9782 0.2073 -0.0144
vn 0.6888 -0.6434 -0.3341
vn 0.2029 -0.7314 -0.6510
vn -0.4660 -0.4632 -0.7539
vn -0.6957 -0.5501 -0.4620
vn -0.7296 -0.5763 -0.3682
vn -0.8644 -0.5028 0.0066
vn -0.8662 -0.4996 -0.0074
vn -0.8461 -0.5326 0.0205
vn -0.7487 -0.6000 0.2820
vn 0.9801 -0.1328 -0.1476
vn 0.9874 -0.1551 0.0318
vn 0.2255 -0.9742 -0.0119
vn -0.5598 -0.5667 0.6045
vn -0.2367 -0.8470 0.4760
vn 0.7088 -0.6999 0.0884
vn 0.4508 -0.1140 0.8853
vn 0.5709 -0.1400 0.8090
vn 0.8159 -0.0274 0.5776
vn 0.0920 -0.2036 0.9747
vn 0.0908 -0.7533 0.6513
vn 0.2939 -0.9145 0.2782
vn -0.3178 -0.1765 0.9316
vn -0.2924 -0.1821 0.9388
vn -0.0456 -0.1183 0.9919
vn 0.2608 -0.9654 0.0028
vn 0.2606 -0.9654 0.0036
vn -0.0196 -0.9998 -0.0038
vn 0.6992 -0.7148 -0.0116
vn 0.6975 -0.7159 -0.0303
vn 0.6554 -0.7553 0.0008
vn 0.8812 0.0203 -0.4724
vn 0.9957 -0.0862 -0.0343
vn 0.7379 -0.6578 -0.1509
vn -0.8565 -0.4245 0.2936
vn -0.8017 -0.4004 0.4437
vn -0.5939 -0.2445 0.7664
vn -0.8770 -0.4769 0.0587
vn -0.8451 -0.5347 0.0011
vn -0.7655 -0.6137 0.1935
vn -0.9098 -0.4150 0.0014
vn -0.8915 -0.4507 0.0470
vn -0.8886 -0.4581 -0.0227
vn -0.9066 -0.4043 -0.1209
vn -0.9063 -0.4092 -0.1059
vn -0.8985 -0.4126 -0.1499
vn -0.8403 -0.4148 -0.3490
vn -0.8363 -0.5458 -0.0518
vn -0.8249 -0.5411 -0.1636
vn -0.4472 -0.2129 -0.8687
vn -0.6949 -0.3516 -0.6273
vn -0.7733 -0.3783 -0.5089
vn -0.0335 -0.0414 -0.9986
vn -0.3957 -0.1664 -0.9032
vn -0.3450 -0.1830 -0.9206
vn 0.2506 -0.2226 -0.9421
vn 0.1207 -0.6370 -0.7614
vn -0.1822 -0.6889 -0.7016
vn 0.7716 0.0176 -0.6358
vn 0.3912 -0.0951 -0.9154
vn 0.5443 -0.1352 -0.8279
vn 0.9780 0.0138 -0.2084
vn 0.9746 0.2113 -0.0740
vn 0.9268 0.2090 -0.3121
vn 0.9942 0.0019 -0.1074
vn 0.9997 -0.0255 0.0044
vn 0.9780 0.2084 0.0034
vn 0.9981 -0.0420 -0.0458
vn 0.9844 -0.1709 -0.0428
vn 0.9795 -0.1756 -0.0989
vn 0.8037 -0.0560 0.5924
vn 0.5518 0.0943 0.8286
vn 0.8231 0.1211 0.5549
vn 0.5073 -0.0301 0.8612
vn 0.3527 -0.0486 0.9345
vn 0.3467 0.0664 0.9356
vn 0.3587 -0.0100 0.9334
vn 0.3585 -0.0195 0.9333
vn 0.5082 -0.0453 0.8601
vn -0.7827 -0.0818 0.6170
vn -0.7883 -0.0713 0.6111
vn -0.6786 -0.0811 0.7300
vn -0.8814 -0.0662 0.4677
vn -0.9339 -0.0774 0.3490
vn -0.9330 -0.0907 0.3482
vn -0.9405 -0.0189 0.3394
vn -0.9334 -0.0595 0.3539
vn -0.8811 -0.0757 0.4668
vn -0.9673 -0.0587 -0.2469
vn -0.9926 -0.1053 -0.0608
vn -0.9772 -0.1133 -0.1793
vn -0.9119 -0.0514 -0.4072
vn -0.8151 -0.0522 -0.5769
vn -0.8223 -0.1048 -0.5594
vn -0.8672 -0.0742 -0.4925
vn -0.8684 -0.0381 -0.4944
vn -0.9106 -0.0348 -0.4117
vn -0.0113 -0.0371 -0.9992
vn 0.0374 0.0521 -0.9979
vn -0.2547 0.0007 -0.9670
vn 0.1752 -0.0087 -0.9845
vn 0.2662 -0.0199 -0.9637
vn 0.2611 0.1268 -0.9569
vn 0.3063 -0.3308 -0.8926
vn 0.2939 -0.2957 -0.9089
vn 0.1539 -0.3209 -0.9345
vn 0.9960 0.0019 0.0892
vn 0.9994 -0.0140 -0.0312
vn 0.9993 -0.0327 0.0191
vn 0.8004 -0.0279 0.5988
vn 0.8144 -0.0521 0.5780
vn 0.9885 -0.1487 0.0264
vn 0.5292 0.0220 0.8482
vn 0.6746 -0.0106 0.7381
vn 0.7652 -0.0166 0.6436
vn -0.1873 0.0522 0.9809
vn 0.0253 0.0084 0.9996
vn 0.1683 0.0345 0.9851
vn -0.3557 0.0143 0.9345
vn -0.3566 -0.0301 0.9338
vn -0.1923 -0.0628 0.9793
vn -0.8503 -0.0106 0.5262
vn -0.7799 -0.0138 0.6257
vn -0.5271 0.0414 0.8488
vn -0.9490 0.0087 0.3151
vn -0.9579 0.0133 0.2868
vn -0.9757 -0.0106 0.2188
vn -0.9996 -0.0268 -0.0061
vn -0.9994 -0.0350 -0.0059
vn -0.9906 -0.0596 0.1233
vn -0.9796 -0.0042 -0.2008
vn -0.9645 -0.0049 -0.2640
vn -0.9603 -0.0088 -0.2790
vn -0.5897 -0.1511 -0.7933
vn -0.8291 -0.2587 -0.4957
vn -0.9524 -0.0946 -0.2897
vn -0.3391 -0.1527 -0.9283
vn -0.3894 -0.2971 -0.8718
vn -0.4611 -0.2923 -0.8378
vn 0.0036 -0.1276 -0.9918
vn 0.0663 -0.1155 -0.9911
vn -0.0965 -0.0615 -0.9934
vn 0.9119 -0.0316 -0.4091
vn 0.7542 -0.2736 -0.5969
vn 0.8784 -0.3393 -0.3365
vn 0.8556 -0.0287 -0.5169
vn 0.8459 -0.2052 -0.4923
vn 0.8451 -0.2052 -0.4937
vn 0.9988 -0.0457 -0.0188
vn 0.9981 -0.0181 0.0585
vn 0.9612 -0.0125 -0.2755
vn 0.9383 0.3457 -0.0011
vn 0.9623 0.2185 0.1621
vn 0.9995 0.0291 -0.0072
vn 0.6208 0.7418 0.2538
vn 0.5733 0.7207 0.3899
vn 0.8790 0.3488 0.3250
vn 0.1422 0.9873 0.0713
vn 0.2277 0.9636 0.1403
vn 0.3861 0.9189 0.0803
vn 0.1915 0.6496 0.7357
vn 0.0347 0.1997 0.9792
vn 0.1951 0.1061 0.9750
vn -0.0394 0.8035 0.5940
vn -0.2737 0.7392 0.6154
vn -0.3384 0.2811 0.8981
vn -0.0523 0.9919 0.1161
vn -0.0761 0.9782 0.1932
vn 0.0231 0.9361 0.3511
vn -0.7323 0.6164 0.2894
vn -0.9880 -0.0800 0.1324
vn -0.9741 -0.0918 0.2066
vn -0.7436 0.6482 0.1639
vn -0.8251 0.5650 -0.0012
vn -0.9909 0.1343 -0.0028
vn -0.1038 0.9927 0.0618
vn -0.3243 0.9432 0.0718
vn -0.3546 0.9259 0.1305
vn -0.5709 0.5357 -0.6222
vn -0.5698 0.5312 -0.6271
vn -0.9573 -0.0506 -0.2847
vn -0.3268 0.6466 -0.6893
vn -0.3979 0.6891 -0.6056
vn -0.4188 0.6716 -0.6112
vn -0.0629 0.9972 -0.0413
vn -0.0704 0.9864 -0.1483
vn -0.3191 0.8297 -0.4579
vn 0.4176 0.7028 -0.5760
vn 0.6950 0.4500 -0.5607
vn 0.6011 0.3878 -0.6987
vn 0.3359 0.6336 -0.6969
vn 0.8249 0.5280 -0.2020
vn 0.7405 0.4106 -0.5321
vn 0.1401 0.9849 0.1018
vn 0.2354 0.9707 -0.0479
vn 0.2397 0.9256 -0.2929
vn 0.9378 0.3457 -0.0312
vn 0.9920 0.1107 -0.0605
vn 0.9952 0.0965 0.0176
vn 0.1281 0.7522 -0.6464
vn 0.0404 0.3392 -0.9398
vn -0.0053 0.3315 -0.9435
vn -0.7100 0.5880 -0.3875
vn -0.9735 -0.0974 -0.2067
vn -0.9812 -0.1050 -0.1622
vn -0.6984 0.5999 0.3902
vn -0.7380 0.1878 0.6482
vn -0.5755 0.1773 0.7984
vn 0.3908 0.6517 0.6500
vn 0.6162 0.2249 0.7548
vn 0.5737 0.2269 0.7870
vn 0.9357 0.0373 -0.3508
vn 0.8789 0.0335 -0.4758
vn 0.8322 0.0357 -0.5534
vn -0.1906 -0.0099 -0.9816
vn -0.2972 -0.0247 -0.9545
vn -0.4882 -0.0030 -0.8727
vn -0.9947 -0.0572 -0.0853
vn -0.9941 -0.0624 0.0893
vn -0.9908 -0.0562 0.1232
vn -0.5809 -0.0484 0.8125
vn -0.3773 -0.0686 0.9236
vn -0.1925 -0.0280 0.9809
vn 0.8938 -0.0515 0.4455
vn 0.9726 -0.0599 0.2247
vn 0.9962 -0.0551 0.0667
vn 0.7172 0.0138 -0.6967
vn 0.7373 0.1871 -0.6492
vn 0.5143 0.1318 -0.8474
vn -0.6866 -0.0120 -0.7269
vn -0.6868 -0.0112 -0.7268
vn -0.8625 -0.1312 -0.4888
vn -0.9778 -0.0683 0.1981
vn -0.9784 -0.0778 0.1916
vn -0.9159 -0.0771 0.3939
vn -0.0219 -0.0599 0.9980
vn -0.0022 -0.0180 0.9998
vn -0.0044 -0.0175 0.9998
vn 0.9970 -0.0552 0.0547
vn 0.9672 0.1911 -0.1673
vn 0.9780 0.2087 0.0027
vn 0.1897 -0.9780 -0.0863
vn -0.1111 -0.9934 -0.0272
vn -0.2588 -0.8872 -0.3819
vn -0.5046 -0.8627 -0.0327
vn -0.5073 -0.8583 -0.0769
vn -0.6358 -0.7693 0.0630
vn -0.6366 -0.7710 -0.0164
vn -0.5217 -0.8530 0.0117
vn -0.5218 -0.8531 -0.0046
vn 0.9898 -0.1358 0.0438
vn 0.9925 -0.1076 -0.0584
vn 0.7017 -0.7042 0.1085
vn -0.3094 -0.9455 0.1012
vn -0.1837 -0.9830 -0.0042
vn 0.1728 -0.9838 0.0473
s 0
f 1//1 2//1 3//1
f 4//2 5//2 6//2
f 1//3 3//3 7//3
f 1//4 7//4 8//4
f 1//5 8//5 9//5
f 4//6 6//6 10//6
f 11//7 12//7 13//7
f 14//8 15//8 16//8
f 17//9 18//9 19//9
f 20//10 21//10 22//10
f 4//11 10//11 23//11
f 11//12 13//12 24//12
f 14//13 16//13 25//13
f 17//14 19//14 26//14
f 20//15 22//15 27//15
f 28//16 29//16 30//16
f 31//17 32//17 33//17
f 34//18 35//18 36//18
f 37//19 38//19 39//19
f 40//20 41//20 42//20
f 43//21 44//21 45//21
f 43//22 46//22 44//22
f 47//23 48//23 49//23
f 50//24 51//24 52//24
f 50//25 53//25 51//25
f 54//26 55//26 56//26
f 57//27 58//27 59//27
f 57//28 60//28 58//28
f 61//29 62//29 63//29
f 64//30 65//30 66//30
f 64//31 67//31 65//31
f 68//32 69//32 70//32
f 71//33 72//33 73//33
f 71//34 74//34 72//34
f 75//35 76//35 77//35
f 78//36 79//36 80//36
f 78//37 81//37 79//37
f 82//38 83//38 84//38
f 85//39 86//39 87//39
f 85//40 88//40 86//40
f 89//41 90//41 91//41
f 92//42 93//42 94//42
f 92//43 95//43 93//43
f 96//44 97//44 98//44
f 99//45 100//45 101//45
f 99//46 102//46 100//46
f 103//47 104//47 105//47
f 106//48 107//48 108//48
f 106//49 109//49 107//49
f 110//50 111//50 112//50
f 82//51 113//51 83//51
f 82//52 114//52 113//52
f 115//53 116//53 117//53
f 89//54 118//54 90//54
f 89//55 119//55 118//55
f 120//56 121//56 122//56
f 96//57 123//57 97//57
f 96//58 124//58 123//58
f 125//59 126//59 127//59
f 103//60 128//60 104//60
f 103//61 129//61 128//61
f 130//62 131//62 132//62
f 110//63 133//63 111//63
f 110//64 134//64 133//64
f 135//65 136//65 137//65
f 138//66 139//66 140//66
f 138//67 141//67 139//67
f 142//68 143//68 144//68
f 142//69 145//69 143//69
f 142//70 146//70 145//70
f 147//71 148//71 149//71
f 147//72 150//72 148//72
f 147//73 151//73 150//73
f 152//74 153//74 154//74
f 135//75 155//75 136//75
f 135//76 156//76 155//76
f 157//77 2//77 158//77
f 152//78 159//78 153//78
f 152//79 160//79 159//79
f 157//80 5//80 161//80
f 161//81 131//81 130//81
f 161//82 5//82 131//82
f 5//83 4//83 131//83
f 159//84 161//84 130//84
f 159//85 160//85 161//85
f 160//86 157//86 161//86
f 153//87 12//87 11//87
f 153//88 159//88 12//88
f 159//89 130//89 12//89
f 158//90 9//90 138//90
f 158//91 2//91 9//91
f 2//92 1//92 9//92
f 155//93 158//93 138//93
f 155//94 156//94 158//94
f 156//95 157//95 158//95
f 136//96 140//96 20//96
f 136//97 155//97 140//97
f 155//98 138//98 140//98
f 154//99 126//99 125//99
f 154//100 153//100 126//100
f 153//101 11//101 126//101
f 150//102 154//102 125//102
f 150//103 151//103 154//103
f 151//104 152//104 154//104
f 148//105 15//105 14//105
f 148//106 150//106 15//106
f 150//107 125//107 15//107
f 149//108 121//108 120//108
f 149//109 148//109 121//109
f 148//110 14//110 121//110
f 145//111 149//111 120//111
f 145//112 146//112 149//112
f 146//113 147//113 149//113
f 143//114 18//114 17//114
f 143//115 145//115 18//115
f 145//116 120//116 18//116
f 144//117 116//117 115//117
f 144//118 143//118 116//118
f 143//119 17//119 116//119
f 139//120 144//120 115//120
f 139//121 141//121 144//121
f 141//122 142//122 144//122
f 140//123 21//123 20//123
f 140//124 139//124 21//124
f 139//125 115//125 21//125
f 137//126 27//126 78//126
f 137//127 136//127 27//127
f 136//128 20//128 27//128
f 133//129 137//129 78//129
f 133//130 134//130 137//130
f 134//131 135//131 137//131
f 111//132 80//132 40//132
f 111//133 133//133 80//133
f 133//134 78//134 80//134
f 132//135 23//135 106//135
f 132//136 131//136 23//136
f 131//137 4//137 23//137
f 128//138 132//138 106//138
f 128//139 129//139 132//139
f 129//140 130//140 132//140
f 104//141 108//141 28//141
f 104//142 128//142 108//142
f 128//143 106//143 108//143
f 127//144 24//144 99//144
f 127//145 126//145 24//145
f 126//146 11//146 24//146
f 123//147 127//147 99//147
f 123//148 124//148 127//148
f 124//149 125//149 127//149
f 97//150 101//150 31//150
f 97//151 123//151 101//151
f 123//152 99//152 101//152
f 122//153 25//153 92//153
f 122//154 121//154 25//154
f 121//155 14//155 25//155
f 118//156 122//156 92//156
f 118//157 119//157 122//157
f 119//158 120//158 122//158
f 90//159 94//159 34//159
f 90//160 118//160 94//160
f 118//161 92//161 94//161
f 117//162 26//162 85//162
f 117//163 116//163 26//163
f 116//164 17//164 26//164
f 113//165 117//165 85//165
f 113//166 114//166 117//166
f 114//167 115//167 117//167
f 83//168 87//168 37//168
f 83//169 113//169 87//169
f 113//170 85//170 87//170
f 112//171 76//171 75//171
f 112//172 111//172 76//172
f 111//173 40//173 76//173
f 107//174 112//174 75//174
f 107//175 109//175 112//175
f 109//176 110//176 112//176
f 108//177 29//177 28//177
f 108//178 107//178 29//178
f 107//179 75//179 29//179
f 105//180 69//180 68//180
f 105//181 104//181 69//181
f 104//182 28//182 69//182
f 100//183 105//183 68//183
f 100//184 102//184 105//184
f 102//185 103//185 105//185
f 101//186 32//186 31//186
f 101//187 100//187 32//187
f 100//188 68//188 32//188
f 98//189 62//189 61//189
f 98//190 97//190 62//190
f 97//191 31//191 62//191
f 93//192 98//192 61//192
f 93//193 95//193 98//193
f 95//194 96//194 98//194
f 94//195 35//195 34//195
f 94//196 93//196 35//196
f 93//197 61//197 35//197
f 91//198 55//198 54//198
f 91//199 90//199 55//199
f 90//200 34//200 55//200
f 86//201 91//201 54//201
f 86//202 88//202 91//202
f 88//203 89//203 91//203
f 87//204 38//204 37//204
f 87//205 86//205 38//205
f 86//206 54//206 38//206
f 84//207 48//207 47//207
f 84//208 83//208 48//208
f 83//209 37//209 48//209
f 79//210 84//210 47//210
f 79//211 81//211 84//211
f 81//212 82//212 84//212
f 80//213 41//213 40//213
f 80//214 79//214 41//214
f 79//215 47//215 41//215
f 77//216 42//216 43//216
f 77//217 76//217 42//217
f 76//218 40//218 42//218
f 72//219 77//219 43//219
f 72//220 74//220 77//220
f 74//221 75//221 77//221
f 73//222 45//222 162//222
f 73//223 72//223 45//223
f 72//224 43//224 45//224
f 70//225 30//225 71//225
f 70//226 69//226 30//226
f 69//227 28//227 30//227
f 65//228 70//228 71//228
f 65//229 67//229 70//229
f 67//230 68//230 70//230
f 66//231 73//231 162//231
f 66//232 65//232 73//232
f 65//233 71//233 73//233
f 63//234 33//234 64//234
f 63//235 62//235 33//235
f 62//236 31//236 33//236
f 58//237 63//237 64//237
f 58//238 60//238 63//238
f 60//239 61//239 63//239
f 59//240 66//240 162//240
f 59//241 58//241 66//241
f 58//242 64//242 66//242
f 56//243 36//243 57//243
f 56//244 55//244 36//244
f 55//245 34//245 36//245
f 51//246 56//246 57//246
f 51//247 53//247 56//247
f 53//248 54//248 56//248
f 52//249 59//249 162//249
f 52//250 51//250 59//250
f 51//251 57//251 59//251
f 49//252 39//252 50//252
f 49//253 48//253 39//253
f 48//254 37//254 39//254
f 44//255 49//255 50//255
f 44//256 46//256 49//256
f 46//257 47//257 49//257
f 45//258 52//258 162//258
f 45//259 44//259 52//259
f 44//260 50//260 52//260
f 42//261 46//261 43//261
f 42//262 41//262 46//262
f 41//263 47//263 46//263
f 39//264 53//264 50//264
f 39//265 38//265 53//265
f 38//266 54//266 53//266
f 36//267 60//267 57//267
f 36//268 35//268 60//268
f 35//269 61//269 60//269
f 33//270 67//270 64//270
f 33//271 32//271 67//271
f 32//272 68//272 67//272
f 30//273 74//273 71//273
f 30//274 29//274 74//274
f 29//275 75//275 74//275
f 27//276 81//276 78//276
f 27//277 22//277 81//277
f 22//278 82//278 81//278
f 26//279 88//279 85//279
f 26//280 19//280 88//280
f 19//281 89//281 88//281
f 25//282 95//282 92//282
f 25//283 16//283 95//283
f 16//284 96//284 95//284
f 24//285 102//285 99//285
f 24//286 13//286 102//286
f 13//287 103//287 102//287
f 23//288 109//288 106//288
f 23//289 10//289 109//289
f 10//290 110//290 109//290
f 22//291 114//291 82//291
f 22//292 21//292 114//292
f 21//293 115//293 114//293
f 19//294 119//294 89//294
f 19//295 18//295 119//295
f 18//296 120//296 119//296
f 16//297 124//297 96//297
f 16//298 15//298 124//298
f 15//299 125//299 124//299
f 13//300 129//300 103//300
f 13//301 12//301 129//301
f 12//302 130//302 129//302
f 10//303 134//303 110//303
f 10//304 6//304 134//304
f 6//305 135//305 134//305
f 9//306 141//306 138//306
f 9//307 8//307 141//307
f 8//308 142//308 141//308
f 8//309 146//309 142//309
f 8//310 7//310 146//310
f 7//311 147//311 146//311
f 7//312 151//312 147//312
f 7//313 3//313 151//313
f 3//314 152//314 151//314
f 6//315 156//315 135//315
f 6//316 5//316 156//316
f 5//317 157//317 156//317
f 3//318 160//318 152//318
f 3//319 2//319 160//319
f 2//320 157//320 160//320
